G04 #@! TF.FileFunction,Copper,L2,Bot,Signal*
%FSLAX46Y46*%
G04 Gerber Fmt 4.6, Leading zero omitted, Abs format (unit mm)*
G04 Created by KiCad (PCBNEW 4.0.5+dfsg1-4) date Mon Jun 12 20:40:11 2017*
%MOMM*%
%LPD*%
G01*
G04 APERTURE LIST*
%ADD10C,0.100000*%
%ADD11C,1.501140*%
%ADD12O,1.727200X2.032000*%
%ADD13C,4.064000*%
%ADD14R,1.300000X1.300000*%
%ADD15C,1.300000*%
%ADD16O,1.250000X1.250000*%
%ADD17O,1.550000X1.800000*%
%ADD18R,1.397000X1.397000*%
%ADD19C,1.397000*%
%ADD20R,1.900000X2.000000*%
%ADD21C,1.900000*%
%ADD22C,2.000000*%
%ADD23C,1.998980*%
%ADD24C,0.600000*%
%ADD25C,0.550000*%
%ADD26C,0.400000*%
%ADD27C,0.600000*%
%ADD28C,0.254000*%
G04 APERTURE END LIST*
D10*
D11*
X164082060Y-94265000D03*
X168963940Y-94265000D03*
D12*
X138938000Y-123825000D03*
X141478000Y-123825000D03*
X144018000Y-123825000D03*
X146558000Y-123825000D03*
X149098000Y-123825000D03*
X151638000Y-123825000D03*
X154178000Y-123825000D03*
X156718000Y-123825000D03*
X161798000Y-123825000D03*
X164338000Y-123825000D03*
X166878000Y-123825000D03*
X169418000Y-123825000D03*
X171958000Y-123825000D03*
X174498000Y-123825000D03*
X129794000Y-75565000D03*
X132334000Y-75565000D03*
X134874000Y-75565000D03*
X137414000Y-75565000D03*
X139954000Y-75565000D03*
X142494000Y-75565000D03*
X145034000Y-75565000D03*
X147574000Y-75565000D03*
X150114000Y-75565000D03*
X152654000Y-75565000D03*
X156718000Y-75565000D03*
X159258000Y-75565000D03*
X161798000Y-75565000D03*
X164338000Y-75565000D03*
X166878000Y-75565000D03*
X169418000Y-75565000D03*
X171958000Y-75565000D03*
X174498000Y-75565000D03*
D13*
X124968000Y-123825000D03*
X177038000Y-118745000D03*
X126238000Y-75565000D03*
X177038000Y-90805000D03*
D14*
X164298000Y-89140000D03*
D15*
X164298000Y-84140000D03*
D14*
X168698000Y-89015000D03*
D15*
X168698000Y-84015000D03*
D14*
X136698000Y-118690000D03*
D15*
X134198000Y-118690000D03*
D14*
X160098000Y-116390000D03*
D15*
X155098000Y-116390000D03*
D14*
X129873000Y-123790000D03*
D15*
X134873000Y-123790000D03*
D14*
X163448000Y-116290000D03*
D15*
X168448000Y-116290000D03*
D16*
X115160540Y-85764100D03*
X115160540Y-90764100D03*
D17*
X112460540Y-84764100D03*
X112460540Y-91764100D03*
D18*
X174728000Y-95925000D03*
D19*
X177268000Y-95925000D03*
X174728000Y-98465000D03*
X177268000Y-98465000D03*
X174728000Y-101005000D03*
X177268000Y-101005000D03*
D20*
X116000000Y-98500000D03*
D21*
X113460000Y-98500000D03*
D20*
X116000000Y-106000000D03*
D21*
X113460000Y-106000000D03*
D20*
X116000000Y-113500000D03*
D21*
X113460000Y-113500000D03*
D20*
X116000000Y-121000000D03*
D21*
X113460000Y-121000000D03*
D22*
X114098000Y-79165000D03*
X114098000Y-74665000D03*
X120598000Y-79165000D03*
X120598000Y-74665000D03*
D23*
X123423000Y-95990000D03*
X133583000Y-95990000D03*
X133598000Y-99015000D03*
X123438000Y-99015000D03*
X133598000Y-102015000D03*
X123438000Y-102015000D03*
X123423000Y-105040000D03*
X133583000Y-105040000D03*
X139748000Y-107965000D03*
X149908000Y-107965000D03*
X139748000Y-104965000D03*
X149908000Y-104965000D03*
X139748000Y-101990000D03*
X149908000Y-101990000D03*
X139748000Y-99015000D03*
X149908000Y-99015000D03*
X139748000Y-95990000D03*
X149908000Y-95990000D03*
D14*
X129223000Y-118640000D03*
D15*
X126723000Y-118640000D03*
D14*
X146523000Y-116465000D03*
D15*
X151523000Y-116465000D03*
D24*
X155448000Y-92786200D03*
X141224000Y-80695800D03*
X146761200Y-80645000D03*
X151079200Y-80594200D03*
X148488400Y-92837000D03*
X117805200Y-94615000D03*
X118516400Y-92633800D03*
X120243600Y-97358200D03*
X136144000Y-102082600D03*
X125476000Y-105029000D03*
X126847600Y-101930200D03*
X118872000Y-103149400D03*
X145643600Y-104571800D03*
X144627600Y-99034600D03*
X128168400Y-109042200D03*
X168249600Y-118897400D03*
X173837600Y-117170200D03*
X165074400Y-109075300D03*
X164454100Y-109641300D03*
X174026800Y-102008100D03*
X169566700Y-103626300D03*
X163773900Y-110321500D03*
X154585200Y-107889700D03*
X155321700Y-104290000D03*
X166119000Y-101483600D03*
X158302000Y-107456000D03*
X158389700Y-106589200D03*
X158446700Y-105584000D03*
X159413600Y-105899700D03*
X159423900Y-104232500D03*
X159598800Y-106920500D03*
X161021800Y-103490000D03*
X161729500Y-98924900D03*
X162397600Y-97256700D03*
X165348300Y-92439100D03*
X169684100Y-93089400D03*
X166868000Y-103996100D03*
X152012900Y-101091500D03*
X152727600Y-106769300D03*
X129612000Y-103640100D03*
X170561000Y-108990000D03*
X170561000Y-105918000D03*
D25*
X151079200Y-88417400D02*
X155448000Y-92786200D01*
X151079200Y-80594200D02*
X151079200Y-88417400D01*
X118516400Y-93903800D02*
X117805200Y-94615000D01*
X120483200Y-74665000D02*
X118516400Y-76631800D01*
X118516400Y-76631800D02*
X118516400Y-92633800D01*
X118516400Y-92633800D02*
X118516400Y-93903800D01*
X120598000Y-74665000D02*
X120483200Y-74665000D01*
X116000000Y-113500000D02*
X123710600Y-113500000D01*
X123710600Y-113500000D02*
X128168400Y-109042200D01*
D26*
X134392800Y-77998400D02*
X135133000Y-77998400D01*
X135133000Y-77998400D02*
X137414000Y-75717400D01*
X137414000Y-75717400D02*
X137414000Y-75565000D01*
X134392800Y-93659800D02*
X134392800Y-77998400D01*
X139748000Y-99015000D02*
X134392800Y-93659800D01*
X123931400Y-77998400D02*
X134392800Y-77998400D01*
X120598000Y-74665000D02*
X123931400Y-77998400D01*
X163448000Y-116290000D02*
X162922900Y-116290000D01*
X175195400Y-97362700D02*
X167634000Y-97362700D01*
X175998000Y-98165300D02*
X175195400Y-97362700D01*
X175998000Y-99735000D02*
X175998000Y-98165300D01*
X177268000Y-101005000D02*
X175998000Y-99735000D01*
X167634000Y-85079000D02*
X168698000Y-84015000D01*
X167634000Y-97362700D02*
X167634000Y-85079000D01*
X156204300Y-117496300D02*
X155098000Y-116390000D01*
X160960300Y-117496300D02*
X156204300Y-117496300D01*
X162544800Y-115911800D02*
X160960300Y-117496300D01*
X162922900Y-116290000D02*
X162544800Y-115911800D01*
X167634000Y-104290300D02*
X167634000Y-97362700D01*
X162418700Y-109505600D02*
X167634000Y-104290300D01*
X162418700Y-115785800D02*
X162418700Y-109505600D01*
X162544800Y-115911800D02*
X162418700Y-115785800D01*
X116000000Y-113500000D02*
X116000000Y-121000000D01*
X172523000Y-116523900D02*
X165074400Y-109075300D01*
X174498000Y-123825000D02*
X174498000Y-122409000D01*
X174498000Y-122409000D02*
X172523000Y-120434000D01*
X172523000Y-120434000D02*
X172523000Y-116523900D01*
X169418000Y-123825000D02*
X169418000Y-122409000D01*
X169418000Y-122409000D02*
X165961900Y-118952900D01*
X165961900Y-118952900D02*
X165961900Y-111149000D01*
X165961900Y-111149000D02*
X165961800Y-111149000D01*
X165961800Y-111149000D02*
X164454100Y-109641300D01*
X150390000Y-106465000D02*
X155940000Y-112015000D01*
X160098000Y-116390000D02*
X160098000Y-115340000D01*
X160098000Y-115340000D02*
X156773000Y-112015000D01*
X156773000Y-112015000D02*
X155940000Y-112015000D01*
X149323400Y-106465000D02*
X150390000Y-106465000D01*
X141984200Y-99125800D02*
X149323400Y-106465000D01*
X141984200Y-84254800D02*
X141984200Y-99125800D01*
X138684000Y-80954600D02*
X141984200Y-84254800D01*
X138684000Y-74884700D02*
X138684000Y-80954600D01*
X137933600Y-74134300D02*
X138684000Y-74884700D01*
X136304700Y-74134300D02*
X137933600Y-74134300D01*
X134874000Y-75565000D02*
X136304700Y-74134300D01*
X164082100Y-90406200D02*
X164298000Y-90190300D01*
X164082100Y-94265000D02*
X164082100Y-90406200D01*
X164298000Y-89140000D02*
X164298000Y-90190300D01*
X168963900Y-90331200D02*
X168698000Y-90065300D01*
X168963900Y-94265000D02*
X168963900Y-90331200D01*
X168698000Y-89015000D02*
X168698000Y-90065300D01*
D27*
X134873000Y-123790000D02*
X134873000Y-119963000D01*
X134873000Y-119963000D02*
X134750001Y-119840001D01*
X136698000Y-118690000D02*
X135900002Y-118690000D01*
X135900002Y-118690000D02*
X134750001Y-119840001D01*
X134750001Y-119840001D02*
X131673001Y-119840001D01*
X131673001Y-119840001D02*
X130473000Y-118640000D01*
X130473000Y-118640000D02*
X129223000Y-118640000D01*
X141478000Y-123825000D02*
X141478000Y-122220000D01*
X141478000Y-122220000D02*
X137948000Y-118690000D01*
X137948000Y-118690000D02*
X136698000Y-118690000D01*
X149908000Y-107965000D02*
X149908000Y-123015000D01*
X149908000Y-123015000D02*
X149098000Y-123825000D01*
X133583000Y-105040000D02*
X124533000Y-95990000D01*
X124533000Y-95990000D02*
X123423000Y-95990000D01*
X113460000Y-98500000D02*
X113460000Y-106000000D01*
X113460000Y-98500000D02*
X113460000Y-97156498D01*
X113460000Y-97156498D02*
X114626498Y-95990000D01*
X114626498Y-95990000D02*
X122009508Y-95990000D01*
X122009508Y-95990000D02*
X123423000Y-95990000D01*
D26*
X136698000Y-118690000D02*
X135647700Y-118690000D01*
X129223000Y-118640000D02*
X130273300Y-118640000D01*
X134873000Y-119740400D02*
X134873000Y-123790000D01*
X135647700Y-118965700D02*
X134873000Y-119740400D01*
X135647700Y-118690000D02*
X135647700Y-118965700D01*
X131373700Y-119740400D02*
X130273300Y-118640000D01*
X134873000Y-119740400D02*
X131373700Y-119740400D01*
X174728000Y-95925000D02*
X175642218Y-95925000D01*
X177381400Y-97023800D02*
X178388700Y-98031100D01*
X175642218Y-95925000D02*
X176741018Y-97023800D01*
X176741018Y-97023800D02*
X177381400Y-97023800D01*
X178388700Y-98031100D02*
X178388700Y-101473500D01*
X178388700Y-101473500D02*
X177752500Y-102109700D01*
X174128400Y-102109700D02*
X174026800Y-102008100D01*
X177752500Y-102109700D02*
X174128400Y-102109700D01*
X174728000Y-98465000D02*
X169566700Y-103626300D01*
X144018000Y-123825000D02*
X144018000Y-123977400D01*
X144018000Y-123977400D02*
X145301500Y-125260900D01*
X167820800Y-106380000D02*
X173195800Y-101005000D01*
X145301500Y-125260900D02*
X157252500Y-125260900D01*
X166671900Y-106380000D02*
X167820800Y-106380000D01*
X157252500Y-125260900D02*
X164498400Y-118015000D01*
X163069900Y-109982000D02*
X166671900Y-106380000D01*
X164498400Y-118015000D02*
X164498400Y-114438400D01*
X164498400Y-114438400D02*
X163069900Y-113009900D01*
X163069900Y-113009900D02*
X163069900Y-109982000D01*
X173195800Y-101005000D02*
X174728000Y-101005000D01*
X133583000Y-92150000D02*
X133583000Y-95990000D01*
X120598000Y-79165000D02*
X133583000Y-92150000D01*
X144018000Y-104205100D02*
X144018000Y-123825000D01*
X140315400Y-100502500D02*
X144018000Y-104205100D01*
X138095500Y-100502500D02*
X140315400Y-100502500D01*
X133583000Y-95990000D02*
X138095500Y-100502500D01*
X164338000Y-123825000D02*
X164338000Y-122408700D01*
X165135400Y-111683000D02*
X163773900Y-110321500D01*
X165135400Y-121611300D02*
X165135400Y-111683000D01*
X164338000Y-122408700D02*
X165135400Y-121611300D01*
X139954000Y-75565000D02*
X139954000Y-76981000D01*
X139954000Y-76981000D02*
X143184900Y-80211900D01*
X143184900Y-80211900D02*
X143184900Y-89266900D01*
X143184900Y-89266900D02*
X149908000Y-95990000D01*
X154585200Y-100667200D02*
X154585200Y-107889700D01*
X149908000Y-95990000D02*
X154585200Y-100667200D01*
X142494000Y-75565000D02*
X142494000Y-76981300D01*
X143785200Y-78272500D02*
X142494000Y-76981300D01*
X143785200Y-85991900D02*
X143785200Y-78272500D01*
X155321700Y-97528400D02*
X143785200Y-85991900D01*
X155321700Y-104290000D02*
X155321700Y-97528400D01*
X145034000Y-86391600D02*
X145034000Y-75565000D01*
X156022100Y-97379700D02*
X145034000Y-86391600D01*
X156022100Y-106166400D02*
X156022100Y-97379700D01*
X158048900Y-108193200D02*
X156022100Y-106166400D01*
X159409400Y-108193200D02*
X158048900Y-108193200D01*
X166119000Y-101483600D02*
X159409400Y-108193200D01*
X147574000Y-75565000D02*
X147574000Y-76981000D01*
X147574000Y-76981000D02*
X148837900Y-78244900D01*
X148837900Y-78244900D02*
X148837900Y-89328800D01*
X148837900Y-89328800D02*
X156622400Y-97113300D01*
X156622400Y-97113300D02*
X156622400Y-105825100D01*
X156622400Y-105825100D02*
X158253300Y-107456000D01*
X158253300Y-107456000D02*
X158302000Y-107456000D01*
X150114000Y-75565000D02*
X150114000Y-76981000D01*
X150114000Y-76981000D02*
X157522900Y-84389900D01*
X157522900Y-84389900D02*
X157522900Y-105722400D01*
X157522900Y-105722400D02*
X158389700Y-106589200D01*
X152654000Y-75565000D02*
X152654000Y-76981000D01*
X152654000Y-76981000D02*
X158123200Y-82450200D01*
X158123200Y-82450200D02*
X158123200Y-105260500D01*
X158123200Y-105260500D02*
X158446700Y-105584000D01*
X156718000Y-75565000D02*
X156718000Y-76981000D01*
X159413600Y-105393200D02*
X159413600Y-105899700D01*
X156718000Y-76981000D02*
X158723500Y-78986500D01*
X158723500Y-78986500D02*
X158723500Y-104703100D01*
X158723500Y-104703100D02*
X159413600Y-105393200D01*
X159258000Y-75565000D02*
X159258000Y-76981300D01*
X159423900Y-77147200D02*
X159258000Y-76981300D01*
X159423900Y-104232500D02*
X159423900Y-77147200D01*
X161798000Y-75565000D02*
X161798000Y-76981300D01*
X160253400Y-106265900D02*
X159598800Y-106920500D01*
X160253400Y-78525900D02*
X160253400Y-106265900D01*
X161798000Y-76981300D02*
X160253400Y-78525900D01*
X164338000Y-75565000D02*
X164338000Y-76981300D01*
X161021800Y-80297500D02*
X161021800Y-103490000D01*
X164338000Y-76981300D02*
X161021800Y-80297500D01*
X166878000Y-75565000D02*
X166878000Y-76981000D01*
X166878000Y-76981000D02*
X161683300Y-82175700D01*
X161683300Y-82175700D02*
X161683300Y-98878700D01*
X161683300Y-98878700D02*
X161729500Y-98924900D01*
X169418000Y-75565000D02*
X169418000Y-80608800D01*
X169418000Y-80608800D02*
X162397600Y-87629200D01*
X162397600Y-87629200D02*
X162397600Y-97256700D01*
X165348300Y-85771000D02*
X165348300Y-92439100D01*
X171958000Y-79161300D02*
X165348300Y-85771000D01*
X171958000Y-75565000D02*
X171958000Y-79161300D01*
X174498000Y-88275500D02*
X169684100Y-93089400D01*
X174498000Y-75565000D02*
X174498000Y-88275500D01*
X162070600Y-108793500D02*
X166868000Y-103996100D01*
X153736500Y-108793500D02*
X162070600Y-108793500D01*
X149908000Y-104965000D02*
X153736500Y-108793500D01*
X151114400Y-101990000D02*
X152012900Y-101091500D01*
X149908000Y-101990000D02*
X151114400Y-101990000D01*
X152727600Y-100776300D02*
X152727600Y-106769300D01*
X150966300Y-99015000D02*
X152727600Y-100776300D01*
X149908000Y-99015000D02*
X150966300Y-99015000D01*
D27*
X146558000Y-123825000D02*
X146558000Y-116500000D01*
X146558000Y-116500000D02*
X146523000Y-116465000D01*
D26*
X116000000Y-98500000D02*
X117350300Y-98500000D01*
X122490400Y-103640100D02*
X129612000Y-103640100D01*
X117350300Y-98500000D02*
X122490400Y-103640100D01*
X117803200Y-106452900D02*
X117350300Y-106000000D01*
X135285100Y-106452900D02*
X117803200Y-106452900D01*
X139748000Y-101990000D02*
X135285100Y-106452900D01*
X116000000Y-106000000D02*
X117350300Y-106000000D01*
D25*
X170561000Y-105918000D02*
X170561000Y-108990000D01*
D28*
G36*
X178868000Y-116803193D02*
X178550707Y-116485345D01*
X177570827Y-116078464D01*
X176509828Y-116077538D01*
X175529239Y-116482709D01*
X174778345Y-117232293D01*
X174371464Y-118212173D01*
X174370538Y-119273172D01*
X174775709Y-120253761D01*
X175525293Y-121004655D01*
X176505173Y-121411536D01*
X177566172Y-121412462D01*
X178546761Y-121007291D01*
X178868000Y-120686612D01*
X178868000Y-120990909D01*
X176535954Y-123322954D01*
X176382046Y-123553295D01*
X176328000Y-123825000D01*
X176328000Y-125655000D01*
X158039268Y-125655000D01*
X160360330Y-123333938D01*
X160299400Y-123640255D01*
X160299400Y-124009745D01*
X160413474Y-124583234D01*
X160738330Y-125069415D01*
X161224511Y-125394271D01*
X161798000Y-125508345D01*
X162371489Y-125394271D01*
X162857670Y-125069415D01*
X163068000Y-124754634D01*
X163278330Y-125069415D01*
X163764511Y-125394271D01*
X164338000Y-125508345D01*
X164911489Y-125394271D01*
X165397670Y-125069415D01*
X165608000Y-124754634D01*
X165818330Y-125069415D01*
X166304511Y-125394271D01*
X166878000Y-125508345D01*
X167451489Y-125394271D01*
X167937670Y-125069415D01*
X168148000Y-124754634D01*
X168358330Y-125069415D01*
X168844511Y-125394271D01*
X169418000Y-125508345D01*
X169991489Y-125394271D01*
X170477670Y-125069415D01*
X170688000Y-124754634D01*
X170898330Y-125069415D01*
X171384511Y-125394271D01*
X171958000Y-125508345D01*
X172531489Y-125394271D01*
X173017670Y-125069415D01*
X173228000Y-124754634D01*
X173438330Y-125069415D01*
X173924511Y-125394271D01*
X174498000Y-125508345D01*
X175071489Y-125394271D01*
X175557670Y-125069415D01*
X175882526Y-124583234D01*
X175996600Y-124009745D01*
X175996600Y-123640255D01*
X175882526Y-123066766D01*
X175557670Y-122580585D01*
X175333000Y-122430465D01*
X175333000Y-122409000D01*
X175313764Y-122312293D01*
X175269440Y-122089460D01*
X175088434Y-121818566D01*
X173358000Y-120088132D01*
X173358000Y-116523900D01*
X173294439Y-116204359D01*
X173113434Y-115933466D01*
X165966935Y-108786967D01*
X165867517Y-108546357D01*
X165777043Y-108455725D01*
X167017768Y-107215000D01*
X167820800Y-107215000D01*
X168140341Y-107151439D01*
X168411234Y-106970434D01*
X169626141Y-105755527D01*
X169625838Y-106103167D01*
X169651000Y-106164064D01*
X169651000Y-108743385D01*
X169626162Y-108803201D01*
X169625838Y-109175167D01*
X169767883Y-109518943D01*
X170030673Y-109782192D01*
X170374201Y-109924838D01*
X170746167Y-109925162D01*
X171089943Y-109783117D01*
X171353192Y-109520327D01*
X171495838Y-109176799D01*
X171496162Y-108804833D01*
X171471000Y-108743936D01*
X171471000Y-106164615D01*
X171495838Y-106104799D01*
X171496162Y-105732833D01*
X171354117Y-105389057D01*
X171091327Y-105125808D01*
X170747799Y-104983162D01*
X170398810Y-104982858D01*
X173119930Y-102261738D01*
X173233683Y-102537043D01*
X173496473Y-102800292D01*
X173840001Y-102942938D01*
X174120771Y-102943183D01*
X174128400Y-102944700D01*
X177752500Y-102944700D01*
X178072041Y-102881139D01*
X178342934Y-102700134D01*
X178868000Y-102175068D01*
X178868000Y-116803193D01*
X178868000Y-116803193D01*
G37*
X178868000Y-116803193D02*
X178550707Y-116485345D01*
X177570827Y-116078464D01*
X176509828Y-116077538D01*
X175529239Y-116482709D01*
X174778345Y-117232293D01*
X174371464Y-118212173D01*
X174370538Y-119273172D01*
X174775709Y-120253761D01*
X175525293Y-121004655D01*
X176505173Y-121411536D01*
X177566172Y-121412462D01*
X178546761Y-121007291D01*
X178868000Y-120686612D01*
X178868000Y-120990909D01*
X176535954Y-123322954D01*
X176382046Y-123553295D01*
X176328000Y-123825000D01*
X176328000Y-125655000D01*
X158039268Y-125655000D01*
X160360330Y-123333938D01*
X160299400Y-123640255D01*
X160299400Y-124009745D01*
X160413474Y-124583234D01*
X160738330Y-125069415D01*
X161224511Y-125394271D01*
X161798000Y-125508345D01*
X162371489Y-125394271D01*
X162857670Y-125069415D01*
X163068000Y-124754634D01*
X163278330Y-125069415D01*
X163764511Y-125394271D01*
X164338000Y-125508345D01*
X164911489Y-125394271D01*
X165397670Y-125069415D01*
X165608000Y-124754634D01*
X165818330Y-125069415D01*
X166304511Y-125394271D01*
X166878000Y-125508345D01*
X167451489Y-125394271D01*
X167937670Y-125069415D01*
X168148000Y-124754634D01*
X168358330Y-125069415D01*
X168844511Y-125394271D01*
X169418000Y-125508345D01*
X169991489Y-125394271D01*
X170477670Y-125069415D01*
X170688000Y-124754634D01*
X170898330Y-125069415D01*
X171384511Y-125394271D01*
X171958000Y-125508345D01*
X172531489Y-125394271D01*
X173017670Y-125069415D01*
X173228000Y-124754634D01*
X173438330Y-125069415D01*
X173924511Y-125394271D01*
X174498000Y-125508345D01*
X175071489Y-125394271D01*
X175557670Y-125069415D01*
X175882526Y-124583234D01*
X175996600Y-124009745D01*
X175996600Y-123640255D01*
X175882526Y-123066766D01*
X175557670Y-122580585D01*
X175333000Y-122430465D01*
X175333000Y-122409000D01*
X175313764Y-122312293D01*
X175269440Y-122089460D01*
X175088434Y-121818566D01*
X173358000Y-120088132D01*
X173358000Y-116523900D01*
X173294439Y-116204359D01*
X173113434Y-115933466D01*
X165966935Y-108786967D01*
X165867517Y-108546357D01*
X165777043Y-108455725D01*
X167017768Y-107215000D01*
X167820800Y-107215000D01*
X168140341Y-107151439D01*
X168411234Y-106970434D01*
X169626141Y-105755527D01*
X169625838Y-106103167D01*
X169651000Y-106164064D01*
X169651000Y-108743385D01*
X169626162Y-108803201D01*
X169625838Y-109175167D01*
X169767883Y-109518943D01*
X170030673Y-109782192D01*
X170374201Y-109924838D01*
X170746167Y-109925162D01*
X171089943Y-109783117D01*
X171353192Y-109520327D01*
X171495838Y-109176799D01*
X171496162Y-108804833D01*
X171471000Y-108743936D01*
X171471000Y-106164615D01*
X171495838Y-106104799D01*
X171496162Y-105732833D01*
X171354117Y-105389057D01*
X171091327Y-105125808D01*
X170747799Y-104983162D01*
X170398810Y-104982858D01*
X173119930Y-102261738D01*
X173233683Y-102537043D01*
X173496473Y-102800292D01*
X173840001Y-102942938D01*
X174120771Y-102943183D01*
X174128400Y-102944700D01*
X177752500Y-102944700D01*
X178072041Y-102881139D01*
X178342934Y-102700134D01*
X178868000Y-102175068D01*
X178868000Y-116803193D01*
G36*
X112678613Y-73790736D02*
X112452092Y-74400461D01*
X112476144Y-75050460D01*
X112678613Y-75539264D01*
X112945468Y-75637927D01*
X113918395Y-74665000D01*
X113904253Y-74650858D01*
X114083858Y-74471253D01*
X114098000Y-74485395D01*
X114112143Y-74471253D01*
X114291748Y-74650858D01*
X114277605Y-74665000D01*
X115250532Y-75637927D01*
X115517387Y-75539264D01*
X115743908Y-74929539D01*
X115719856Y-74279540D01*
X115517387Y-73790736D01*
X115366637Y-73735000D01*
X119329363Y-73735000D01*
X119178613Y-73790736D01*
X118952092Y-74400461D01*
X118976144Y-75050460D01*
X119178613Y-75539264D01*
X119445468Y-75637927D01*
X120418395Y-74665000D01*
X120404253Y-74650858D01*
X120583858Y-74471253D01*
X120598000Y-74485395D01*
X120612143Y-74471253D01*
X120791748Y-74650858D01*
X120777605Y-74665000D01*
X121750532Y-75637927D01*
X122017387Y-75539264D01*
X122243908Y-74929539D01*
X122219856Y-74279540D01*
X122017387Y-73790736D01*
X121866637Y-73735000D01*
X124296193Y-73735000D01*
X123978345Y-74052293D01*
X123571464Y-75032173D01*
X123570538Y-76093172D01*
X123975709Y-77073761D01*
X124725293Y-77824655D01*
X125705173Y-78231536D01*
X126766172Y-78232462D01*
X127746761Y-77827291D01*
X128497655Y-77077707D01*
X128657071Y-76693789D01*
X128734330Y-76809415D01*
X129220511Y-77134271D01*
X129794000Y-77248345D01*
X130367489Y-77134271D01*
X130853670Y-76809415D01*
X131064000Y-76494634D01*
X131274330Y-76809415D01*
X131760511Y-77134271D01*
X132334000Y-77248345D01*
X132907489Y-77134271D01*
X133393670Y-76809415D01*
X133604000Y-76494634D01*
X133814330Y-76809415D01*
X134300511Y-77134271D01*
X134874000Y-77248345D01*
X135447489Y-77134271D01*
X135933670Y-76809415D01*
X136140461Y-76499931D01*
X136511964Y-76915732D01*
X137039209Y-77169709D01*
X137054974Y-77172358D01*
X137287000Y-77051217D01*
X137287000Y-75692000D01*
X137267000Y-75692000D01*
X137267000Y-75438000D01*
X137287000Y-75438000D01*
X137287000Y-75418000D01*
X137541000Y-75418000D01*
X137541000Y-75438000D01*
X137561000Y-75438000D01*
X137561000Y-75692000D01*
X137541000Y-75692000D01*
X137541000Y-77051217D01*
X137773026Y-77172358D01*
X137788791Y-77169709D01*
X137849000Y-77140706D01*
X137849000Y-80954600D01*
X137912561Y-81274141D01*
X138025924Y-81443800D01*
X138093566Y-81545034D01*
X141149200Y-84600668D01*
X141149200Y-95101014D01*
X141134462Y-95065345D01*
X140675073Y-94605154D01*
X140074547Y-94355794D01*
X139424306Y-94355226D01*
X138823345Y-94603538D01*
X138363154Y-95062927D01*
X138113794Y-95663453D01*
X138113226Y-96313694D01*
X138361538Y-96914655D01*
X138820927Y-97374846D01*
X139114122Y-97496591D01*
X138874042Y-97596035D01*
X138775443Y-97862837D01*
X139748000Y-98835395D01*
X140720557Y-97862837D01*
X140621958Y-97596035D01*
X140368828Y-97502001D01*
X140672655Y-97376462D01*
X141132846Y-96917073D01*
X141149200Y-96877688D01*
X141149200Y-98134477D01*
X140900163Y-98042443D01*
X139927605Y-99015000D01*
X139941748Y-99029142D01*
X139762143Y-99208748D01*
X139748000Y-99194605D01*
X139733858Y-99208748D01*
X139554252Y-99029142D01*
X139568395Y-99015000D01*
X138595837Y-98042443D01*
X138329035Y-98141042D01*
X138102599Y-98750582D01*
X138124829Y-99350961D01*
X135180005Y-96406137D01*
X135217206Y-96316547D01*
X135217774Y-95666306D01*
X134969462Y-95065345D01*
X134510073Y-94605154D01*
X134418000Y-94566922D01*
X134418000Y-92150000D01*
X134354439Y-91830459D01*
X134173434Y-91559566D01*
X122195395Y-79581527D01*
X122232716Y-79491648D01*
X122233284Y-78841205D01*
X121984894Y-78240057D01*
X121525363Y-77779722D01*
X120924648Y-77530284D01*
X120274205Y-77529716D01*
X119673057Y-77778106D01*
X119212722Y-78237637D01*
X118963284Y-78838352D01*
X118962716Y-79488795D01*
X119211106Y-80089943D01*
X119670637Y-80550278D01*
X120271352Y-80799716D01*
X120921795Y-80800284D01*
X121014225Y-80762093D01*
X132748000Y-92495868D01*
X132748000Y-94566493D01*
X132658345Y-94603538D01*
X132198154Y-95062927D01*
X131948794Y-95663453D01*
X131948226Y-96313694D01*
X132196538Y-96914655D01*
X132655927Y-97374846D01*
X132970848Y-97505612D01*
X132673345Y-97628538D01*
X132213154Y-98087927D01*
X131963794Y-98688453D01*
X131963226Y-99338694D01*
X132211538Y-99939655D01*
X132670927Y-100399846D01*
X132948189Y-100514975D01*
X132673345Y-100628538D01*
X132213154Y-101087927D01*
X131963794Y-101688453D01*
X131963436Y-102098146D01*
X125194145Y-95328855D01*
X124890809Y-95126173D01*
X124829562Y-95113990D01*
X124809462Y-95065345D01*
X124350073Y-94605154D01*
X123749547Y-94355794D01*
X123099306Y-94355226D01*
X122498345Y-94603538D01*
X122046095Y-95055000D01*
X114626498Y-95055000D01*
X114268689Y-95126173D01*
X113965353Y-95328855D01*
X112798855Y-96495353D01*
X112596173Y-96798689D01*
X112525000Y-97156498D01*
X112525000Y-97193795D01*
X112117086Y-97600997D01*
X111875276Y-98183341D01*
X111874725Y-98813893D01*
X112115519Y-99396657D01*
X112525000Y-99806854D01*
X112525000Y-104693795D01*
X112117086Y-105100997D01*
X111875276Y-105683341D01*
X111874725Y-106313893D01*
X112115519Y-106896657D01*
X112560997Y-107342914D01*
X113143341Y-107584724D01*
X113773893Y-107585275D01*
X114356657Y-107344481D01*
X114454337Y-107246971D01*
X114585910Y-107451441D01*
X114798110Y-107596431D01*
X115050000Y-107647440D01*
X116950000Y-107647440D01*
X117185317Y-107603162D01*
X117401441Y-107464090D01*
X117546431Y-107251890D01*
X117549364Y-107237409D01*
X117803200Y-107287900D01*
X135285100Y-107287900D01*
X135604641Y-107224339D01*
X135875534Y-107043334D01*
X138113648Y-104805220D01*
X138113226Y-105288694D01*
X138361538Y-105889655D01*
X138820927Y-106349846D01*
X139098189Y-106464975D01*
X138823345Y-106578538D01*
X138363154Y-107037927D01*
X138113794Y-107638453D01*
X138113226Y-108288694D01*
X138361538Y-108889655D01*
X138820927Y-109349846D01*
X139421453Y-109599206D01*
X140071694Y-109599774D01*
X140672655Y-109351462D01*
X141132846Y-108892073D01*
X141382206Y-108291547D01*
X141382774Y-107641306D01*
X141134462Y-107040345D01*
X140675073Y-106580154D01*
X140397811Y-106465025D01*
X140672655Y-106351462D01*
X141132846Y-105892073D01*
X141382206Y-105291547D01*
X141382774Y-104641306D01*
X141134462Y-104040345D01*
X140675073Y-103580154D01*
X140427989Y-103477556D01*
X140672655Y-103376462D01*
X141132846Y-102917073D01*
X141254978Y-102622946D01*
X143183000Y-104550968D01*
X143183000Y-122430465D01*
X142958330Y-122580585D01*
X142748000Y-122895366D01*
X142537670Y-122580585D01*
X142413000Y-122497283D01*
X142413000Y-122220000D01*
X142341827Y-121862191D01*
X142139145Y-121558855D01*
X138609145Y-118028855D01*
X138305809Y-117826173D01*
X137948000Y-117755000D01*
X137919192Y-117755000D01*
X137812090Y-117588559D01*
X137599890Y-117443569D01*
X137348000Y-117392560D01*
X136048000Y-117392560D01*
X135812683Y-117436838D01*
X135596559Y-117575910D01*
X135451569Y-117788110D01*
X135429223Y-117898458D01*
X135328159Y-117918561D01*
X135209605Y-117997776D01*
X135097016Y-117970590D01*
X134377605Y-118690000D01*
X134391748Y-118704142D01*
X134212143Y-118883748D01*
X134198000Y-118869605D01*
X134183858Y-118883748D01*
X134004253Y-118704143D01*
X134018395Y-118690000D01*
X133298984Y-117970590D01*
X133068389Y-118026271D01*
X132900378Y-118509078D01*
X132923294Y-118905001D01*
X132060291Y-118905001D01*
X131134145Y-117978855D01*
X130852976Y-117790984D01*
X133478590Y-117790984D01*
X134198000Y-118510395D01*
X134917410Y-117790984D01*
X134861729Y-117560389D01*
X134378922Y-117392378D01*
X133868572Y-117421917D01*
X133534271Y-117560389D01*
X133478590Y-117790984D01*
X130852976Y-117790984D01*
X130830809Y-117776173D01*
X130473000Y-117705000D01*
X130444192Y-117705000D01*
X130337090Y-117538559D01*
X130124890Y-117393569D01*
X129873000Y-117342560D01*
X128573000Y-117342560D01*
X128337683Y-117386838D01*
X128121559Y-117525910D01*
X127976569Y-117738110D01*
X127925560Y-117990000D01*
X127925560Y-118152385D01*
X127852611Y-117976271D01*
X127622016Y-117920590D01*
X126902605Y-118640000D01*
X127622016Y-119359410D01*
X127852611Y-119303729D01*
X127925560Y-119094098D01*
X127925560Y-119290000D01*
X127969838Y-119525317D01*
X128108910Y-119741441D01*
X128321110Y-119886431D01*
X128573000Y-119937440D01*
X129873000Y-119937440D01*
X130108317Y-119893162D01*
X130252692Y-119800260D01*
X130783266Y-120330834D01*
X130958897Y-120448187D01*
X131011856Y-120501146D01*
X131315192Y-120703828D01*
X131673001Y-120775001D01*
X133938000Y-120775001D01*
X133938000Y-122907689D01*
X133784265Y-123061155D01*
X133588223Y-123533276D01*
X133587777Y-124044481D01*
X133782995Y-124516943D01*
X134144155Y-124878735D01*
X134616276Y-125074777D01*
X135127481Y-125075223D01*
X135599943Y-124880005D01*
X135961735Y-124518845D01*
X136157777Y-124046724D01*
X136158223Y-123535519D01*
X135963005Y-123063057D01*
X135808000Y-122907781D01*
X135808000Y-120104292D01*
X135945590Y-119966702D01*
X136048000Y-119987440D01*
X137348000Y-119987440D01*
X137583317Y-119943162D01*
X137763152Y-119827442D01*
X140477056Y-122541346D01*
X140418330Y-122580585D01*
X140208000Y-122895366D01*
X139997670Y-122580585D01*
X139511489Y-122255729D01*
X138938000Y-122141655D01*
X138364511Y-122255729D01*
X137878330Y-122580585D01*
X137553474Y-123066766D01*
X137439400Y-123640255D01*
X137439400Y-124009745D01*
X137553474Y-124583234D01*
X137878330Y-125069415D01*
X138364511Y-125394271D01*
X138938000Y-125508345D01*
X139511489Y-125394271D01*
X139997670Y-125069415D01*
X140208000Y-124754634D01*
X140418330Y-125069415D01*
X140904511Y-125394271D01*
X141478000Y-125508345D01*
X142051489Y-125394271D01*
X142537670Y-125069415D01*
X142748000Y-124754634D01*
X142958330Y-125069415D01*
X143444511Y-125394271D01*
X144018000Y-125508345D01*
X144309996Y-125450264D01*
X144514732Y-125655000D01*
X126909807Y-125655000D01*
X127227655Y-125337707D01*
X127634536Y-124357827D01*
X127634782Y-124075750D01*
X128588000Y-124075750D01*
X128588000Y-124566310D01*
X128684673Y-124799699D01*
X128863302Y-124978327D01*
X129096691Y-125075000D01*
X129587250Y-125075000D01*
X129746000Y-124916250D01*
X129746000Y-123917000D01*
X130000000Y-123917000D01*
X130000000Y-124916250D01*
X130158750Y-125075000D01*
X130649309Y-125075000D01*
X130882698Y-124978327D01*
X131061327Y-124799699D01*
X131158000Y-124566310D01*
X131158000Y-124075750D01*
X130999250Y-123917000D01*
X130000000Y-123917000D01*
X129746000Y-123917000D01*
X128746750Y-123917000D01*
X128588000Y-124075750D01*
X127634782Y-124075750D01*
X127635462Y-123296828D01*
X127518472Y-123013690D01*
X128588000Y-123013690D01*
X128588000Y-123504250D01*
X128746750Y-123663000D01*
X129746000Y-123663000D01*
X129746000Y-122663750D01*
X130000000Y-122663750D01*
X130000000Y-123663000D01*
X130999250Y-123663000D01*
X131158000Y-123504250D01*
X131158000Y-123013690D01*
X131061327Y-122780301D01*
X130882698Y-122601673D01*
X130649309Y-122505000D01*
X130158750Y-122505000D01*
X130000000Y-122663750D01*
X129746000Y-122663750D01*
X129587250Y-122505000D01*
X129096691Y-122505000D01*
X128863302Y-122601673D01*
X128684673Y-122780301D01*
X128588000Y-123013690D01*
X127518472Y-123013690D01*
X127230291Y-122316239D01*
X126480707Y-121565345D01*
X125500827Y-121158464D01*
X124439828Y-121157538D01*
X123459239Y-121562709D01*
X122708345Y-122312293D01*
X122301464Y-123292173D01*
X122300538Y-124353172D01*
X122705709Y-125333761D01*
X123026388Y-125655000D01*
X111708000Y-125655000D01*
X111708000Y-121313893D01*
X111874725Y-121313893D01*
X112115519Y-121896657D01*
X112560997Y-122342914D01*
X113143341Y-122584724D01*
X113773893Y-122585275D01*
X114356657Y-122344481D01*
X114461867Y-122239455D01*
X114511673Y-122359698D01*
X114690301Y-122538327D01*
X114923690Y-122635000D01*
X115714250Y-122635000D01*
X115873000Y-122476250D01*
X115873000Y-121127000D01*
X116127000Y-121127000D01*
X116127000Y-122476250D01*
X116285750Y-122635000D01*
X117076310Y-122635000D01*
X117309699Y-122538327D01*
X117488327Y-122359698D01*
X117585000Y-122126309D01*
X117585000Y-121285750D01*
X117426250Y-121127000D01*
X116127000Y-121127000D01*
X115873000Y-121127000D01*
X115853000Y-121127000D01*
X115853000Y-120873000D01*
X115873000Y-120873000D01*
X115873000Y-119523750D01*
X116127000Y-119523750D01*
X116127000Y-120873000D01*
X117426250Y-120873000D01*
X117585000Y-120714250D01*
X117585000Y-119873691D01*
X117488327Y-119640302D01*
X117387042Y-119539016D01*
X126003590Y-119539016D01*
X126059271Y-119769611D01*
X126542078Y-119937622D01*
X127052428Y-119908083D01*
X127386729Y-119769611D01*
X127442410Y-119539016D01*
X126723000Y-118819605D01*
X126003590Y-119539016D01*
X117387042Y-119539016D01*
X117309699Y-119461673D01*
X117076310Y-119365000D01*
X116285750Y-119365000D01*
X116127000Y-119523750D01*
X115873000Y-119523750D01*
X115714250Y-119365000D01*
X114923690Y-119365000D01*
X114690301Y-119461673D01*
X114511673Y-119640302D01*
X114461988Y-119760251D01*
X114359003Y-119657086D01*
X113776659Y-119415276D01*
X113146107Y-119414725D01*
X112563343Y-119655519D01*
X112117086Y-120100997D01*
X111875276Y-120683341D01*
X111874725Y-121313893D01*
X111708000Y-121313893D01*
X111708000Y-118459078D01*
X125425378Y-118459078D01*
X125454917Y-118969428D01*
X125593389Y-119303729D01*
X125823984Y-119359410D01*
X126543395Y-118640000D01*
X125823984Y-117920590D01*
X125593389Y-117976271D01*
X125425378Y-118459078D01*
X111708000Y-118459078D01*
X111708000Y-117740984D01*
X126003590Y-117740984D01*
X126723000Y-118460395D01*
X127442410Y-117740984D01*
X127386729Y-117510389D01*
X126903922Y-117342378D01*
X126393572Y-117371917D01*
X126059271Y-117510389D01*
X126003590Y-117740984D01*
X111708000Y-117740984D01*
X111708000Y-113813893D01*
X111874725Y-113813893D01*
X112115519Y-114396657D01*
X112560997Y-114842914D01*
X113143341Y-115084724D01*
X113773893Y-115085275D01*
X114356657Y-114844481D01*
X114461867Y-114739455D01*
X114511673Y-114859698D01*
X114690301Y-115038327D01*
X114923690Y-115135000D01*
X115714250Y-115135000D01*
X115873000Y-114976250D01*
X115873000Y-113627000D01*
X116127000Y-113627000D01*
X116127000Y-114976250D01*
X116285750Y-115135000D01*
X117076310Y-115135000D01*
X117309699Y-115038327D01*
X117488327Y-114859698D01*
X117585000Y-114626309D01*
X117585000Y-113785750D01*
X117426250Y-113627000D01*
X116127000Y-113627000D01*
X115873000Y-113627000D01*
X115853000Y-113627000D01*
X115853000Y-113373000D01*
X115873000Y-113373000D01*
X115873000Y-112023750D01*
X116127000Y-112023750D01*
X116127000Y-113373000D01*
X117426250Y-113373000D01*
X117585000Y-113214250D01*
X117585000Y-112373691D01*
X117488327Y-112140302D01*
X117309699Y-111961673D01*
X117076310Y-111865000D01*
X116285750Y-111865000D01*
X116127000Y-112023750D01*
X115873000Y-112023750D01*
X115714250Y-111865000D01*
X114923690Y-111865000D01*
X114690301Y-111961673D01*
X114511673Y-112140302D01*
X114461988Y-112260251D01*
X114359003Y-112157086D01*
X113776659Y-111915276D01*
X113146107Y-111914725D01*
X112563343Y-112155519D01*
X112117086Y-112600997D01*
X111875276Y-113183341D01*
X111874725Y-113813893D01*
X111708000Y-113813893D01*
X111708000Y-93079550D01*
X111920956Y-93221842D01*
X112460540Y-93329172D01*
X113000124Y-93221842D01*
X113457561Y-92916193D01*
X113763210Y-92458756D01*
X113870540Y-91919172D01*
X113870540Y-91609028D01*
X113763210Y-91069444D01*
X113559187Y-90764100D01*
X113875855Y-90764100D01*
X113971767Y-91246281D01*
X114244900Y-91655055D01*
X114653674Y-91928188D01*
X115135855Y-92024100D01*
X115185225Y-92024100D01*
X115667406Y-91928188D01*
X116076180Y-91655055D01*
X116349313Y-91246281D01*
X116445225Y-90764100D01*
X116349313Y-90281919D01*
X116076180Y-89873145D01*
X115667406Y-89600012D01*
X115185225Y-89504100D01*
X115135855Y-89504100D01*
X114653674Y-89600012D01*
X114244900Y-89873145D01*
X113971767Y-90281919D01*
X113875855Y-90764100D01*
X113559187Y-90764100D01*
X113457561Y-90612007D01*
X113000124Y-90306358D01*
X112460540Y-90199028D01*
X111920956Y-90306358D01*
X111708000Y-90448650D01*
X111708000Y-86079550D01*
X111920956Y-86221842D01*
X112460540Y-86329172D01*
X113000124Y-86221842D01*
X113457561Y-85916193D01*
X113559186Y-85764100D01*
X113875855Y-85764100D01*
X113971767Y-86246281D01*
X114244900Y-86655055D01*
X114653674Y-86928188D01*
X115135855Y-87024100D01*
X115185225Y-87024100D01*
X115667406Y-86928188D01*
X116076180Y-86655055D01*
X116349313Y-86246281D01*
X116445225Y-85764100D01*
X116349313Y-85281919D01*
X116076180Y-84873145D01*
X115667406Y-84600012D01*
X115185225Y-84504100D01*
X115135855Y-84504100D01*
X114653674Y-84600012D01*
X114244900Y-84873145D01*
X113971767Y-85281919D01*
X113875855Y-85764100D01*
X113559186Y-85764100D01*
X113763210Y-85458756D01*
X113870540Y-84919172D01*
X113870540Y-84609028D01*
X113763210Y-84069444D01*
X113457561Y-83612007D01*
X113000124Y-83306358D01*
X112460540Y-83199028D01*
X111920956Y-83306358D01*
X111708000Y-83448650D01*
X111708000Y-79488795D01*
X112462716Y-79488795D01*
X112711106Y-80089943D01*
X113170637Y-80550278D01*
X113771352Y-80799716D01*
X114421795Y-80800284D01*
X115022943Y-80551894D01*
X115483278Y-80092363D01*
X115732716Y-79491648D01*
X115733284Y-78841205D01*
X115484894Y-78240057D01*
X115025363Y-77779722D01*
X114424648Y-77530284D01*
X113774205Y-77529716D01*
X113173057Y-77778106D01*
X112712722Y-78237637D01*
X112463284Y-78838352D01*
X112462716Y-79488795D01*
X111708000Y-79488795D01*
X111708000Y-75817532D01*
X113125073Y-75817532D01*
X113223736Y-76084387D01*
X113833461Y-76310908D01*
X114483460Y-76286856D01*
X114972264Y-76084387D01*
X115070927Y-75817532D01*
X119625073Y-75817532D01*
X119723736Y-76084387D01*
X120333461Y-76310908D01*
X120983460Y-76286856D01*
X121472264Y-76084387D01*
X121570927Y-75817532D01*
X120598000Y-74844605D01*
X119625073Y-75817532D01*
X115070927Y-75817532D01*
X114098000Y-74844605D01*
X113125073Y-75817532D01*
X111708000Y-75817532D01*
X111708000Y-73735000D01*
X112829363Y-73735000D01*
X112678613Y-73790736D01*
X112678613Y-73790736D01*
G37*
X112678613Y-73790736D02*
X112452092Y-74400461D01*
X112476144Y-75050460D01*
X112678613Y-75539264D01*
X112945468Y-75637927D01*
X113918395Y-74665000D01*
X113904253Y-74650858D01*
X114083858Y-74471253D01*
X114098000Y-74485395D01*
X114112143Y-74471253D01*
X114291748Y-74650858D01*
X114277605Y-74665000D01*
X115250532Y-75637927D01*
X115517387Y-75539264D01*
X115743908Y-74929539D01*
X115719856Y-74279540D01*
X115517387Y-73790736D01*
X115366637Y-73735000D01*
X119329363Y-73735000D01*
X119178613Y-73790736D01*
X118952092Y-74400461D01*
X118976144Y-75050460D01*
X119178613Y-75539264D01*
X119445468Y-75637927D01*
X120418395Y-74665000D01*
X120404253Y-74650858D01*
X120583858Y-74471253D01*
X120598000Y-74485395D01*
X120612143Y-74471253D01*
X120791748Y-74650858D01*
X120777605Y-74665000D01*
X121750532Y-75637927D01*
X122017387Y-75539264D01*
X122243908Y-74929539D01*
X122219856Y-74279540D01*
X122017387Y-73790736D01*
X121866637Y-73735000D01*
X124296193Y-73735000D01*
X123978345Y-74052293D01*
X123571464Y-75032173D01*
X123570538Y-76093172D01*
X123975709Y-77073761D01*
X124725293Y-77824655D01*
X125705173Y-78231536D01*
X126766172Y-78232462D01*
X127746761Y-77827291D01*
X128497655Y-77077707D01*
X128657071Y-76693789D01*
X128734330Y-76809415D01*
X129220511Y-77134271D01*
X129794000Y-77248345D01*
X130367489Y-77134271D01*
X130853670Y-76809415D01*
X131064000Y-76494634D01*
X131274330Y-76809415D01*
X131760511Y-77134271D01*
X132334000Y-77248345D01*
X132907489Y-77134271D01*
X133393670Y-76809415D01*
X133604000Y-76494634D01*
X133814330Y-76809415D01*
X134300511Y-77134271D01*
X134874000Y-77248345D01*
X135447489Y-77134271D01*
X135933670Y-76809415D01*
X136140461Y-76499931D01*
X136511964Y-76915732D01*
X137039209Y-77169709D01*
X137054974Y-77172358D01*
X137287000Y-77051217D01*
X137287000Y-75692000D01*
X137267000Y-75692000D01*
X137267000Y-75438000D01*
X137287000Y-75438000D01*
X137287000Y-75418000D01*
X137541000Y-75418000D01*
X137541000Y-75438000D01*
X137561000Y-75438000D01*
X137561000Y-75692000D01*
X137541000Y-75692000D01*
X137541000Y-77051217D01*
X137773026Y-77172358D01*
X137788791Y-77169709D01*
X137849000Y-77140706D01*
X137849000Y-80954600D01*
X137912561Y-81274141D01*
X138025924Y-81443800D01*
X138093566Y-81545034D01*
X141149200Y-84600668D01*
X141149200Y-95101014D01*
X141134462Y-95065345D01*
X140675073Y-94605154D01*
X140074547Y-94355794D01*
X139424306Y-94355226D01*
X138823345Y-94603538D01*
X138363154Y-95062927D01*
X138113794Y-95663453D01*
X138113226Y-96313694D01*
X138361538Y-96914655D01*
X138820927Y-97374846D01*
X139114122Y-97496591D01*
X138874042Y-97596035D01*
X138775443Y-97862837D01*
X139748000Y-98835395D01*
X140720557Y-97862837D01*
X140621958Y-97596035D01*
X140368828Y-97502001D01*
X140672655Y-97376462D01*
X141132846Y-96917073D01*
X141149200Y-96877688D01*
X141149200Y-98134477D01*
X140900163Y-98042443D01*
X139927605Y-99015000D01*
X139941748Y-99029142D01*
X139762143Y-99208748D01*
X139748000Y-99194605D01*
X139733858Y-99208748D01*
X139554252Y-99029142D01*
X139568395Y-99015000D01*
X138595837Y-98042443D01*
X138329035Y-98141042D01*
X138102599Y-98750582D01*
X138124829Y-99350961D01*
X135180005Y-96406137D01*
X135217206Y-96316547D01*
X135217774Y-95666306D01*
X134969462Y-95065345D01*
X134510073Y-94605154D01*
X134418000Y-94566922D01*
X134418000Y-92150000D01*
X134354439Y-91830459D01*
X134173434Y-91559566D01*
X122195395Y-79581527D01*
X122232716Y-79491648D01*
X122233284Y-78841205D01*
X121984894Y-78240057D01*
X121525363Y-77779722D01*
X120924648Y-77530284D01*
X120274205Y-77529716D01*
X119673057Y-77778106D01*
X119212722Y-78237637D01*
X118963284Y-78838352D01*
X118962716Y-79488795D01*
X119211106Y-80089943D01*
X119670637Y-80550278D01*
X120271352Y-80799716D01*
X120921795Y-80800284D01*
X121014225Y-80762093D01*
X132748000Y-92495868D01*
X132748000Y-94566493D01*
X132658345Y-94603538D01*
X132198154Y-95062927D01*
X131948794Y-95663453D01*
X131948226Y-96313694D01*
X132196538Y-96914655D01*
X132655927Y-97374846D01*
X132970848Y-97505612D01*
X132673345Y-97628538D01*
X132213154Y-98087927D01*
X131963794Y-98688453D01*
X131963226Y-99338694D01*
X132211538Y-99939655D01*
X132670927Y-100399846D01*
X132948189Y-100514975D01*
X132673345Y-100628538D01*
X132213154Y-101087927D01*
X131963794Y-101688453D01*
X131963436Y-102098146D01*
X125194145Y-95328855D01*
X124890809Y-95126173D01*
X124829562Y-95113990D01*
X124809462Y-95065345D01*
X124350073Y-94605154D01*
X123749547Y-94355794D01*
X123099306Y-94355226D01*
X122498345Y-94603538D01*
X122046095Y-95055000D01*
X114626498Y-95055000D01*
X114268689Y-95126173D01*
X113965353Y-95328855D01*
X112798855Y-96495353D01*
X112596173Y-96798689D01*
X112525000Y-97156498D01*
X112525000Y-97193795D01*
X112117086Y-97600997D01*
X111875276Y-98183341D01*
X111874725Y-98813893D01*
X112115519Y-99396657D01*
X112525000Y-99806854D01*
X112525000Y-104693795D01*
X112117086Y-105100997D01*
X111875276Y-105683341D01*
X111874725Y-106313893D01*
X112115519Y-106896657D01*
X112560997Y-107342914D01*
X113143341Y-107584724D01*
X113773893Y-107585275D01*
X114356657Y-107344481D01*
X114454337Y-107246971D01*
X114585910Y-107451441D01*
X114798110Y-107596431D01*
X115050000Y-107647440D01*
X116950000Y-107647440D01*
X117185317Y-107603162D01*
X117401441Y-107464090D01*
X117546431Y-107251890D01*
X117549364Y-107237409D01*
X117803200Y-107287900D01*
X135285100Y-107287900D01*
X135604641Y-107224339D01*
X135875534Y-107043334D01*
X138113648Y-104805220D01*
X138113226Y-105288694D01*
X138361538Y-105889655D01*
X138820927Y-106349846D01*
X139098189Y-106464975D01*
X138823345Y-106578538D01*
X138363154Y-107037927D01*
X138113794Y-107638453D01*
X138113226Y-108288694D01*
X138361538Y-108889655D01*
X138820927Y-109349846D01*
X139421453Y-109599206D01*
X140071694Y-109599774D01*
X140672655Y-109351462D01*
X141132846Y-108892073D01*
X141382206Y-108291547D01*
X141382774Y-107641306D01*
X141134462Y-107040345D01*
X140675073Y-106580154D01*
X140397811Y-106465025D01*
X140672655Y-106351462D01*
X141132846Y-105892073D01*
X141382206Y-105291547D01*
X141382774Y-104641306D01*
X141134462Y-104040345D01*
X140675073Y-103580154D01*
X140427989Y-103477556D01*
X140672655Y-103376462D01*
X141132846Y-102917073D01*
X141254978Y-102622946D01*
X143183000Y-104550968D01*
X143183000Y-122430465D01*
X142958330Y-122580585D01*
X142748000Y-122895366D01*
X142537670Y-122580585D01*
X142413000Y-122497283D01*
X142413000Y-122220000D01*
X142341827Y-121862191D01*
X142139145Y-121558855D01*
X138609145Y-118028855D01*
X138305809Y-117826173D01*
X137948000Y-117755000D01*
X137919192Y-117755000D01*
X137812090Y-117588559D01*
X137599890Y-117443569D01*
X137348000Y-117392560D01*
X136048000Y-117392560D01*
X135812683Y-117436838D01*
X135596559Y-117575910D01*
X135451569Y-117788110D01*
X135429223Y-117898458D01*
X135328159Y-117918561D01*
X135209605Y-117997776D01*
X135097016Y-117970590D01*
X134377605Y-118690000D01*
X134391748Y-118704142D01*
X134212143Y-118883748D01*
X134198000Y-118869605D01*
X134183858Y-118883748D01*
X134004253Y-118704143D01*
X134018395Y-118690000D01*
X133298984Y-117970590D01*
X133068389Y-118026271D01*
X132900378Y-118509078D01*
X132923294Y-118905001D01*
X132060291Y-118905001D01*
X131134145Y-117978855D01*
X130852976Y-117790984D01*
X133478590Y-117790984D01*
X134198000Y-118510395D01*
X134917410Y-117790984D01*
X134861729Y-117560389D01*
X134378922Y-117392378D01*
X133868572Y-117421917D01*
X133534271Y-117560389D01*
X133478590Y-117790984D01*
X130852976Y-117790984D01*
X130830809Y-117776173D01*
X130473000Y-117705000D01*
X130444192Y-117705000D01*
X130337090Y-117538559D01*
X130124890Y-117393569D01*
X129873000Y-117342560D01*
X128573000Y-117342560D01*
X128337683Y-117386838D01*
X128121559Y-117525910D01*
X127976569Y-117738110D01*
X127925560Y-117990000D01*
X127925560Y-118152385D01*
X127852611Y-117976271D01*
X127622016Y-117920590D01*
X126902605Y-118640000D01*
X127622016Y-119359410D01*
X127852611Y-119303729D01*
X127925560Y-119094098D01*
X127925560Y-119290000D01*
X127969838Y-119525317D01*
X128108910Y-119741441D01*
X128321110Y-119886431D01*
X128573000Y-119937440D01*
X129873000Y-119937440D01*
X130108317Y-119893162D01*
X130252692Y-119800260D01*
X130783266Y-120330834D01*
X130958897Y-120448187D01*
X131011856Y-120501146D01*
X131315192Y-120703828D01*
X131673001Y-120775001D01*
X133938000Y-120775001D01*
X133938000Y-122907689D01*
X133784265Y-123061155D01*
X133588223Y-123533276D01*
X133587777Y-124044481D01*
X133782995Y-124516943D01*
X134144155Y-124878735D01*
X134616276Y-125074777D01*
X135127481Y-125075223D01*
X135599943Y-124880005D01*
X135961735Y-124518845D01*
X136157777Y-124046724D01*
X136158223Y-123535519D01*
X135963005Y-123063057D01*
X135808000Y-122907781D01*
X135808000Y-120104292D01*
X135945590Y-119966702D01*
X136048000Y-119987440D01*
X137348000Y-119987440D01*
X137583317Y-119943162D01*
X137763152Y-119827442D01*
X140477056Y-122541346D01*
X140418330Y-122580585D01*
X140208000Y-122895366D01*
X139997670Y-122580585D01*
X139511489Y-122255729D01*
X138938000Y-122141655D01*
X138364511Y-122255729D01*
X137878330Y-122580585D01*
X137553474Y-123066766D01*
X137439400Y-123640255D01*
X137439400Y-124009745D01*
X137553474Y-124583234D01*
X137878330Y-125069415D01*
X138364511Y-125394271D01*
X138938000Y-125508345D01*
X139511489Y-125394271D01*
X139997670Y-125069415D01*
X140208000Y-124754634D01*
X140418330Y-125069415D01*
X140904511Y-125394271D01*
X141478000Y-125508345D01*
X142051489Y-125394271D01*
X142537670Y-125069415D01*
X142748000Y-124754634D01*
X142958330Y-125069415D01*
X143444511Y-125394271D01*
X144018000Y-125508345D01*
X144309996Y-125450264D01*
X144514732Y-125655000D01*
X126909807Y-125655000D01*
X127227655Y-125337707D01*
X127634536Y-124357827D01*
X127634782Y-124075750D01*
X128588000Y-124075750D01*
X128588000Y-124566310D01*
X128684673Y-124799699D01*
X128863302Y-124978327D01*
X129096691Y-125075000D01*
X129587250Y-125075000D01*
X129746000Y-124916250D01*
X129746000Y-123917000D01*
X130000000Y-123917000D01*
X130000000Y-124916250D01*
X130158750Y-125075000D01*
X130649309Y-125075000D01*
X130882698Y-124978327D01*
X131061327Y-124799699D01*
X131158000Y-124566310D01*
X131158000Y-124075750D01*
X130999250Y-123917000D01*
X130000000Y-123917000D01*
X129746000Y-123917000D01*
X128746750Y-123917000D01*
X128588000Y-124075750D01*
X127634782Y-124075750D01*
X127635462Y-123296828D01*
X127518472Y-123013690D01*
X128588000Y-123013690D01*
X128588000Y-123504250D01*
X128746750Y-123663000D01*
X129746000Y-123663000D01*
X129746000Y-122663750D01*
X130000000Y-122663750D01*
X130000000Y-123663000D01*
X130999250Y-123663000D01*
X131158000Y-123504250D01*
X131158000Y-123013690D01*
X131061327Y-122780301D01*
X130882698Y-122601673D01*
X130649309Y-122505000D01*
X130158750Y-122505000D01*
X130000000Y-122663750D01*
X129746000Y-122663750D01*
X129587250Y-122505000D01*
X129096691Y-122505000D01*
X128863302Y-122601673D01*
X128684673Y-122780301D01*
X128588000Y-123013690D01*
X127518472Y-123013690D01*
X127230291Y-122316239D01*
X126480707Y-121565345D01*
X125500827Y-121158464D01*
X124439828Y-121157538D01*
X123459239Y-121562709D01*
X122708345Y-122312293D01*
X122301464Y-123292173D01*
X122300538Y-124353172D01*
X122705709Y-125333761D01*
X123026388Y-125655000D01*
X111708000Y-125655000D01*
X111708000Y-121313893D01*
X111874725Y-121313893D01*
X112115519Y-121896657D01*
X112560997Y-122342914D01*
X113143341Y-122584724D01*
X113773893Y-122585275D01*
X114356657Y-122344481D01*
X114461867Y-122239455D01*
X114511673Y-122359698D01*
X114690301Y-122538327D01*
X114923690Y-122635000D01*
X115714250Y-122635000D01*
X115873000Y-122476250D01*
X115873000Y-121127000D01*
X116127000Y-121127000D01*
X116127000Y-122476250D01*
X116285750Y-122635000D01*
X117076310Y-122635000D01*
X117309699Y-122538327D01*
X117488327Y-122359698D01*
X117585000Y-122126309D01*
X117585000Y-121285750D01*
X117426250Y-121127000D01*
X116127000Y-121127000D01*
X115873000Y-121127000D01*
X115853000Y-121127000D01*
X115853000Y-120873000D01*
X115873000Y-120873000D01*
X115873000Y-119523750D01*
X116127000Y-119523750D01*
X116127000Y-120873000D01*
X117426250Y-120873000D01*
X117585000Y-120714250D01*
X117585000Y-119873691D01*
X117488327Y-119640302D01*
X117387042Y-119539016D01*
X126003590Y-119539016D01*
X126059271Y-119769611D01*
X126542078Y-119937622D01*
X127052428Y-119908083D01*
X127386729Y-119769611D01*
X127442410Y-119539016D01*
X126723000Y-118819605D01*
X126003590Y-119539016D01*
X117387042Y-119539016D01*
X117309699Y-119461673D01*
X117076310Y-119365000D01*
X116285750Y-119365000D01*
X116127000Y-119523750D01*
X115873000Y-119523750D01*
X115714250Y-119365000D01*
X114923690Y-119365000D01*
X114690301Y-119461673D01*
X114511673Y-119640302D01*
X114461988Y-119760251D01*
X114359003Y-119657086D01*
X113776659Y-119415276D01*
X113146107Y-119414725D01*
X112563343Y-119655519D01*
X112117086Y-120100997D01*
X111875276Y-120683341D01*
X111874725Y-121313893D01*
X111708000Y-121313893D01*
X111708000Y-118459078D01*
X125425378Y-118459078D01*
X125454917Y-118969428D01*
X125593389Y-119303729D01*
X125823984Y-119359410D01*
X126543395Y-118640000D01*
X125823984Y-117920590D01*
X125593389Y-117976271D01*
X125425378Y-118459078D01*
X111708000Y-118459078D01*
X111708000Y-117740984D01*
X126003590Y-117740984D01*
X126723000Y-118460395D01*
X127442410Y-117740984D01*
X127386729Y-117510389D01*
X126903922Y-117342378D01*
X126393572Y-117371917D01*
X126059271Y-117510389D01*
X126003590Y-117740984D01*
X111708000Y-117740984D01*
X111708000Y-113813893D01*
X111874725Y-113813893D01*
X112115519Y-114396657D01*
X112560997Y-114842914D01*
X113143341Y-115084724D01*
X113773893Y-115085275D01*
X114356657Y-114844481D01*
X114461867Y-114739455D01*
X114511673Y-114859698D01*
X114690301Y-115038327D01*
X114923690Y-115135000D01*
X115714250Y-115135000D01*
X115873000Y-114976250D01*
X115873000Y-113627000D01*
X116127000Y-113627000D01*
X116127000Y-114976250D01*
X116285750Y-115135000D01*
X117076310Y-115135000D01*
X117309699Y-115038327D01*
X117488327Y-114859698D01*
X117585000Y-114626309D01*
X117585000Y-113785750D01*
X117426250Y-113627000D01*
X116127000Y-113627000D01*
X115873000Y-113627000D01*
X115853000Y-113627000D01*
X115853000Y-113373000D01*
X115873000Y-113373000D01*
X115873000Y-112023750D01*
X116127000Y-112023750D01*
X116127000Y-113373000D01*
X117426250Y-113373000D01*
X117585000Y-113214250D01*
X117585000Y-112373691D01*
X117488327Y-112140302D01*
X117309699Y-111961673D01*
X117076310Y-111865000D01*
X116285750Y-111865000D01*
X116127000Y-112023750D01*
X115873000Y-112023750D01*
X115714250Y-111865000D01*
X114923690Y-111865000D01*
X114690301Y-111961673D01*
X114511673Y-112140302D01*
X114461988Y-112260251D01*
X114359003Y-112157086D01*
X113776659Y-111915276D01*
X113146107Y-111914725D01*
X112563343Y-112155519D01*
X112117086Y-112600997D01*
X111875276Y-113183341D01*
X111874725Y-113813893D01*
X111708000Y-113813893D01*
X111708000Y-93079550D01*
X111920956Y-93221842D01*
X112460540Y-93329172D01*
X113000124Y-93221842D01*
X113457561Y-92916193D01*
X113763210Y-92458756D01*
X113870540Y-91919172D01*
X113870540Y-91609028D01*
X113763210Y-91069444D01*
X113559187Y-90764100D01*
X113875855Y-90764100D01*
X113971767Y-91246281D01*
X114244900Y-91655055D01*
X114653674Y-91928188D01*
X115135855Y-92024100D01*
X115185225Y-92024100D01*
X115667406Y-91928188D01*
X116076180Y-91655055D01*
X116349313Y-91246281D01*
X116445225Y-90764100D01*
X116349313Y-90281919D01*
X116076180Y-89873145D01*
X115667406Y-89600012D01*
X115185225Y-89504100D01*
X115135855Y-89504100D01*
X114653674Y-89600012D01*
X114244900Y-89873145D01*
X113971767Y-90281919D01*
X113875855Y-90764100D01*
X113559187Y-90764100D01*
X113457561Y-90612007D01*
X113000124Y-90306358D01*
X112460540Y-90199028D01*
X111920956Y-90306358D01*
X111708000Y-90448650D01*
X111708000Y-86079550D01*
X111920956Y-86221842D01*
X112460540Y-86329172D01*
X113000124Y-86221842D01*
X113457561Y-85916193D01*
X113559186Y-85764100D01*
X113875855Y-85764100D01*
X113971767Y-86246281D01*
X114244900Y-86655055D01*
X114653674Y-86928188D01*
X115135855Y-87024100D01*
X115185225Y-87024100D01*
X115667406Y-86928188D01*
X116076180Y-86655055D01*
X116349313Y-86246281D01*
X116445225Y-85764100D01*
X116349313Y-85281919D01*
X116076180Y-84873145D01*
X115667406Y-84600012D01*
X115185225Y-84504100D01*
X115135855Y-84504100D01*
X114653674Y-84600012D01*
X114244900Y-84873145D01*
X113971767Y-85281919D01*
X113875855Y-85764100D01*
X113559186Y-85764100D01*
X113763210Y-85458756D01*
X113870540Y-84919172D01*
X113870540Y-84609028D01*
X113763210Y-84069444D01*
X113457561Y-83612007D01*
X113000124Y-83306358D01*
X112460540Y-83199028D01*
X111920956Y-83306358D01*
X111708000Y-83448650D01*
X111708000Y-79488795D01*
X112462716Y-79488795D01*
X112711106Y-80089943D01*
X113170637Y-80550278D01*
X113771352Y-80799716D01*
X114421795Y-80800284D01*
X115022943Y-80551894D01*
X115483278Y-80092363D01*
X115732716Y-79491648D01*
X115733284Y-78841205D01*
X115484894Y-78240057D01*
X115025363Y-77779722D01*
X114424648Y-77530284D01*
X113774205Y-77529716D01*
X113173057Y-77778106D01*
X112712722Y-78237637D01*
X112463284Y-78838352D01*
X112462716Y-79488795D01*
X111708000Y-79488795D01*
X111708000Y-75817532D01*
X113125073Y-75817532D01*
X113223736Y-76084387D01*
X113833461Y-76310908D01*
X114483460Y-76286856D01*
X114972264Y-76084387D01*
X115070927Y-75817532D01*
X119625073Y-75817532D01*
X119723736Y-76084387D01*
X120333461Y-76310908D01*
X120983460Y-76286856D01*
X121472264Y-76084387D01*
X121570927Y-75817532D01*
X120598000Y-74844605D01*
X119625073Y-75817532D01*
X115070927Y-75817532D01*
X114098000Y-74844605D01*
X113125073Y-75817532D01*
X111708000Y-75817532D01*
X111708000Y-73735000D01*
X112829363Y-73735000D01*
X112678613Y-73790736D01*
G36*
X155349566Y-112605434D02*
X155620459Y-112786439D01*
X155940000Y-112850000D01*
X156427132Y-112850000D01*
X158938303Y-115361171D01*
X158851569Y-115488110D01*
X158800560Y-115740000D01*
X158800560Y-117040000D01*
X158844838Y-117275317D01*
X158983910Y-117491441D01*
X159196110Y-117636431D01*
X159448000Y-117687440D01*
X160748000Y-117687440D01*
X160983317Y-117643162D01*
X161199441Y-117504090D01*
X161344431Y-117291890D01*
X161395440Y-117040000D01*
X161395440Y-116575750D01*
X162163000Y-116575750D01*
X162163000Y-117066310D01*
X162259673Y-117299699D01*
X162438302Y-117478327D01*
X162671691Y-117575000D01*
X163162250Y-117575000D01*
X163321000Y-117416250D01*
X163321000Y-116417000D01*
X162321750Y-116417000D01*
X162163000Y-116575750D01*
X161395440Y-116575750D01*
X161395440Y-115740000D01*
X161352857Y-115513690D01*
X162163000Y-115513690D01*
X162163000Y-116004250D01*
X162321750Y-116163000D01*
X163321000Y-116163000D01*
X163321000Y-115163750D01*
X163162250Y-115005000D01*
X162671691Y-115005000D01*
X162438302Y-115101673D01*
X162259673Y-115280301D01*
X162163000Y-115513690D01*
X161352857Y-115513690D01*
X161351162Y-115504683D01*
X161212090Y-115288559D01*
X160999890Y-115143569D01*
X160889480Y-115121210D01*
X160869439Y-115020459D01*
X160688434Y-114749566D01*
X157363434Y-111424566D01*
X157271981Y-111363459D01*
X157092541Y-111243561D01*
X156773000Y-111180000D01*
X156285868Y-111180000D01*
X154734368Y-109628500D01*
X162070600Y-109628500D01*
X162359557Y-109571023D01*
X162298461Y-109662459D01*
X162234900Y-109982000D01*
X162234900Y-113009900D01*
X162298461Y-113329441D01*
X162479466Y-113600334D01*
X163663400Y-114784268D01*
X163663400Y-115075350D01*
X163575000Y-115163750D01*
X163575000Y-116163000D01*
X163595000Y-116163000D01*
X163595000Y-116417000D01*
X163575000Y-116417000D01*
X163575000Y-117416250D01*
X163663400Y-117504650D01*
X163663400Y-117669132D01*
X158129609Y-123202923D01*
X158102526Y-123066766D01*
X157777670Y-122580585D01*
X157291489Y-122255729D01*
X156718000Y-122141655D01*
X156144511Y-122255729D01*
X155658330Y-122580585D01*
X155451539Y-122890069D01*
X155080036Y-122474268D01*
X154552791Y-122220291D01*
X154537026Y-122217642D01*
X154305000Y-122338783D01*
X154305000Y-123698000D01*
X154325000Y-123698000D01*
X154325000Y-123952000D01*
X154305000Y-123952000D01*
X154305000Y-123972000D01*
X154051000Y-123972000D01*
X154051000Y-123952000D01*
X151765000Y-123952000D01*
X151765000Y-123972000D01*
X151511000Y-123972000D01*
X151511000Y-123952000D01*
X151491000Y-123952000D01*
X151491000Y-123698000D01*
X151511000Y-123698000D01*
X151511000Y-122338783D01*
X151765000Y-122338783D01*
X151765000Y-123698000D01*
X154051000Y-123698000D01*
X154051000Y-122338783D01*
X153818974Y-122217642D01*
X153803209Y-122220291D01*
X153275964Y-122474268D01*
X152908000Y-122886108D01*
X152540036Y-122474268D01*
X152012791Y-122220291D01*
X151997026Y-122217642D01*
X151765000Y-122338783D01*
X151511000Y-122338783D01*
X151278974Y-122217642D01*
X151263209Y-122220291D01*
X150843000Y-122422708D01*
X150843000Y-117527227D01*
X150859271Y-117594611D01*
X151342078Y-117762622D01*
X151852428Y-117733083D01*
X152186729Y-117594611D01*
X152242410Y-117364016D01*
X152167411Y-117289016D01*
X154378590Y-117289016D01*
X154434271Y-117519611D01*
X154917078Y-117687622D01*
X155427428Y-117658083D01*
X155761729Y-117519611D01*
X155817410Y-117289016D01*
X155098000Y-116569605D01*
X154378590Y-117289016D01*
X152167411Y-117289016D01*
X151523000Y-116644605D01*
X151508858Y-116658748D01*
X151329252Y-116479142D01*
X151343395Y-116465000D01*
X151702605Y-116465000D01*
X152422016Y-117184410D01*
X152652611Y-117128729D01*
X152820622Y-116645922D01*
X152795338Y-116209078D01*
X153800378Y-116209078D01*
X153829917Y-116719428D01*
X153968389Y-117053729D01*
X154198984Y-117109410D01*
X154918395Y-116390000D01*
X155277605Y-116390000D01*
X155997016Y-117109410D01*
X156227611Y-117053729D01*
X156395622Y-116570922D01*
X156366083Y-116060572D01*
X156227611Y-115726271D01*
X155997016Y-115670590D01*
X155277605Y-116390000D01*
X154918395Y-116390000D01*
X154198984Y-115670590D01*
X153968389Y-115726271D01*
X153800378Y-116209078D01*
X152795338Y-116209078D01*
X152791083Y-116135572D01*
X152652611Y-115801271D01*
X152422016Y-115745590D01*
X151702605Y-116465000D01*
X151343395Y-116465000D01*
X151329252Y-116450858D01*
X151508858Y-116271252D01*
X151523000Y-116285395D01*
X152242410Y-115565984D01*
X152224301Y-115490984D01*
X154378590Y-115490984D01*
X155098000Y-116210395D01*
X155817410Y-115490984D01*
X155761729Y-115260389D01*
X155278922Y-115092378D01*
X154768572Y-115121917D01*
X154434271Y-115260389D01*
X154378590Y-115490984D01*
X152224301Y-115490984D01*
X152186729Y-115335389D01*
X151703922Y-115167378D01*
X151193572Y-115196917D01*
X150859271Y-115335389D01*
X150843000Y-115402773D01*
X150843000Y-109341135D01*
X151292846Y-108892073D01*
X151393589Y-108649457D01*
X155349566Y-112605434D01*
X155349566Y-112605434D01*
G37*
X155349566Y-112605434D02*
X155620459Y-112786439D01*
X155940000Y-112850000D01*
X156427132Y-112850000D01*
X158938303Y-115361171D01*
X158851569Y-115488110D01*
X158800560Y-115740000D01*
X158800560Y-117040000D01*
X158844838Y-117275317D01*
X158983910Y-117491441D01*
X159196110Y-117636431D01*
X159448000Y-117687440D01*
X160748000Y-117687440D01*
X160983317Y-117643162D01*
X161199441Y-117504090D01*
X161344431Y-117291890D01*
X161395440Y-117040000D01*
X161395440Y-116575750D01*
X162163000Y-116575750D01*
X162163000Y-117066310D01*
X162259673Y-117299699D01*
X162438302Y-117478327D01*
X162671691Y-117575000D01*
X163162250Y-117575000D01*
X163321000Y-117416250D01*
X163321000Y-116417000D01*
X162321750Y-116417000D01*
X162163000Y-116575750D01*
X161395440Y-116575750D01*
X161395440Y-115740000D01*
X161352857Y-115513690D01*
X162163000Y-115513690D01*
X162163000Y-116004250D01*
X162321750Y-116163000D01*
X163321000Y-116163000D01*
X163321000Y-115163750D01*
X163162250Y-115005000D01*
X162671691Y-115005000D01*
X162438302Y-115101673D01*
X162259673Y-115280301D01*
X162163000Y-115513690D01*
X161352857Y-115513690D01*
X161351162Y-115504683D01*
X161212090Y-115288559D01*
X160999890Y-115143569D01*
X160889480Y-115121210D01*
X160869439Y-115020459D01*
X160688434Y-114749566D01*
X157363434Y-111424566D01*
X157271981Y-111363459D01*
X157092541Y-111243561D01*
X156773000Y-111180000D01*
X156285868Y-111180000D01*
X154734368Y-109628500D01*
X162070600Y-109628500D01*
X162359557Y-109571023D01*
X162298461Y-109662459D01*
X162234900Y-109982000D01*
X162234900Y-113009900D01*
X162298461Y-113329441D01*
X162479466Y-113600334D01*
X163663400Y-114784268D01*
X163663400Y-115075350D01*
X163575000Y-115163750D01*
X163575000Y-116163000D01*
X163595000Y-116163000D01*
X163595000Y-116417000D01*
X163575000Y-116417000D01*
X163575000Y-117416250D01*
X163663400Y-117504650D01*
X163663400Y-117669132D01*
X158129609Y-123202923D01*
X158102526Y-123066766D01*
X157777670Y-122580585D01*
X157291489Y-122255729D01*
X156718000Y-122141655D01*
X156144511Y-122255729D01*
X155658330Y-122580585D01*
X155451539Y-122890069D01*
X155080036Y-122474268D01*
X154552791Y-122220291D01*
X154537026Y-122217642D01*
X154305000Y-122338783D01*
X154305000Y-123698000D01*
X154325000Y-123698000D01*
X154325000Y-123952000D01*
X154305000Y-123952000D01*
X154305000Y-123972000D01*
X154051000Y-123972000D01*
X154051000Y-123952000D01*
X151765000Y-123952000D01*
X151765000Y-123972000D01*
X151511000Y-123972000D01*
X151511000Y-123952000D01*
X151491000Y-123952000D01*
X151491000Y-123698000D01*
X151511000Y-123698000D01*
X151511000Y-122338783D01*
X151765000Y-122338783D01*
X151765000Y-123698000D01*
X154051000Y-123698000D01*
X154051000Y-122338783D01*
X153818974Y-122217642D01*
X153803209Y-122220291D01*
X153275964Y-122474268D01*
X152908000Y-122886108D01*
X152540036Y-122474268D01*
X152012791Y-122220291D01*
X151997026Y-122217642D01*
X151765000Y-122338783D01*
X151511000Y-122338783D01*
X151278974Y-122217642D01*
X151263209Y-122220291D01*
X150843000Y-122422708D01*
X150843000Y-117527227D01*
X150859271Y-117594611D01*
X151342078Y-117762622D01*
X151852428Y-117733083D01*
X152186729Y-117594611D01*
X152242410Y-117364016D01*
X152167411Y-117289016D01*
X154378590Y-117289016D01*
X154434271Y-117519611D01*
X154917078Y-117687622D01*
X155427428Y-117658083D01*
X155761729Y-117519611D01*
X155817410Y-117289016D01*
X155098000Y-116569605D01*
X154378590Y-117289016D01*
X152167411Y-117289016D01*
X151523000Y-116644605D01*
X151508858Y-116658748D01*
X151329252Y-116479142D01*
X151343395Y-116465000D01*
X151702605Y-116465000D01*
X152422016Y-117184410D01*
X152652611Y-117128729D01*
X152820622Y-116645922D01*
X152795338Y-116209078D01*
X153800378Y-116209078D01*
X153829917Y-116719428D01*
X153968389Y-117053729D01*
X154198984Y-117109410D01*
X154918395Y-116390000D01*
X155277605Y-116390000D01*
X155997016Y-117109410D01*
X156227611Y-117053729D01*
X156395622Y-116570922D01*
X156366083Y-116060572D01*
X156227611Y-115726271D01*
X155997016Y-115670590D01*
X155277605Y-116390000D01*
X154918395Y-116390000D01*
X154198984Y-115670590D01*
X153968389Y-115726271D01*
X153800378Y-116209078D01*
X152795338Y-116209078D01*
X152791083Y-116135572D01*
X152652611Y-115801271D01*
X152422016Y-115745590D01*
X151702605Y-116465000D01*
X151343395Y-116465000D01*
X151329252Y-116450858D01*
X151508858Y-116271252D01*
X151523000Y-116285395D01*
X152242410Y-115565984D01*
X152224301Y-115490984D01*
X154378590Y-115490984D01*
X155098000Y-116210395D01*
X155817410Y-115490984D01*
X155761729Y-115260389D01*
X155278922Y-115092378D01*
X154768572Y-115121917D01*
X154434271Y-115260389D01*
X154378590Y-115490984D01*
X152224301Y-115490984D01*
X152186729Y-115335389D01*
X151703922Y-115167378D01*
X151193572Y-115196917D01*
X150859271Y-115335389D01*
X150843000Y-115402773D01*
X150843000Y-109341135D01*
X151292846Y-108892073D01*
X151393589Y-108649457D01*
X155349566Y-112605434D01*
G36*
X171688000Y-116869768D02*
X171688000Y-120434000D01*
X171751561Y-120753541D01*
X171919350Y-121004655D01*
X171932566Y-121024434D01*
X173468535Y-122560403D01*
X173438330Y-122580585D01*
X173228000Y-122895366D01*
X173017670Y-122580585D01*
X172531489Y-122255729D01*
X171958000Y-122141655D01*
X171384511Y-122255729D01*
X170898330Y-122580585D01*
X170688000Y-122895366D01*
X170477670Y-122580585D01*
X170253000Y-122430465D01*
X170253000Y-122409000D01*
X170189439Y-122089459D01*
X170083453Y-121930840D01*
X170008434Y-121818565D01*
X166796900Y-118607032D01*
X166796900Y-116544481D01*
X167162777Y-116544481D01*
X167357995Y-117016943D01*
X167719155Y-117378735D01*
X168191276Y-117574777D01*
X168702481Y-117575223D01*
X169174943Y-117380005D01*
X169536735Y-117018845D01*
X169732777Y-116546724D01*
X169733223Y-116035519D01*
X169538005Y-115563057D01*
X169176845Y-115201265D01*
X168704724Y-115005223D01*
X168193519Y-115004777D01*
X167721057Y-115199995D01*
X167359265Y-115561155D01*
X167163223Y-116033276D01*
X167162777Y-116544481D01*
X166796900Y-116544481D01*
X166796900Y-111978668D01*
X171688000Y-116869768D01*
X171688000Y-116869768D01*
G37*
X171688000Y-116869768D02*
X171688000Y-120434000D01*
X171751561Y-120753541D01*
X171919350Y-121004655D01*
X171932566Y-121024434D01*
X173468535Y-122560403D01*
X173438330Y-122580585D01*
X173228000Y-122895366D01*
X173017670Y-122580585D01*
X172531489Y-122255729D01*
X171958000Y-122141655D01*
X171384511Y-122255729D01*
X170898330Y-122580585D01*
X170688000Y-122895366D01*
X170477670Y-122580585D01*
X170253000Y-122430465D01*
X170253000Y-122409000D01*
X170189439Y-122089459D01*
X170083453Y-121930840D01*
X170008434Y-121818565D01*
X166796900Y-118607032D01*
X166796900Y-116544481D01*
X167162777Y-116544481D01*
X167357995Y-117016943D01*
X167719155Y-117378735D01*
X168191276Y-117574777D01*
X168702481Y-117575223D01*
X169174943Y-117380005D01*
X169536735Y-117018845D01*
X169732777Y-116546724D01*
X169733223Y-116035519D01*
X169538005Y-115563057D01*
X169176845Y-115201265D01*
X168704724Y-115005223D01*
X168193519Y-115004777D01*
X167721057Y-115199995D01*
X167359265Y-115561155D01*
X167163223Y-116033276D01*
X167162777Y-116544481D01*
X166796900Y-116544481D01*
X166796900Y-111978668D01*
X171688000Y-116869768D01*
G36*
X141313526Y-99596146D02*
X141393766Y-99716234D01*
X148619390Y-106941858D01*
X148523154Y-107037927D01*
X148273794Y-107638453D01*
X148273226Y-108288694D01*
X148521538Y-108889655D01*
X148973000Y-109341905D01*
X148973000Y-122166519D01*
X148524511Y-122255729D01*
X148038330Y-122580585D01*
X147828000Y-122895366D01*
X147617670Y-122580585D01*
X147493000Y-122497283D01*
X147493000Y-117663670D01*
X147624441Y-117579090D01*
X147769431Y-117366890D01*
X147820440Y-117115000D01*
X147820440Y-115815000D01*
X147776162Y-115579683D01*
X147637090Y-115363559D01*
X147424890Y-115218569D01*
X147173000Y-115167560D01*
X145873000Y-115167560D01*
X145637683Y-115211838D01*
X145421559Y-115350910D01*
X145276569Y-115563110D01*
X145225560Y-115815000D01*
X145225560Y-117115000D01*
X145269838Y-117350317D01*
X145408910Y-117566441D01*
X145621110Y-117711431D01*
X145623000Y-117711814D01*
X145623000Y-122497283D01*
X145498330Y-122580585D01*
X145288000Y-122895366D01*
X145077670Y-122580585D01*
X144853000Y-122430465D01*
X144853000Y-104205100D01*
X144789439Y-103885559D01*
X144608434Y-103614666D01*
X140959424Y-99965656D01*
X141166965Y-99888958D01*
X141289242Y-99559803D01*
X141313526Y-99596146D01*
X141313526Y-99596146D01*
G37*
X141313526Y-99596146D02*
X141393766Y-99716234D01*
X148619390Y-106941858D01*
X148523154Y-107037927D01*
X148273794Y-107638453D01*
X148273226Y-108288694D01*
X148521538Y-108889655D01*
X148973000Y-109341905D01*
X148973000Y-122166519D01*
X148524511Y-122255729D01*
X148038330Y-122580585D01*
X147828000Y-122895366D01*
X147617670Y-122580585D01*
X147493000Y-122497283D01*
X147493000Y-117663670D01*
X147624441Y-117579090D01*
X147769431Y-117366890D01*
X147820440Y-117115000D01*
X147820440Y-115815000D01*
X147776162Y-115579683D01*
X147637090Y-115363559D01*
X147424890Y-115218569D01*
X147173000Y-115167560D01*
X145873000Y-115167560D01*
X145637683Y-115211838D01*
X145421559Y-115350910D01*
X145276569Y-115563110D01*
X145225560Y-115815000D01*
X145225560Y-117115000D01*
X145269838Y-117350317D01*
X145408910Y-117566441D01*
X145621110Y-117711431D01*
X145623000Y-117711814D01*
X145623000Y-122497283D01*
X145498330Y-122580585D01*
X145288000Y-122895366D01*
X145077670Y-122580585D01*
X144853000Y-122430465D01*
X144853000Y-104205100D01*
X144789439Y-103885559D01*
X144608434Y-103614666D01*
X140959424Y-99965656D01*
X141166965Y-99888958D01*
X141289242Y-99559803D01*
X141313526Y-99596146D01*
G36*
X176328000Y-74843091D02*
X176328000Y-85979000D01*
X176382046Y-86250705D01*
X176535954Y-86481046D01*
X178868000Y-88813091D01*
X178868000Y-88863193D01*
X178550707Y-88545345D01*
X177570827Y-88138464D01*
X176509828Y-88137538D01*
X175529239Y-88542709D01*
X174778345Y-89292293D01*
X174371464Y-90272173D01*
X174370538Y-91333172D01*
X174775709Y-92313761D01*
X175525293Y-93064655D01*
X176505173Y-93471536D01*
X177566172Y-93472462D01*
X178546761Y-93067291D01*
X178868000Y-92746612D01*
X178868000Y-97329532D01*
X178308746Y-96770278D01*
X178397827Y-96681353D01*
X178601268Y-96191413D01*
X178601731Y-95660914D01*
X178399146Y-95170620D01*
X178024353Y-94795173D01*
X177534413Y-94591732D01*
X177003914Y-94591269D01*
X176513620Y-94793854D01*
X176138173Y-95168647D01*
X176104761Y-95249112D01*
X176073940Y-95228518D01*
X176073940Y-95226500D01*
X176029662Y-94991183D01*
X175890590Y-94775059D01*
X175678390Y-94630069D01*
X175426500Y-94579060D01*
X174029500Y-94579060D01*
X173794183Y-94623338D01*
X173578059Y-94762410D01*
X173433069Y-94974610D01*
X173382060Y-95226500D01*
X173382060Y-96623500D01*
X173426338Y-96858817D01*
X173565410Y-97074941D01*
X173777610Y-97219931D01*
X174029500Y-97270940D01*
X174125884Y-97270940D01*
X173973620Y-97333854D01*
X173598173Y-97708647D01*
X173394732Y-98198587D01*
X173394366Y-98617766D01*
X169278367Y-102733765D01*
X169037757Y-102833183D01*
X168774508Y-103095973D01*
X168631862Y-103439501D01*
X168631538Y-103811467D01*
X168773583Y-104155243D01*
X168819096Y-104200836D01*
X167474932Y-105545000D01*
X166671900Y-105545000D01*
X166457277Y-105587691D01*
X167156333Y-104888635D01*
X167396943Y-104789217D01*
X167660192Y-104526427D01*
X167802838Y-104182899D01*
X167803162Y-103810933D01*
X167661117Y-103467157D01*
X167398327Y-103203908D01*
X167054799Y-103061262D01*
X166682833Y-103060938D01*
X166339057Y-103202983D01*
X166075808Y-103465773D01*
X165975222Y-103708010D01*
X161724732Y-107958500D01*
X160824968Y-107958500D01*
X166407333Y-102376135D01*
X166647943Y-102276717D01*
X166911192Y-102013927D01*
X167053838Y-101670399D01*
X167054162Y-101298433D01*
X166912117Y-100954657D01*
X166649327Y-100691408D01*
X166305799Y-100548762D01*
X165933833Y-100548438D01*
X165590057Y-100690483D01*
X165326808Y-100953273D01*
X165226222Y-101195510D01*
X161088400Y-105333332D01*
X161088400Y-104425059D01*
X161206967Y-104425162D01*
X161550743Y-104283117D01*
X161813992Y-104020327D01*
X161956638Y-103676799D01*
X161956962Y-103304833D01*
X161856800Y-103062422D01*
X161856800Y-99860012D01*
X161914667Y-99860062D01*
X162258443Y-99718017D01*
X162521692Y-99455227D01*
X162664338Y-99111699D01*
X162664662Y-98739733D01*
X162522617Y-98395957D01*
X162518300Y-98391632D01*
X162518300Y-98191806D01*
X162582767Y-98191862D01*
X162926543Y-98049817D01*
X163189792Y-97787027D01*
X163332438Y-97443499D01*
X163332762Y-97071533D01*
X163232600Y-96829122D01*
X163232600Y-95375260D01*
X163296173Y-95438944D01*
X163805244Y-95650329D01*
X164356458Y-95650810D01*
X164865897Y-95440314D01*
X165256004Y-95050887D01*
X165467389Y-94541816D01*
X165467870Y-93990602D01*
X165257374Y-93481163D01*
X165142431Y-93366019D01*
X165161501Y-93373938D01*
X165533467Y-93374262D01*
X165877243Y-93232217D01*
X166140492Y-92969427D01*
X166283138Y-92625899D01*
X166283462Y-92253933D01*
X166183300Y-92011522D01*
X166183300Y-86116868D01*
X167386152Y-84914016D01*
X167978590Y-84914016D01*
X168034271Y-85144611D01*
X168517078Y-85312622D01*
X169027428Y-85283083D01*
X169361729Y-85144611D01*
X169417410Y-84914016D01*
X168698000Y-84194605D01*
X167978590Y-84914016D01*
X167386152Y-84914016D01*
X167611121Y-84689047D01*
X167798984Y-84734410D01*
X168518395Y-84015000D01*
X168877605Y-84015000D01*
X169597016Y-84734410D01*
X169827611Y-84678729D01*
X169995622Y-84195922D01*
X169966083Y-83685572D01*
X169827611Y-83351271D01*
X169597016Y-83295590D01*
X168877605Y-84015000D01*
X168518395Y-84015000D01*
X168504252Y-84000858D01*
X168683858Y-83821252D01*
X168698000Y-83835395D01*
X169417410Y-83115984D01*
X169372047Y-82928121D01*
X172548434Y-79751734D01*
X172635476Y-79621466D01*
X172729439Y-79480841D01*
X172793000Y-79161300D01*
X172793000Y-76959535D01*
X173017670Y-76809415D01*
X173228000Y-76494634D01*
X173438330Y-76809415D01*
X173663000Y-76959535D01*
X173663000Y-87929632D01*
X169798900Y-91793732D01*
X169798900Y-90331200D01*
X169763321Y-90152333D01*
X169799441Y-90129090D01*
X169944431Y-89916890D01*
X169995440Y-89665000D01*
X169995440Y-88365000D01*
X169951162Y-88129683D01*
X169812090Y-87913559D01*
X169599890Y-87768569D01*
X169348000Y-87717560D01*
X168048000Y-87717560D01*
X167812683Y-87761838D01*
X167596559Y-87900910D01*
X167451569Y-88113110D01*
X167400560Y-88365000D01*
X167400560Y-89665000D01*
X167444838Y-89900317D01*
X167583910Y-90116441D01*
X167796110Y-90261431D01*
X167906458Y-90283777D01*
X167926561Y-90384841D01*
X168078349Y-90612007D01*
X168107566Y-90655734D01*
X168128900Y-90677068D01*
X168128900Y-93140800D01*
X167789996Y-93479113D01*
X167578611Y-93988184D01*
X167578130Y-94539398D01*
X167788626Y-95048837D01*
X168178053Y-95438944D01*
X168687124Y-95650329D01*
X169238338Y-95650810D01*
X169747777Y-95440314D01*
X170137884Y-95050887D01*
X170349269Y-94541816D01*
X170349750Y-93990602D01*
X170278210Y-93817463D01*
X170476292Y-93619727D01*
X170576878Y-93377490D01*
X175088434Y-88865934D01*
X175269440Y-88595040D01*
X175333000Y-88275500D01*
X175333000Y-76959535D01*
X175557670Y-76809415D01*
X175882526Y-76323234D01*
X175996600Y-75749745D01*
X175996600Y-75380255D01*
X175882526Y-74806766D01*
X175557670Y-74320585D01*
X175071489Y-73995729D01*
X174498000Y-73881655D01*
X173924511Y-73995729D01*
X173438330Y-74320585D01*
X173228000Y-74635366D01*
X173017670Y-74320585D01*
X172531489Y-73995729D01*
X171958000Y-73881655D01*
X171384511Y-73995729D01*
X170898330Y-74320585D01*
X170688000Y-74635366D01*
X170477670Y-74320585D01*
X169991489Y-73995729D01*
X169418000Y-73881655D01*
X168844511Y-73995729D01*
X168358330Y-74320585D01*
X168148000Y-74635366D01*
X167937670Y-74320585D01*
X167451489Y-73995729D01*
X166878000Y-73881655D01*
X166304511Y-73995729D01*
X165818330Y-74320585D01*
X165608000Y-74635366D01*
X165397670Y-74320585D01*
X164911489Y-73995729D01*
X164338000Y-73881655D01*
X163764511Y-73995729D01*
X163278330Y-74320585D01*
X163068000Y-74635366D01*
X162857670Y-74320585D01*
X162371489Y-73995729D01*
X161798000Y-73881655D01*
X161224511Y-73995729D01*
X160738330Y-74320585D01*
X160528000Y-74635366D01*
X160317670Y-74320585D01*
X159831489Y-73995729D01*
X159258000Y-73881655D01*
X158684511Y-73995729D01*
X158198330Y-74320585D01*
X157988000Y-74635366D01*
X157777670Y-74320585D01*
X157291489Y-73995729D01*
X156718000Y-73881655D01*
X156144511Y-73995729D01*
X155658330Y-74320585D01*
X155333474Y-74806766D01*
X155219400Y-75380255D01*
X155219400Y-75749745D01*
X155333474Y-76323234D01*
X155658330Y-76809415D01*
X155883000Y-76959535D01*
X155883000Y-76981000D01*
X155946561Y-77300541D01*
X156127566Y-77571434D01*
X157888500Y-79332368D01*
X157888500Y-81034632D01*
X153683465Y-76829597D01*
X153713670Y-76809415D01*
X154038526Y-76323234D01*
X154152600Y-75749745D01*
X154152600Y-75380255D01*
X154038526Y-74806766D01*
X153713670Y-74320585D01*
X153227489Y-73995729D01*
X152654000Y-73881655D01*
X152080511Y-73995729D01*
X151594330Y-74320585D01*
X151384000Y-74635366D01*
X151173670Y-74320585D01*
X150687489Y-73995729D01*
X150114000Y-73881655D01*
X149540511Y-73995729D01*
X149054330Y-74320585D01*
X148844000Y-74635366D01*
X148633670Y-74320585D01*
X148147489Y-73995729D01*
X147574000Y-73881655D01*
X147000511Y-73995729D01*
X146514330Y-74320585D01*
X146304000Y-74635366D01*
X146093670Y-74320585D01*
X145607489Y-73995729D01*
X145034000Y-73881655D01*
X144460511Y-73995729D01*
X143974330Y-74320585D01*
X143764000Y-74635366D01*
X143553670Y-74320585D01*
X143067489Y-73995729D01*
X142494000Y-73881655D01*
X141920511Y-73995729D01*
X141434330Y-74320585D01*
X141224000Y-74635366D01*
X141013670Y-74320585D01*
X140527489Y-73995729D01*
X139954000Y-73881655D01*
X139380511Y-73995729D01*
X139137963Y-74157795D01*
X138715168Y-73735000D01*
X175219908Y-73735000D01*
X176328000Y-74843091D01*
X176328000Y-74843091D01*
G37*
X176328000Y-74843091D02*
X176328000Y-85979000D01*
X176382046Y-86250705D01*
X176535954Y-86481046D01*
X178868000Y-88813091D01*
X178868000Y-88863193D01*
X178550707Y-88545345D01*
X177570827Y-88138464D01*
X176509828Y-88137538D01*
X175529239Y-88542709D01*
X174778345Y-89292293D01*
X174371464Y-90272173D01*
X174370538Y-91333172D01*
X174775709Y-92313761D01*
X175525293Y-93064655D01*
X176505173Y-93471536D01*
X177566172Y-93472462D01*
X178546761Y-93067291D01*
X178868000Y-92746612D01*
X178868000Y-97329532D01*
X178308746Y-96770278D01*
X178397827Y-96681353D01*
X178601268Y-96191413D01*
X178601731Y-95660914D01*
X178399146Y-95170620D01*
X178024353Y-94795173D01*
X177534413Y-94591732D01*
X177003914Y-94591269D01*
X176513620Y-94793854D01*
X176138173Y-95168647D01*
X176104761Y-95249112D01*
X176073940Y-95228518D01*
X176073940Y-95226500D01*
X176029662Y-94991183D01*
X175890590Y-94775059D01*
X175678390Y-94630069D01*
X175426500Y-94579060D01*
X174029500Y-94579060D01*
X173794183Y-94623338D01*
X173578059Y-94762410D01*
X173433069Y-94974610D01*
X173382060Y-95226500D01*
X173382060Y-96623500D01*
X173426338Y-96858817D01*
X173565410Y-97074941D01*
X173777610Y-97219931D01*
X174029500Y-97270940D01*
X174125884Y-97270940D01*
X173973620Y-97333854D01*
X173598173Y-97708647D01*
X173394732Y-98198587D01*
X173394366Y-98617766D01*
X169278367Y-102733765D01*
X169037757Y-102833183D01*
X168774508Y-103095973D01*
X168631862Y-103439501D01*
X168631538Y-103811467D01*
X168773583Y-104155243D01*
X168819096Y-104200836D01*
X167474932Y-105545000D01*
X166671900Y-105545000D01*
X166457277Y-105587691D01*
X167156333Y-104888635D01*
X167396943Y-104789217D01*
X167660192Y-104526427D01*
X167802838Y-104182899D01*
X167803162Y-103810933D01*
X167661117Y-103467157D01*
X167398327Y-103203908D01*
X167054799Y-103061262D01*
X166682833Y-103060938D01*
X166339057Y-103202983D01*
X166075808Y-103465773D01*
X165975222Y-103708010D01*
X161724732Y-107958500D01*
X160824968Y-107958500D01*
X166407333Y-102376135D01*
X166647943Y-102276717D01*
X166911192Y-102013927D01*
X167053838Y-101670399D01*
X167054162Y-101298433D01*
X166912117Y-100954657D01*
X166649327Y-100691408D01*
X166305799Y-100548762D01*
X165933833Y-100548438D01*
X165590057Y-100690483D01*
X165326808Y-100953273D01*
X165226222Y-101195510D01*
X161088400Y-105333332D01*
X161088400Y-104425059D01*
X161206967Y-104425162D01*
X161550743Y-104283117D01*
X161813992Y-104020327D01*
X161956638Y-103676799D01*
X161956962Y-103304833D01*
X161856800Y-103062422D01*
X161856800Y-99860012D01*
X161914667Y-99860062D01*
X162258443Y-99718017D01*
X162521692Y-99455227D01*
X162664338Y-99111699D01*
X162664662Y-98739733D01*
X162522617Y-98395957D01*
X162518300Y-98391632D01*
X162518300Y-98191806D01*
X162582767Y-98191862D01*
X162926543Y-98049817D01*
X163189792Y-97787027D01*
X163332438Y-97443499D01*
X163332762Y-97071533D01*
X163232600Y-96829122D01*
X163232600Y-95375260D01*
X163296173Y-95438944D01*
X163805244Y-95650329D01*
X164356458Y-95650810D01*
X164865897Y-95440314D01*
X165256004Y-95050887D01*
X165467389Y-94541816D01*
X165467870Y-93990602D01*
X165257374Y-93481163D01*
X165142431Y-93366019D01*
X165161501Y-93373938D01*
X165533467Y-93374262D01*
X165877243Y-93232217D01*
X166140492Y-92969427D01*
X166283138Y-92625899D01*
X166283462Y-92253933D01*
X166183300Y-92011522D01*
X166183300Y-86116868D01*
X167386152Y-84914016D01*
X167978590Y-84914016D01*
X168034271Y-85144611D01*
X168517078Y-85312622D01*
X169027428Y-85283083D01*
X169361729Y-85144611D01*
X169417410Y-84914016D01*
X168698000Y-84194605D01*
X167978590Y-84914016D01*
X167386152Y-84914016D01*
X167611121Y-84689047D01*
X167798984Y-84734410D01*
X168518395Y-84015000D01*
X168877605Y-84015000D01*
X169597016Y-84734410D01*
X169827611Y-84678729D01*
X169995622Y-84195922D01*
X169966083Y-83685572D01*
X169827611Y-83351271D01*
X169597016Y-83295590D01*
X168877605Y-84015000D01*
X168518395Y-84015000D01*
X168504252Y-84000858D01*
X168683858Y-83821252D01*
X168698000Y-83835395D01*
X169417410Y-83115984D01*
X169372047Y-82928121D01*
X172548434Y-79751734D01*
X172635476Y-79621466D01*
X172729439Y-79480841D01*
X172793000Y-79161300D01*
X172793000Y-76959535D01*
X173017670Y-76809415D01*
X173228000Y-76494634D01*
X173438330Y-76809415D01*
X173663000Y-76959535D01*
X173663000Y-87929632D01*
X169798900Y-91793732D01*
X169798900Y-90331200D01*
X169763321Y-90152333D01*
X169799441Y-90129090D01*
X169944431Y-89916890D01*
X169995440Y-89665000D01*
X169995440Y-88365000D01*
X169951162Y-88129683D01*
X169812090Y-87913559D01*
X169599890Y-87768569D01*
X169348000Y-87717560D01*
X168048000Y-87717560D01*
X167812683Y-87761838D01*
X167596559Y-87900910D01*
X167451569Y-88113110D01*
X167400560Y-88365000D01*
X167400560Y-89665000D01*
X167444838Y-89900317D01*
X167583910Y-90116441D01*
X167796110Y-90261431D01*
X167906458Y-90283777D01*
X167926561Y-90384841D01*
X168078349Y-90612007D01*
X168107566Y-90655734D01*
X168128900Y-90677068D01*
X168128900Y-93140800D01*
X167789996Y-93479113D01*
X167578611Y-93988184D01*
X167578130Y-94539398D01*
X167788626Y-95048837D01*
X168178053Y-95438944D01*
X168687124Y-95650329D01*
X169238338Y-95650810D01*
X169747777Y-95440314D01*
X170137884Y-95050887D01*
X170349269Y-94541816D01*
X170349750Y-93990602D01*
X170278210Y-93817463D01*
X170476292Y-93619727D01*
X170576878Y-93377490D01*
X175088434Y-88865934D01*
X175269440Y-88595040D01*
X175333000Y-88275500D01*
X175333000Y-76959535D01*
X175557670Y-76809415D01*
X175882526Y-76323234D01*
X175996600Y-75749745D01*
X175996600Y-75380255D01*
X175882526Y-74806766D01*
X175557670Y-74320585D01*
X175071489Y-73995729D01*
X174498000Y-73881655D01*
X173924511Y-73995729D01*
X173438330Y-74320585D01*
X173228000Y-74635366D01*
X173017670Y-74320585D01*
X172531489Y-73995729D01*
X171958000Y-73881655D01*
X171384511Y-73995729D01*
X170898330Y-74320585D01*
X170688000Y-74635366D01*
X170477670Y-74320585D01*
X169991489Y-73995729D01*
X169418000Y-73881655D01*
X168844511Y-73995729D01*
X168358330Y-74320585D01*
X168148000Y-74635366D01*
X167937670Y-74320585D01*
X167451489Y-73995729D01*
X166878000Y-73881655D01*
X166304511Y-73995729D01*
X165818330Y-74320585D01*
X165608000Y-74635366D01*
X165397670Y-74320585D01*
X164911489Y-73995729D01*
X164338000Y-73881655D01*
X163764511Y-73995729D01*
X163278330Y-74320585D01*
X163068000Y-74635366D01*
X162857670Y-74320585D01*
X162371489Y-73995729D01*
X161798000Y-73881655D01*
X161224511Y-73995729D01*
X160738330Y-74320585D01*
X160528000Y-74635366D01*
X160317670Y-74320585D01*
X159831489Y-73995729D01*
X159258000Y-73881655D01*
X158684511Y-73995729D01*
X158198330Y-74320585D01*
X157988000Y-74635366D01*
X157777670Y-74320585D01*
X157291489Y-73995729D01*
X156718000Y-73881655D01*
X156144511Y-73995729D01*
X155658330Y-74320585D01*
X155333474Y-74806766D01*
X155219400Y-75380255D01*
X155219400Y-75749745D01*
X155333474Y-76323234D01*
X155658330Y-76809415D01*
X155883000Y-76959535D01*
X155883000Y-76981000D01*
X155946561Y-77300541D01*
X156127566Y-77571434D01*
X157888500Y-79332368D01*
X157888500Y-81034632D01*
X153683465Y-76829597D01*
X153713670Y-76809415D01*
X154038526Y-76323234D01*
X154152600Y-75749745D01*
X154152600Y-75380255D01*
X154038526Y-74806766D01*
X153713670Y-74320585D01*
X153227489Y-73995729D01*
X152654000Y-73881655D01*
X152080511Y-73995729D01*
X151594330Y-74320585D01*
X151384000Y-74635366D01*
X151173670Y-74320585D01*
X150687489Y-73995729D01*
X150114000Y-73881655D01*
X149540511Y-73995729D01*
X149054330Y-74320585D01*
X148844000Y-74635366D01*
X148633670Y-74320585D01*
X148147489Y-73995729D01*
X147574000Y-73881655D01*
X147000511Y-73995729D01*
X146514330Y-74320585D01*
X146304000Y-74635366D01*
X146093670Y-74320585D01*
X145607489Y-73995729D01*
X145034000Y-73881655D01*
X144460511Y-73995729D01*
X143974330Y-74320585D01*
X143764000Y-74635366D01*
X143553670Y-74320585D01*
X143067489Y-73995729D01*
X142494000Y-73881655D01*
X141920511Y-73995729D01*
X141434330Y-74320585D01*
X141224000Y-74635366D01*
X141013670Y-74320585D01*
X140527489Y-73995729D01*
X139954000Y-73881655D01*
X139380511Y-73995729D01*
X139137963Y-74157795D01*
X138715168Y-73735000D01*
X175219908Y-73735000D01*
X176328000Y-74843091D01*
G36*
X114585910Y-99951441D02*
X114798110Y-100096431D01*
X115050000Y-100147440D01*
X116950000Y-100147440D01*
X117185317Y-100103162D01*
X117401441Y-99964090D01*
X117495647Y-99826215D01*
X121899966Y-104230534D01*
X121964146Y-104273418D01*
X121777599Y-104775582D01*
X121801659Y-105425377D01*
X121881404Y-105617900D01*
X118149068Y-105617900D01*
X117940734Y-105409566D01*
X117918876Y-105394961D01*
X117669841Y-105228561D01*
X117597440Y-105214159D01*
X117597440Y-105000000D01*
X117553162Y-104764683D01*
X117414090Y-104548559D01*
X117201890Y-104403569D01*
X116950000Y-104352560D01*
X115050000Y-104352560D01*
X114814683Y-104396838D01*
X114598559Y-104535910D01*
X114453569Y-104748110D01*
X114452945Y-104751192D01*
X114395000Y-104693146D01*
X114395000Y-99806205D01*
X114454337Y-99746971D01*
X114585910Y-99951441D01*
X114585910Y-99951441D01*
G37*
X114585910Y-99951441D02*
X114798110Y-100096431D01*
X115050000Y-100147440D01*
X116950000Y-100147440D01*
X117185317Y-100103162D01*
X117401441Y-99964090D01*
X117495647Y-99826215D01*
X121899966Y-104230534D01*
X121964146Y-104273418D01*
X121777599Y-104775582D01*
X121801659Y-105425377D01*
X121881404Y-105617900D01*
X118149068Y-105617900D01*
X117940734Y-105409566D01*
X117918876Y-105394961D01*
X117669841Y-105228561D01*
X117597440Y-105214159D01*
X117597440Y-105000000D01*
X117553162Y-104764683D01*
X117414090Y-104548559D01*
X117201890Y-104403569D01*
X116950000Y-104352560D01*
X115050000Y-104352560D01*
X114814683Y-104396838D01*
X114598559Y-104535910D01*
X114453569Y-104748110D01*
X114452945Y-104751192D01*
X114395000Y-104693146D01*
X114395000Y-99806205D01*
X114454337Y-99746971D01*
X114585910Y-99951441D01*
G36*
X131948781Y-104728071D02*
X131948226Y-105363694D01*
X132053262Y-105617900D01*
X124951947Y-105617900D01*
X125068401Y-105304418D01*
X125044341Y-104654623D01*
X124969980Y-104475100D01*
X129184766Y-104475100D01*
X129425201Y-104574938D01*
X129797167Y-104575262D01*
X130140943Y-104433217D01*
X130404192Y-104170427D01*
X130546838Y-103826899D01*
X130547162Y-103454933D01*
X130456695Y-103235985D01*
X131948781Y-104728071D01*
X131948781Y-104728071D01*
G37*
X131948781Y-104728071D02*
X131948226Y-105363694D01*
X132053262Y-105617900D01*
X124951947Y-105617900D01*
X125068401Y-105304418D01*
X125044341Y-104654623D01*
X124969980Y-104475100D01*
X129184766Y-104475100D01*
X129425201Y-104574938D01*
X129797167Y-104575262D01*
X130140943Y-104433217D01*
X130404192Y-104170427D01*
X130546838Y-103826899D01*
X130547162Y-103454933D01*
X130456695Y-103235985D01*
X131948781Y-104728071D01*
G36*
X137505066Y-101092934D02*
X137775960Y-101273940D01*
X138095500Y-101337500D01*
X138249141Y-101337500D01*
X138113794Y-101663453D01*
X138113226Y-102313694D01*
X138151298Y-102405834D01*
X135217229Y-105339903D01*
X135217774Y-104716306D01*
X134969462Y-104115345D01*
X134510073Y-103655154D01*
X134210115Y-103530601D01*
X134522655Y-103401462D01*
X134982846Y-102942073D01*
X135232206Y-102341547D01*
X135232774Y-101691306D01*
X134984462Y-101090345D01*
X134525073Y-100630154D01*
X134247811Y-100515025D01*
X134522655Y-100401462D01*
X134982846Y-99942073D01*
X135232206Y-99341547D01*
X135232661Y-98820529D01*
X137505066Y-101092934D01*
X137505066Y-101092934D01*
G37*
X137505066Y-101092934D02*
X137775960Y-101273940D01*
X138095500Y-101337500D01*
X138249141Y-101337500D01*
X138113794Y-101663453D01*
X138113226Y-102313694D01*
X138151298Y-102405834D01*
X135217229Y-105339903D01*
X135217774Y-104716306D01*
X134969462Y-104115345D01*
X134510073Y-103655154D01*
X134210115Y-103530601D01*
X134522655Y-103401462D01*
X134982846Y-102942073D01*
X135232206Y-102341547D01*
X135232774Y-101691306D01*
X134984462Y-101090345D01*
X134525073Y-100630154D01*
X134247811Y-100515025D01*
X134522655Y-100401462D01*
X134982846Y-99942073D01*
X135232206Y-99341547D01*
X135232661Y-98820529D01*
X137505066Y-101092934D01*
G36*
X123616748Y-105025858D02*
X123602605Y-105040000D01*
X123616748Y-105054142D01*
X123437143Y-105233748D01*
X123423000Y-105219605D01*
X123408858Y-105233748D01*
X123229252Y-105054142D01*
X123243395Y-105040000D01*
X123229252Y-105025858D01*
X123408858Y-104846253D01*
X123423000Y-104860395D01*
X123437143Y-104846253D01*
X123616748Y-105025858D01*
X123616748Y-105025858D01*
G37*
X123616748Y-105025858D02*
X123602605Y-105040000D01*
X123616748Y-105054142D01*
X123437143Y-105233748D01*
X123423000Y-105219605D01*
X123408858Y-105233748D01*
X123229252Y-105054142D01*
X123243395Y-105040000D01*
X123229252Y-105025858D01*
X123408858Y-104846253D01*
X123423000Y-104860395D01*
X123437143Y-104846253D01*
X123616748Y-105025858D01*
G36*
X148310995Y-95573863D02*
X148273794Y-95663453D01*
X148273226Y-96313694D01*
X148521538Y-96914655D01*
X148980927Y-97374846D01*
X149288366Y-97502506D01*
X148983345Y-97628538D01*
X148523154Y-98087927D01*
X148273794Y-98688453D01*
X148273226Y-99338694D01*
X148521538Y-99939655D01*
X148980927Y-100399846D01*
X149228011Y-100502444D01*
X148983345Y-100603538D01*
X148523154Y-101062927D01*
X148273794Y-101663453D01*
X148273226Y-102313694D01*
X148521538Y-102914655D01*
X148980927Y-103374846D01*
X149228011Y-103477444D01*
X148983345Y-103578538D01*
X148523154Y-104037927D01*
X148392308Y-104353040D01*
X142819200Y-98779932D01*
X142819200Y-90082068D01*
X148310995Y-95573863D01*
X148310995Y-95573863D01*
G37*
X148310995Y-95573863D02*
X148273794Y-95663453D01*
X148273226Y-96313694D01*
X148521538Y-96914655D01*
X148980927Y-97374846D01*
X149288366Y-97502506D01*
X148983345Y-97628538D01*
X148523154Y-98087927D01*
X148273794Y-98688453D01*
X148273226Y-99338694D01*
X148521538Y-99939655D01*
X148980927Y-100399846D01*
X149228011Y-100502444D01*
X148983345Y-100603538D01*
X148523154Y-101062927D01*
X148273794Y-101663453D01*
X148273226Y-102313694D01*
X148521538Y-102914655D01*
X148980927Y-103374846D01*
X149228011Y-103477444D01*
X148983345Y-103578538D01*
X148523154Y-104037927D01*
X148392308Y-104353040D01*
X142819200Y-98779932D01*
X142819200Y-90082068D01*
X148310995Y-95573863D01*
G36*
X130016277Y-102795567D02*
X129798799Y-102705262D01*
X129426833Y-102704938D01*
X129184422Y-102805100D01*
X124879722Y-102805100D01*
X125072206Y-102341547D01*
X125072774Y-101691306D01*
X124824462Y-101090345D01*
X124365073Y-100630154D01*
X124087811Y-100515025D01*
X124362655Y-100401462D01*
X124822846Y-99942073D01*
X125072206Y-99341547D01*
X125072774Y-98691306D01*
X124824462Y-98090345D01*
X124365073Y-97630154D01*
X124050152Y-97499388D01*
X124347655Y-97376462D01*
X124472522Y-97251812D01*
X130016277Y-102795567D01*
X130016277Y-102795567D01*
G37*
X130016277Y-102795567D02*
X129798799Y-102705262D01*
X129426833Y-102704938D01*
X129184422Y-102805100D01*
X124879722Y-102805100D01*
X125072206Y-102341547D01*
X125072774Y-101691306D01*
X124824462Y-101090345D01*
X124365073Y-100630154D01*
X124087811Y-100515025D01*
X124362655Y-100401462D01*
X124822846Y-99942073D01*
X125072206Y-99341547D01*
X125072774Y-98691306D01*
X124824462Y-98090345D01*
X124365073Y-97630154D01*
X124050152Y-97499388D01*
X124347655Y-97376462D01*
X124472522Y-97251812D01*
X130016277Y-102795567D01*
G36*
X122495927Y-97374846D02*
X122810848Y-97505612D01*
X122513345Y-97628538D01*
X122053154Y-98087927D01*
X121803794Y-98688453D01*
X121803226Y-99338694D01*
X122051538Y-99939655D01*
X122510927Y-100399846D01*
X122788189Y-100514975D01*
X122513345Y-100628538D01*
X122053154Y-101087927D01*
X121803794Y-101688453D01*
X121803721Y-101772553D01*
X117940734Y-97909566D01*
X117847298Y-97847134D01*
X117669841Y-97728561D01*
X117597440Y-97714159D01*
X117597440Y-97500000D01*
X117553162Y-97264683D01*
X117414090Y-97048559D01*
X117233255Y-96925000D01*
X122046865Y-96925000D01*
X122495927Y-97374846D01*
X122495927Y-97374846D01*
G37*
X122495927Y-97374846D02*
X122810848Y-97505612D01*
X122513345Y-97628538D01*
X122053154Y-98087927D01*
X121803794Y-98688453D01*
X121803226Y-99338694D01*
X122051538Y-99939655D01*
X122510927Y-100399846D01*
X122788189Y-100514975D01*
X122513345Y-100628538D01*
X122053154Y-101087927D01*
X121803794Y-101688453D01*
X121803721Y-101772553D01*
X117940734Y-97909566D01*
X117847298Y-97847134D01*
X117669841Y-97728561D01*
X117597440Y-97714159D01*
X117597440Y-97500000D01*
X117553162Y-97264683D01*
X117414090Y-97048559D01*
X117233255Y-96925000D01*
X122046865Y-96925000D01*
X122495927Y-97374846D01*
G36*
X176136854Y-99219380D02*
X176511647Y-99594827D01*
X176833118Y-99728314D01*
X176575071Y-99835200D01*
X176513417Y-100070812D01*
X177268000Y-100825395D01*
X177282143Y-100811253D01*
X177461748Y-100990858D01*
X177447605Y-101005000D01*
X177461748Y-101019143D01*
X177282143Y-101198748D01*
X177268000Y-101184605D01*
X177253858Y-101198748D01*
X177074253Y-101019143D01*
X177088395Y-101005000D01*
X176333812Y-100250417D01*
X176098200Y-100312071D01*
X175999917Y-100591312D01*
X175859146Y-100250620D01*
X175484353Y-99875173D01*
X175146554Y-99734906D01*
X175482380Y-99596146D01*
X175857827Y-99221353D01*
X175998094Y-98883554D01*
X176136854Y-99219380D01*
X176136854Y-99219380D01*
G37*
X176136854Y-99219380D02*
X176511647Y-99594827D01*
X176833118Y-99728314D01*
X176575071Y-99835200D01*
X176513417Y-100070812D01*
X177268000Y-100825395D01*
X177282143Y-100811253D01*
X177461748Y-100990858D01*
X177447605Y-101005000D01*
X177461748Y-101019143D01*
X177282143Y-101198748D01*
X177268000Y-101184605D01*
X177253858Y-101198748D01*
X177074253Y-101019143D01*
X177088395Y-101005000D01*
X176333812Y-100250417D01*
X176098200Y-100312071D01*
X175999917Y-100591312D01*
X175859146Y-100250620D01*
X175484353Y-99875173D01*
X175146554Y-99734906D01*
X175482380Y-99596146D01*
X175857827Y-99221353D01*
X175998094Y-98883554D01*
X176136854Y-99219380D01*
G36*
X154486700Y-97874268D02*
X154486700Y-99387832D01*
X151505005Y-96406137D01*
X151542206Y-96316547D01*
X151542774Y-95666306D01*
X151294462Y-95065345D01*
X150835073Y-94605154D01*
X150234547Y-94355794D01*
X149584306Y-94355226D01*
X149492166Y-94393298D01*
X144019900Y-88921032D01*
X144019900Y-87407468D01*
X154486700Y-97874268D01*
X154486700Y-97874268D01*
G37*
X154486700Y-97874268D02*
X154486700Y-99387832D01*
X151505005Y-96406137D01*
X151542206Y-96316547D01*
X151542774Y-95666306D01*
X151294462Y-95065345D01*
X150835073Y-94605154D01*
X150234547Y-94355794D01*
X149584306Y-94355226D01*
X149492166Y-94393298D01*
X144019900Y-88921032D01*
X144019900Y-87407468D01*
X154486700Y-97874268D01*
G36*
X149054330Y-76809415D02*
X149279000Y-76959535D01*
X149279000Y-76981000D01*
X149342561Y-77300541D01*
X149523566Y-77571434D01*
X156687900Y-84735768D01*
X156687900Y-95997932D01*
X149672900Y-88982932D01*
X149672900Y-78244900D01*
X149665234Y-78206359D01*
X149609340Y-77925360D01*
X149428335Y-77654466D01*
X148603465Y-76829597D01*
X148633670Y-76809415D01*
X148844000Y-76494634D01*
X149054330Y-76809415D01*
X149054330Y-76809415D01*
G37*
X149054330Y-76809415D02*
X149279000Y-76959535D01*
X149279000Y-76981000D01*
X149342561Y-77300541D01*
X149523566Y-77571434D01*
X156687900Y-84735768D01*
X156687900Y-95997932D01*
X149672900Y-88982932D01*
X149672900Y-78244900D01*
X149665234Y-78206359D01*
X149609340Y-77925360D01*
X149428335Y-77654466D01*
X148603465Y-76829597D01*
X148633670Y-76809415D01*
X148844000Y-76494634D01*
X149054330Y-76809415D01*
G36*
X146514330Y-76809415D02*
X146739000Y-76959535D01*
X146739000Y-76981000D01*
X146802561Y-77300541D01*
X146983566Y-77571434D01*
X148002900Y-78590769D01*
X148002900Y-88179632D01*
X145869000Y-86045732D01*
X145869000Y-76959535D01*
X146093670Y-76809415D01*
X146304000Y-76494634D01*
X146514330Y-76809415D01*
X146514330Y-76809415D01*
G37*
X146514330Y-76809415D02*
X146739000Y-76959535D01*
X146739000Y-76981000D01*
X146802561Y-77300541D01*
X146983566Y-77571434D01*
X148002900Y-78590769D01*
X148002900Y-88179632D01*
X145869000Y-86045732D01*
X145869000Y-76959535D01*
X146093670Y-76809415D01*
X146304000Y-76494634D01*
X146514330Y-76809415D01*
G36*
X168358330Y-76809415D02*
X168583000Y-76959535D01*
X168583000Y-80262932D01*
X165380932Y-83465000D01*
X165197016Y-83420590D01*
X164477605Y-84140000D01*
X164491748Y-84154142D01*
X164312142Y-84333748D01*
X164298000Y-84319605D01*
X163578590Y-85039016D01*
X163623000Y-85222932D01*
X162518300Y-86327632D01*
X162518300Y-83959078D01*
X163000378Y-83959078D01*
X163029917Y-84469428D01*
X163168389Y-84803729D01*
X163398984Y-84859410D01*
X164118395Y-84140000D01*
X163398984Y-83420590D01*
X163168389Y-83476271D01*
X163000378Y-83959078D01*
X162518300Y-83959078D01*
X162518300Y-83240984D01*
X163578590Y-83240984D01*
X164298000Y-83960395D01*
X165017410Y-83240984D01*
X164961729Y-83010389D01*
X164478922Y-82842378D01*
X163968572Y-82871917D01*
X163634271Y-83010389D01*
X163578590Y-83240984D01*
X162518300Y-83240984D01*
X162518300Y-82521568D01*
X167468434Y-77571434D01*
X167649439Y-77300541D01*
X167713000Y-76981000D01*
X167713000Y-76959535D01*
X167937670Y-76809415D01*
X168148000Y-76494634D01*
X168358330Y-76809415D01*
X168358330Y-76809415D01*
G37*
X168358330Y-76809415D02*
X168583000Y-76959535D01*
X168583000Y-80262932D01*
X165380932Y-83465000D01*
X165197016Y-83420590D01*
X164477605Y-84140000D01*
X164491748Y-84154142D01*
X164312142Y-84333748D01*
X164298000Y-84319605D01*
X163578590Y-85039016D01*
X163623000Y-85222932D01*
X162518300Y-86327632D01*
X162518300Y-83959078D01*
X163000378Y-83959078D01*
X163029917Y-84469428D01*
X163168389Y-84803729D01*
X163398984Y-84859410D01*
X164118395Y-84140000D01*
X163398984Y-83420590D01*
X163168389Y-83476271D01*
X163000378Y-83959078D01*
X162518300Y-83959078D01*
X162518300Y-83240984D01*
X163578590Y-83240984D01*
X164298000Y-83960395D01*
X165017410Y-83240984D01*
X164961729Y-83010389D01*
X164478922Y-82842378D01*
X163968572Y-82871917D01*
X163634271Y-83010389D01*
X163578590Y-83240984D01*
X162518300Y-83240984D01*
X162518300Y-82521568D01*
X167468434Y-77571434D01*
X167649439Y-77300541D01*
X167713000Y-76981000D01*
X167713000Y-76959535D01*
X167937670Y-76809415D01*
X168148000Y-76494634D01*
X168358330Y-76809415D01*
G36*
X142349900Y-80557768D02*
X142349900Y-83439632D01*
X139519000Y-80608732D01*
X139519000Y-77726868D01*
X142349900Y-80557768D01*
X142349900Y-80557768D01*
G37*
X142349900Y-80557768D02*
X142349900Y-83439632D01*
X139519000Y-80608732D01*
X139519000Y-77726868D01*
X142349900Y-80557768D01*
M02*
