G04 #@! TF.FileFunction,Legend,Bot*
%FSLAX46Y46*%
G04 Gerber Fmt 4.6, Leading zero omitted, Abs format (unit mm)*
G04 Created by KiCad (PCBNEW 4.0.5+dfsg1-4) date Mon Jun 12 20:52:58 2017*
%MOMM*%
%LPD*%
G01*
G04 APERTURE LIST*
%ADD10C,0.100000*%
%ADD11C,0.150000*%
%ADD12C,0.010000*%
G04 APERTURE END LIST*
D10*
D11*
X170568876Y-120111781D02*
X170568876Y-119111781D01*
X170140304Y-120111781D02*
X170140304Y-119587971D01*
X170187923Y-119492733D01*
X170283161Y-119445114D01*
X170426019Y-119445114D01*
X170521257Y-119492733D01*
X170568876Y-119540352D01*
X169806971Y-119445114D02*
X169426019Y-119445114D01*
X169664114Y-119111781D02*
X169664114Y-119968924D01*
X169616495Y-120064162D01*
X169521257Y-120111781D01*
X169426019Y-120111781D01*
X169235542Y-119445114D02*
X168854590Y-119445114D01*
X169092685Y-119111781D02*
X169092685Y-119968924D01*
X169045066Y-120064162D01*
X168949828Y-120111781D01*
X168854590Y-120111781D01*
X168521256Y-119445114D02*
X168521256Y-120445114D01*
X168521256Y-119492733D02*
X168426018Y-119445114D01*
X168235541Y-119445114D01*
X168140303Y-119492733D01*
X168092684Y-119540352D01*
X168045065Y-119635590D01*
X168045065Y-119921305D01*
X168092684Y-120016543D01*
X168140303Y-120064162D01*
X168235541Y-120111781D01*
X168426018Y-120111781D01*
X168521256Y-120064162D01*
X167664113Y-120064162D02*
X167568875Y-120111781D01*
X167378399Y-120111781D01*
X167283160Y-120064162D01*
X167235541Y-119968924D01*
X167235541Y-119921305D01*
X167283160Y-119826067D01*
X167378399Y-119778448D01*
X167521256Y-119778448D01*
X167616494Y-119730829D01*
X167664113Y-119635590D01*
X167664113Y-119587971D01*
X167616494Y-119492733D01*
X167521256Y-119445114D01*
X167378399Y-119445114D01*
X167283160Y-119492733D01*
X166806970Y-120016543D02*
X166759351Y-120064162D01*
X166806970Y-120111781D01*
X166854589Y-120064162D01*
X166806970Y-120016543D01*
X166806970Y-120111781D01*
X166806970Y-119492733D02*
X166759351Y-119540352D01*
X166806970Y-119587971D01*
X166854589Y-119540352D01*
X166806970Y-119492733D01*
X166806970Y-119587971D01*
X165616494Y-119064162D02*
X166473637Y-120349876D01*
X164568875Y-119064162D02*
X165426018Y-120349876D01*
X163806970Y-119445114D02*
X163806970Y-120254638D01*
X163854589Y-120349876D01*
X163902208Y-120397495D01*
X163997447Y-120445114D01*
X164140304Y-120445114D01*
X164235542Y-120397495D01*
X163806970Y-120064162D02*
X163902208Y-120111781D01*
X164092685Y-120111781D01*
X164187923Y-120064162D01*
X164235542Y-120016543D01*
X164283161Y-119921305D01*
X164283161Y-119635590D01*
X164235542Y-119540352D01*
X164187923Y-119492733D01*
X164092685Y-119445114D01*
X163902208Y-119445114D01*
X163806970Y-119492733D01*
X163330780Y-120111781D02*
X163330780Y-119445114D01*
X163330780Y-119111781D02*
X163378399Y-119159400D01*
X163330780Y-119207019D01*
X163283161Y-119159400D01*
X163330780Y-119111781D01*
X163330780Y-119207019D01*
X162997447Y-119445114D02*
X162616495Y-119445114D01*
X162854590Y-119111781D02*
X162854590Y-119968924D01*
X162806971Y-120064162D01*
X162711733Y-120111781D01*
X162616495Y-120111781D01*
X162283161Y-120111781D02*
X162283161Y-119111781D01*
X161854589Y-120111781D02*
X161854589Y-119587971D01*
X161902208Y-119492733D01*
X161997446Y-119445114D01*
X162140304Y-119445114D01*
X162235542Y-119492733D01*
X162283161Y-119540352D01*
X160949827Y-119445114D02*
X160949827Y-120111781D01*
X161378399Y-119445114D02*
X161378399Y-119968924D01*
X161330780Y-120064162D01*
X161235542Y-120111781D01*
X161092684Y-120111781D01*
X160997446Y-120064162D01*
X160949827Y-120016543D01*
X160473637Y-120111781D02*
X160473637Y-119111781D01*
X160473637Y-119492733D02*
X160378399Y-119445114D01*
X160187922Y-119445114D01*
X160092684Y-119492733D01*
X160045065Y-119540352D01*
X159997446Y-119635590D01*
X159997446Y-119921305D01*
X160045065Y-120016543D01*
X160092684Y-120064162D01*
X160187922Y-120111781D01*
X160378399Y-120111781D01*
X160473637Y-120064162D01*
X159568875Y-120016543D02*
X159521256Y-120064162D01*
X159568875Y-120111781D01*
X159616494Y-120064162D01*
X159568875Y-120016543D01*
X159568875Y-120111781D01*
X158664113Y-120064162D02*
X158759351Y-120111781D01*
X158949828Y-120111781D01*
X159045066Y-120064162D01*
X159092685Y-120016543D01*
X159140304Y-119921305D01*
X159140304Y-119635590D01*
X159092685Y-119540352D01*
X159045066Y-119492733D01*
X158949828Y-119445114D01*
X158759351Y-119445114D01*
X158664113Y-119492733D01*
X158092685Y-120111781D02*
X158187923Y-120064162D01*
X158235542Y-120016543D01*
X158283161Y-119921305D01*
X158283161Y-119635590D01*
X158235542Y-119540352D01*
X158187923Y-119492733D01*
X158092685Y-119445114D01*
X157949827Y-119445114D01*
X157854589Y-119492733D01*
X157806970Y-119540352D01*
X157759351Y-119635590D01*
X157759351Y-119921305D01*
X157806970Y-120016543D01*
X157854589Y-120064162D01*
X157949827Y-120111781D01*
X158092685Y-120111781D01*
X157330780Y-120111781D02*
X157330780Y-119445114D01*
X157330780Y-119540352D02*
X157283161Y-119492733D01*
X157187923Y-119445114D01*
X157045065Y-119445114D01*
X156949827Y-119492733D01*
X156902208Y-119587971D01*
X156902208Y-120111781D01*
X156902208Y-119587971D02*
X156854589Y-119492733D01*
X156759351Y-119445114D01*
X156616494Y-119445114D01*
X156521256Y-119492733D01*
X156473637Y-119587971D01*
X156473637Y-120111781D01*
X155283161Y-119064162D02*
X156140304Y-120349876D01*
X154997447Y-120064162D02*
X154902209Y-120111781D01*
X154711733Y-120111781D01*
X154616494Y-120064162D01*
X154568875Y-119968924D01*
X154568875Y-119921305D01*
X154616494Y-119826067D01*
X154711733Y-119778448D01*
X154854590Y-119778448D01*
X154949828Y-119730829D01*
X154997447Y-119635590D01*
X154997447Y-119587971D01*
X154949828Y-119492733D01*
X154854590Y-119445114D01*
X154711733Y-119445114D01*
X154616494Y-119492733D01*
X154235542Y-119445114D02*
X153711732Y-119445114D01*
X154235542Y-120111781D01*
X153711732Y-120111781D01*
X152902208Y-120111781D02*
X152902208Y-119111781D01*
X152902208Y-120064162D02*
X152997446Y-120111781D01*
X153187923Y-120111781D01*
X153283161Y-120064162D01*
X153330780Y-120016543D01*
X153378399Y-119921305D01*
X153378399Y-119635590D01*
X153330780Y-119540352D01*
X153283161Y-119492733D01*
X153187923Y-119445114D01*
X152997446Y-119445114D01*
X152902208Y-119492733D01*
X152426018Y-120111781D02*
X152426018Y-119445114D01*
X152426018Y-119111781D02*
X152473637Y-119159400D01*
X152426018Y-119207019D01*
X152378399Y-119159400D01*
X152426018Y-119111781D01*
X152426018Y-119207019D01*
X152045066Y-119445114D02*
X151806971Y-120111781D01*
X151568875Y-119445114D02*
X151806971Y-120111781D01*
X151902209Y-120349876D01*
X151949828Y-120397495D01*
X152045066Y-120445114D01*
X150473637Y-119064162D02*
X151330780Y-120349876D01*
X150140304Y-120111781D02*
X150140304Y-119111781D01*
X149902209Y-119111781D01*
X149759351Y-119159400D01*
X149664113Y-119254638D01*
X149616494Y-119349876D01*
X149568875Y-119540352D01*
X149568875Y-119683210D01*
X149616494Y-119873686D01*
X149664113Y-119968924D01*
X149759351Y-120064162D01*
X149902209Y-120111781D01*
X150140304Y-120111781D01*
X149140304Y-120111781D02*
X149140304Y-119111781D01*
X148473638Y-119635590D02*
X148473638Y-120111781D01*
X148806971Y-119111781D02*
X148473638Y-119635590D01*
X148140304Y-119111781D01*
X147378399Y-120111781D02*
X147378399Y-119111781D01*
X147378399Y-120064162D02*
X147473637Y-120111781D01*
X147664114Y-120111781D01*
X147759352Y-120064162D01*
X147806971Y-120016543D01*
X147854590Y-119921305D01*
X147854590Y-119635590D01*
X147806971Y-119540352D01*
X147759352Y-119492733D01*
X147664114Y-119445114D01*
X147473637Y-119445114D01*
X147378399Y-119492733D01*
X146473637Y-119445114D02*
X146473637Y-120111781D01*
X146902209Y-119445114D02*
X146902209Y-119968924D01*
X146854590Y-120064162D01*
X146759352Y-120111781D01*
X146616494Y-120111781D01*
X146521256Y-120064162D01*
X146473637Y-120016543D01*
X145997447Y-120111781D02*
X145997447Y-119445114D01*
X145997447Y-119111781D02*
X146045066Y-119159400D01*
X145997447Y-119207019D01*
X145949828Y-119159400D01*
X145997447Y-119111781D01*
X145997447Y-119207019D01*
X145521257Y-119445114D02*
X145521257Y-120111781D01*
X145521257Y-119540352D02*
X145473638Y-119492733D01*
X145378400Y-119445114D01*
X145235542Y-119445114D01*
X145140304Y-119492733D01*
X145092685Y-119587971D01*
X145092685Y-120111781D01*
X144473638Y-120111781D02*
X144568876Y-120064162D01*
X144616495Y-120016543D01*
X144664114Y-119921305D01*
X144664114Y-119635590D01*
X144616495Y-119540352D01*
X144568876Y-119492733D01*
X144473638Y-119445114D01*
X144330780Y-119445114D01*
X144235542Y-119492733D01*
X144187923Y-119540352D01*
X144140304Y-119635590D01*
X144140304Y-119921305D01*
X144187923Y-120016543D01*
X144235542Y-120064162D01*
X144330780Y-120111781D01*
X144473638Y-120111781D01*
D12*
G36*
X160427275Y-104160594D02*
X160289622Y-104191458D01*
X160040662Y-104229793D01*
X159773820Y-104262730D01*
X159475415Y-104302513D01*
X159306618Y-104350402D01*
X159227956Y-104423722D01*
X159203278Y-104513167D01*
X159137432Y-104662108D01*
X159058090Y-104703667D01*
X158962031Y-104731246D01*
X158887716Y-104827669D01*
X158830659Y-105013462D01*
X158786378Y-105309154D01*
X158750387Y-105735272D01*
X158721522Y-106244304D01*
X158659981Y-107488609D01*
X158437157Y-107533971D01*
X158284930Y-107560589D01*
X158020601Y-107602791D01*
X157685784Y-107654362D01*
X157322095Y-107709087D01*
X156971146Y-107760752D01*
X156674551Y-107803142D01*
X156473926Y-107830043D01*
X156412432Y-107836333D01*
X156401630Y-107758294D01*
X156403612Y-107549601D01*
X156417604Y-107248390D01*
X156427428Y-107095500D01*
X156457258Y-106646650D01*
X156489827Y-106127103D01*
X156518998Y-105635261D01*
X156524138Y-105544346D01*
X156557607Y-104945721D01*
X156332109Y-104945721D01*
X156279371Y-105692527D01*
X156248086Y-106141216D01*
X156212377Y-106661935D01*
X156178879Y-107157741D01*
X156171917Y-107262105D01*
X156117201Y-108084877D01*
X155768767Y-108163205D01*
X155467313Y-108230104D01*
X155274275Y-108250816D01*
X155168350Y-108200008D01*
X155128236Y-108052349D01*
X155132631Y-107782505D01*
X155155716Y-107434167D01*
X155201189Y-106750291D01*
X155237618Y-106216445D01*
X155267736Y-105813734D01*
X155294274Y-105523265D01*
X155319964Y-105326144D01*
X155347536Y-105203477D01*
X155379724Y-105136369D01*
X155419257Y-105105927D01*
X155468868Y-105093258D01*
X155494844Y-105088394D01*
X155697967Y-105050707D01*
X155962402Y-105005558D01*
X156003221Y-104998905D01*
X156332109Y-104945721D01*
X156557607Y-104945721D01*
X156569444Y-104734025D01*
X156079555Y-104791959D01*
X155632527Y-104850925D01*
X155329816Y-104908496D01*
X155146675Y-104972803D01*
X155058356Y-105051976D01*
X155039333Y-105133727D01*
X154975536Y-105271575D01*
X154882491Y-105296333D01*
X154827400Y-105308324D01*
X154781926Y-105356109D01*
X154743785Y-105457408D01*
X154710695Y-105629939D01*
X154680373Y-105891423D01*
X154650536Y-106259579D01*
X154618901Y-106752125D01*
X154583185Y-107386782D01*
X154561956Y-107784277D01*
X154504303Y-108875222D01*
X155462667Y-108755482D01*
X155462667Y-109781070D01*
X155982078Y-109726781D01*
X156501490Y-109672492D01*
X156450934Y-110130246D01*
X156426575Y-110397287D01*
X156398142Y-110781126D01*
X156369254Y-111229403D01*
X156344673Y-111667500D01*
X156288966Y-112747000D01*
X156531983Y-112736942D01*
X156759682Y-112715545D01*
X157062340Y-112672621D01*
X157215650Y-112646430D01*
X157517359Y-112568323D01*
X157675534Y-112465226D01*
X157706814Y-112406819D01*
X157823001Y-112248502D01*
X157912533Y-112198402D01*
X157991249Y-112146900D01*
X158045713Y-112029807D01*
X158084707Y-111813955D01*
X158117016Y-111466178D01*
X158121085Y-111410904D01*
X158153792Y-110962694D01*
X158189826Y-110475621D01*
X158221793Y-110049571D01*
X158223954Y-110021110D01*
X158273475Y-109369553D01*
X158582571Y-109343776D01*
X158799688Y-109303136D01*
X158898057Y-109208974D01*
X158918722Y-109127500D01*
X158984568Y-108978558D01*
X159063910Y-108937000D01*
X159204252Y-108861056D01*
X159311351Y-108667954D01*
X159357147Y-108409791D01*
X159357333Y-108392233D01*
X159390760Y-108227799D01*
X159521551Y-108176089D01*
X159562075Y-108175000D01*
X159861751Y-108134129D01*
X160013748Y-108011260D01*
X160034667Y-107911941D01*
X160087980Y-107779672D01*
X160156670Y-107751667D01*
X160302750Y-107697120D01*
X160333798Y-107662473D01*
X160356486Y-107553515D01*
X160385467Y-107308529D01*
X160418557Y-106959022D01*
X160453575Y-106536499D01*
X160488338Y-106072467D01*
X160520663Y-105598431D01*
X160548368Y-105145897D01*
X160569269Y-104746373D01*
X160577392Y-104531633D01*
X160321712Y-104531633D01*
X160312539Y-104758614D01*
X160295537Y-105088893D01*
X160272755Y-105489684D01*
X160246243Y-105928198D01*
X160218050Y-106371648D01*
X160190225Y-106787247D01*
X160164818Y-107142207D01*
X160143879Y-107403741D01*
X160129456Y-107539062D01*
X160126648Y-107550230D01*
X160046052Y-107564320D01*
X159844061Y-107590581D01*
X159615276Y-107617489D01*
X159111219Y-107674516D01*
X159086109Y-108199925D01*
X159061000Y-108725333D01*
X158610962Y-108780260D01*
X158352109Y-108818036D01*
X158170696Y-108856055D01*
X158120060Y-108876051D01*
X158101915Y-108969676D01*
X158076476Y-109204770D01*
X158046156Y-109553747D01*
X158013368Y-109989021D01*
X157982990Y-110443665D01*
X157886783Y-111970415D01*
X157415558Y-112051506D01*
X157153162Y-112097504D01*
X156968083Y-112131529D01*
X156911229Y-112143466D01*
X156902992Y-112068276D01*
X156903642Y-111854687D01*
X156912551Y-111533365D01*
X156929086Y-111134977D01*
X156934060Y-111032500D01*
X156959474Y-110566622D01*
X156987780Y-110118355D01*
X157015596Y-109737538D01*
X157039536Y-109474013D01*
X157040385Y-109466449D01*
X157090774Y-109022231D01*
X156573054Y-109076343D01*
X156055333Y-109130456D01*
X156055333Y-108874978D01*
X156073435Y-108588796D01*
X156105774Y-108367299D01*
X156137654Y-108245241D01*
X156197498Y-108164441D01*
X156320415Y-108108912D01*
X156541519Y-108062668D01*
X156888940Y-108010717D01*
X157284774Y-107951993D01*
X157672239Y-107890610D01*
X157979365Y-107838049D01*
X158028001Y-107829001D01*
X158340494Y-107781261D01*
X158637998Y-107754067D01*
X158721504Y-107751667D01*
X158935875Y-107722950D01*
X159070480Y-107653089D01*
X159075751Y-107645833D01*
X159102961Y-107529829D01*
X159136341Y-107274664D01*
X159172827Y-106910260D01*
X159209353Y-106466538D01*
X159236244Y-106079226D01*
X159269270Y-105599476D01*
X159302560Y-105180620D01*
X159333500Y-104851021D01*
X159359473Y-104639042D01*
X159375129Y-104572982D01*
X159483274Y-104530171D01*
X159689179Y-104486192D01*
X159933420Y-104449352D01*
X160156572Y-104427959D01*
X160299210Y-104430323D01*
X160321007Y-104440739D01*
X160321712Y-104531633D01*
X160577392Y-104531633D01*
X160581185Y-104431363D01*
X160581933Y-104232373D01*
X160575076Y-104179609D01*
X160475546Y-104148725D01*
X160427275Y-104160594D01*
X160427275Y-104160594D01*
G37*
X160427275Y-104160594D02*
X160289622Y-104191458D01*
X160040662Y-104229793D01*
X159773820Y-104262730D01*
X159475415Y-104302513D01*
X159306618Y-104350402D01*
X159227956Y-104423722D01*
X159203278Y-104513167D01*
X159137432Y-104662108D01*
X159058090Y-104703667D01*
X158962031Y-104731246D01*
X158887716Y-104827669D01*
X158830659Y-105013462D01*
X158786378Y-105309154D01*
X158750387Y-105735272D01*
X158721522Y-106244304D01*
X158659981Y-107488609D01*
X158437157Y-107533971D01*
X158284930Y-107560589D01*
X158020601Y-107602791D01*
X157685784Y-107654362D01*
X157322095Y-107709087D01*
X156971146Y-107760752D01*
X156674551Y-107803142D01*
X156473926Y-107830043D01*
X156412432Y-107836333D01*
X156401630Y-107758294D01*
X156403612Y-107549601D01*
X156417604Y-107248390D01*
X156427428Y-107095500D01*
X156457258Y-106646650D01*
X156489827Y-106127103D01*
X156518998Y-105635261D01*
X156524138Y-105544346D01*
X156557607Y-104945721D01*
X156332109Y-104945721D01*
X156279371Y-105692527D01*
X156248086Y-106141216D01*
X156212377Y-106661935D01*
X156178879Y-107157741D01*
X156171917Y-107262105D01*
X156117201Y-108084877D01*
X155768767Y-108163205D01*
X155467313Y-108230104D01*
X155274275Y-108250816D01*
X155168350Y-108200008D01*
X155128236Y-108052349D01*
X155132631Y-107782505D01*
X155155716Y-107434167D01*
X155201189Y-106750291D01*
X155237618Y-106216445D01*
X155267736Y-105813734D01*
X155294274Y-105523265D01*
X155319964Y-105326144D01*
X155347536Y-105203477D01*
X155379724Y-105136369D01*
X155419257Y-105105927D01*
X155468868Y-105093258D01*
X155494844Y-105088394D01*
X155697967Y-105050707D01*
X155962402Y-105005558D01*
X156003221Y-104998905D01*
X156332109Y-104945721D01*
X156557607Y-104945721D01*
X156569444Y-104734025D01*
X156079555Y-104791959D01*
X155632527Y-104850925D01*
X155329816Y-104908496D01*
X155146675Y-104972803D01*
X155058356Y-105051976D01*
X155039333Y-105133727D01*
X154975536Y-105271575D01*
X154882491Y-105296333D01*
X154827400Y-105308324D01*
X154781926Y-105356109D01*
X154743785Y-105457408D01*
X154710695Y-105629939D01*
X154680373Y-105891423D01*
X154650536Y-106259579D01*
X154618901Y-106752125D01*
X154583185Y-107386782D01*
X154561956Y-107784277D01*
X154504303Y-108875222D01*
X155462667Y-108755482D01*
X155462667Y-109781070D01*
X155982078Y-109726781D01*
X156501490Y-109672492D01*
X156450934Y-110130246D01*
X156426575Y-110397287D01*
X156398142Y-110781126D01*
X156369254Y-111229403D01*
X156344673Y-111667500D01*
X156288966Y-112747000D01*
X156531983Y-112736942D01*
X156759682Y-112715545D01*
X157062340Y-112672621D01*
X157215650Y-112646430D01*
X157517359Y-112568323D01*
X157675534Y-112465226D01*
X157706814Y-112406819D01*
X157823001Y-112248502D01*
X157912533Y-112198402D01*
X157991249Y-112146900D01*
X158045713Y-112029807D01*
X158084707Y-111813955D01*
X158117016Y-111466178D01*
X158121085Y-111410904D01*
X158153792Y-110962694D01*
X158189826Y-110475621D01*
X158221793Y-110049571D01*
X158223954Y-110021110D01*
X158273475Y-109369553D01*
X158582571Y-109343776D01*
X158799688Y-109303136D01*
X158898057Y-109208974D01*
X158918722Y-109127500D01*
X158984568Y-108978558D01*
X159063910Y-108937000D01*
X159204252Y-108861056D01*
X159311351Y-108667954D01*
X159357147Y-108409791D01*
X159357333Y-108392233D01*
X159390760Y-108227799D01*
X159521551Y-108176089D01*
X159562075Y-108175000D01*
X159861751Y-108134129D01*
X160013748Y-108011260D01*
X160034667Y-107911941D01*
X160087980Y-107779672D01*
X160156670Y-107751667D01*
X160302750Y-107697120D01*
X160333798Y-107662473D01*
X160356486Y-107553515D01*
X160385467Y-107308529D01*
X160418557Y-106959022D01*
X160453575Y-106536499D01*
X160488338Y-106072467D01*
X160520663Y-105598431D01*
X160548368Y-105145897D01*
X160569269Y-104746373D01*
X160577392Y-104531633D01*
X160321712Y-104531633D01*
X160312539Y-104758614D01*
X160295537Y-105088893D01*
X160272755Y-105489684D01*
X160246243Y-105928198D01*
X160218050Y-106371648D01*
X160190225Y-106787247D01*
X160164818Y-107142207D01*
X160143879Y-107403741D01*
X160129456Y-107539062D01*
X160126648Y-107550230D01*
X160046052Y-107564320D01*
X159844061Y-107590581D01*
X159615276Y-107617489D01*
X159111219Y-107674516D01*
X159086109Y-108199925D01*
X159061000Y-108725333D01*
X158610962Y-108780260D01*
X158352109Y-108818036D01*
X158170696Y-108856055D01*
X158120060Y-108876051D01*
X158101915Y-108969676D01*
X158076476Y-109204770D01*
X158046156Y-109553747D01*
X158013368Y-109989021D01*
X157982990Y-110443665D01*
X157886783Y-111970415D01*
X157415558Y-112051506D01*
X157153162Y-112097504D01*
X156968083Y-112131529D01*
X156911229Y-112143466D01*
X156902992Y-112068276D01*
X156903642Y-111854687D01*
X156912551Y-111533365D01*
X156929086Y-111134977D01*
X156934060Y-111032500D01*
X156959474Y-110566622D01*
X156987780Y-110118355D01*
X157015596Y-109737538D01*
X157039536Y-109474013D01*
X157040385Y-109466449D01*
X157090774Y-109022231D01*
X156573054Y-109076343D01*
X156055333Y-109130456D01*
X156055333Y-108874978D01*
X156073435Y-108588796D01*
X156105774Y-108367299D01*
X156137654Y-108245241D01*
X156197498Y-108164441D01*
X156320415Y-108108912D01*
X156541519Y-108062668D01*
X156888940Y-108010717D01*
X157284774Y-107951993D01*
X157672239Y-107890610D01*
X157979365Y-107838049D01*
X158028001Y-107829001D01*
X158340494Y-107781261D01*
X158637998Y-107754067D01*
X158721504Y-107751667D01*
X158935875Y-107722950D01*
X159070480Y-107653089D01*
X159075751Y-107645833D01*
X159102961Y-107529829D01*
X159136341Y-107274664D01*
X159172827Y-106910260D01*
X159209353Y-106466538D01*
X159236244Y-106079226D01*
X159269270Y-105599476D01*
X159302560Y-105180620D01*
X159333500Y-104851021D01*
X159359473Y-104639042D01*
X159375129Y-104572982D01*
X159483274Y-104530171D01*
X159689179Y-104486192D01*
X159933420Y-104449352D01*
X160156572Y-104427959D01*
X160299210Y-104430323D01*
X160321007Y-104440739D01*
X160321712Y-104531633D01*
X160577392Y-104531633D01*
X160581185Y-104431363D01*
X160581933Y-104232373D01*
X160575076Y-104179609D01*
X160475546Y-104148725D01*
X160427275Y-104160594D01*
G36*
X164712500Y-103570495D02*
X164447002Y-103606878D01*
X164106604Y-103655669D01*
X163887000Y-103688093D01*
X163548708Y-103736984D01*
X163127076Y-103795448D01*
X162706758Y-103851771D01*
X162659333Y-103857973D01*
X162211427Y-103917866D01*
X161904915Y-103965373D01*
X161713092Y-104008487D01*
X161609249Y-104055202D01*
X161566679Y-104113510D01*
X161558667Y-104187405D01*
X161487941Y-104337753D01*
X161402174Y-104386174D01*
X161269196Y-104499559D01*
X161182383Y-104761868D01*
X161140190Y-105179168D01*
X161135333Y-105434917D01*
X161135333Y-105891001D01*
X161495167Y-105834096D01*
X161810175Y-105787155D01*
X161992745Y-105779253D01*
X162077757Y-105823385D01*
X162100092Y-105932549D01*
X162096961Y-106058333D01*
X162064119Y-106792128D01*
X162026696Y-107501462D01*
X161986204Y-108166775D01*
X161944157Y-108768506D01*
X161902071Y-109287095D01*
X161861459Y-109702980D01*
X161823834Y-109996601D01*
X161790713Y-110148398D01*
X161779072Y-110165021D01*
X161631107Y-110202942D01*
X161452833Y-110243875D01*
X161264745Y-110336050D01*
X161220000Y-110462613D01*
X161159719Y-110602609D01*
X161048010Y-110630333D01*
X160892799Y-110675653D01*
X160842584Y-110736167D01*
X160810625Y-110901253D01*
X160782923Y-111154609D01*
X160761767Y-111449831D01*
X160749445Y-111740518D01*
X160748243Y-111980267D01*
X160760451Y-112122675D01*
X160773231Y-112142803D01*
X160900812Y-112122907D01*
X161050667Y-112100961D01*
X161245531Y-112072825D01*
X161538666Y-112030248D01*
X161812667Y-111990317D01*
X162174617Y-111938507D01*
X162614884Y-111876937D01*
X163043923Y-111818118D01*
X163082667Y-111812882D01*
X163529741Y-111751539D01*
X163835688Y-111704161D01*
X164027261Y-111662585D01*
X164131214Y-111618646D01*
X164174301Y-111564181D01*
X164183276Y-111491024D01*
X164183333Y-111477000D01*
X164259481Y-111320837D01*
X164395000Y-111257768D01*
X164482426Y-111232470D01*
X164543337Y-111189645D01*
X164583142Y-111101728D01*
X164607250Y-110941152D01*
X164621070Y-110680354D01*
X164630009Y-110291768D01*
X164634395Y-110037667D01*
X164620626Y-109911716D01*
X164551770Y-109846861D01*
X164394629Y-109835446D01*
X164116008Y-109869816D01*
X163992833Y-109889720D01*
X163675333Y-109942354D01*
X163676565Y-109545510D01*
X163683004Y-109339028D01*
X163700225Y-108996813D01*
X163726275Y-108551986D01*
X163759201Y-108037668D01*
X163797050Y-107486979D01*
X163802333Y-107413000D01*
X163839973Y-106884772D01*
X163873167Y-106411968D01*
X163900076Y-106021377D01*
X163918859Y-105739790D01*
X163927675Y-105593995D01*
X163928102Y-105582321D01*
X164003816Y-105510899D01*
X164191515Y-105447837D01*
X164268000Y-105433154D01*
X164495890Y-105376631D01*
X164593874Y-105287694D01*
X164606667Y-105210666D01*
X164667851Y-105068766D01*
X164765417Y-105042333D01*
X164887527Y-104983639D01*
X164969964Y-104798453D01*
X165016264Y-104473120D01*
X165030000Y-104021073D01*
X165030000Y-103755386D01*
X164784956Y-103755386D01*
X164759312Y-104248584D01*
X164733667Y-104741782D01*
X164232357Y-104828558D01*
X163962786Y-104887615D01*
X163771954Y-104952824D01*
X163708340Y-105000000D01*
X163697800Y-105105819D01*
X163680820Y-105355494D01*
X163658874Y-105723734D01*
X163633437Y-106185247D01*
X163605983Y-106714741D01*
X163592324Y-106989667D01*
X163562168Y-107585306D01*
X163531047Y-108164663D01*
X163501003Y-108692267D01*
X163474074Y-109132649D01*
X163452301Y-109450341D01*
X163446918Y-109518352D01*
X163394821Y-110142037D01*
X163928614Y-110080083D01*
X164462407Y-110018130D01*
X164407537Y-110292482D01*
X164367391Y-110568741D01*
X164352667Y-110802808D01*
X164355169Y-110891648D01*
X164346803Y-110956639D01*
X164303764Y-111005239D01*
X164202245Y-111044907D01*
X164018439Y-111083099D01*
X163728539Y-111127273D01*
X163308740Y-111184887D01*
X162998000Y-111227175D01*
X162616919Y-111281761D01*
X162255898Y-111337601D01*
X161981575Y-111384297D01*
X161939667Y-111392274D01*
X161610022Y-111454017D01*
X161416060Y-111465183D01*
X161326813Y-111405237D01*
X161311316Y-111253644D01*
X161338190Y-110993404D01*
X161385258Y-110719903D01*
X161447457Y-110518575D01*
X161493965Y-110448661D01*
X161632324Y-110401438D01*
X161869674Y-110351752D01*
X161999118Y-110331646D01*
X162248557Y-110285389D01*
X162370356Y-110220376D01*
X162406115Y-110112265D01*
X162406618Y-110093222D01*
X162412731Y-109956300D01*
X162429067Y-109678602D01*
X162453831Y-109288257D01*
X162485225Y-108813393D01*
X162521454Y-108282140D01*
X162531832Y-108132667D01*
X162570161Y-107552559D01*
X162603857Y-106984967D01*
X162630945Y-106467895D01*
X162649451Y-106039347D01*
X162657400Y-105737328D01*
X162657548Y-105712701D01*
X162659333Y-105070735D01*
X162193667Y-105109352D01*
X161728000Y-105147968D01*
X161729156Y-104819984D01*
X161733042Y-104555940D01*
X161759795Y-104369255D01*
X161835324Y-104241391D01*
X161985541Y-104153810D01*
X162236356Y-104087973D01*
X162613677Y-104025341D01*
X162898192Y-103983544D01*
X163349135Y-103919530D01*
X163779467Y-103861791D01*
X164139952Y-103816730D01*
X164378312Y-103791017D01*
X164784956Y-103755386D01*
X165030000Y-103755386D01*
X165030000Y-103528979D01*
X164712500Y-103570495D01*
X164712500Y-103570495D01*
G37*
X164712500Y-103570495D02*
X164447002Y-103606878D01*
X164106604Y-103655669D01*
X163887000Y-103688093D01*
X163548708Y-103736984D01*
X163127076Y-103795448D01*
X162706758Y-103851771D01*
X162659333Y-103857973D01*
X162211427Y-103917866D01*
X161904915Y-103965373D01*
X161713092Y-104008487D01*
X161609249Y-104055202D01*
X161566679Y-104113510D01*
X161558667Y-104187405D01*
X161487941Y-104337753D01*
X161402174Y-104386174D01*
X161269196Y-104499559D01*
X161182383Y-104761868D01*
X161140190Y-105179168D01*
X161135333Y-105434917D01*
X161135333Y-105891001D01*
X161495167Y-105834096D01*
X161810175Y-105787155D01*
X161992745Y-105779253D01*
X162077757Y-105823385D01*
X162100092Y-105932549D01*
X162096961Y-106058333D01*
X162064119Y-106792128D01*
X162026696Y-107501462D01*
X161986204Y-108166775D01*
X161944157Y-108768506D01*
X161902071Y-109287095D01*
X161861459Y-109702980D01*
X161823834Y-109996601D01*
X161790713Y-110148398D01*
X161779072Y-110165021D01*
X161631107Y-110202942D01*
X161452833Y-110243875D01*
X161264745Y-110336050D01*
X161220000Y-110462613D01*
X161159719Y-110602609D01*
X161048010Y-110630333D01*
X160892799Y-110675653D01*
X160842584Y-110736167D01*
X160810625Y-110901253D01*
X160782923Y-111154609D01*
X160761767Y-111449831D01*
X160749445Y-111740518D01*
X160748243Y-111980267D01*
X160760451Y-112122675D01*
X160773231Y-112142803D01*
X160900812Y-112122907D01*
X161050667Y-112100961D01*
X161245531Y-112072825D01*
X161538666Y-112030248D01*
X161812667Y-111990317D01*
X162174617Y-111938507D01*
X162614884Y-111876937D01*
X163043923Y-111818118D01*
X163082667Y-111812882D01*
X163529741Y-111751539D01*
X163835688Y-111704161D01*
X164027261Y-111662585D01*
X164131214Y-111618646D01*
X164174301Y-111564181D01*
X164183276Y-111491024D01*
X164183333Y-111477000D01*
X164259481Y-111320837D01*
X164395000Y-111257768D01*
X164482426Y-111232470D01*
X164543337Y-111189645D01*
X164583142Y-111101728D01*
X164607250Y-110941152D01*
X164621070Y-110680354D01*
X164630009Y-110291768D01*
X164634395Y-110037667D01*
X164620626Y-109911716D01*
X164551770Y-109846861D01*
X164394629Y-109835446D01*
X164116008Y-109869816D01*
X163992833Y-109889720D01*
X163675333Y-109942354D01*
X163676565Y-109545510D01*
X163683004Y-109339028D01*
X163700225Y-108996813D01*
X163726275Y-108551986D01*
X163759201Y-108037668D01*
X163797050Y-107486979D01*
X163802333Y-107413000D01*
X163839973Y-106884772D01*
X163873167Y-106411968D01*
X163900076Y-106021377D01*
X163918859Y-105739790D01*
X163927675Y-105593995D01*
X163928102Y-105582321D01*
X164003816Y-105510899D01*
X164191515Y-105447837D01*
X164268000Y-105433154D01*
X164495890Y-105376631D01*
X164593874Y-105287694D01*
X164606667Y-105210666D01*
X164667851Y-105068766D01*
X164765417Y-105042333D01*
X164887527Y-104983639D01*
X164969964Y-104798453D01*
X165016264Y-104473120D01*
X165030000Y-104021073D01*
X165030000Y-103755386D01*
X164784956Y-103755386D01*
X164759312Y-104248584D01*
X164733667Y-104741782D01*
X164232357Y-104828558D01*
X163962786Y-104887615D01*
X163771954Y-104952824D01*
X163708340Y-105000000D01*
X163697800Y-105105819D01*
X163680820Y-105355494D01*
X163658874Y-105723734D01*
X163633437Y-106185247D01*
X163605983Y-106714741D01*
X163592324Y-106989667D01*
X163562168Y-107585306D01*
X163531047Y-108164663D01*
X163501003Y-108692267D01*
X163474074Y-109132649D01*
X163452301Y-109450341D01*
X163446918Y-109518352D01*
X163394821Y-110142037D01*
X163928614Y-110080083D01*
X164462407Y-110018130D01*
X164407537Y-110292482D01*
X164367391Y-110568741D01*
X164352667Y-110802808D01*
X164355169Y-110891648D01*
X164346803Y-110956639D01*
X164303764Y-111005239D01*
X164202245Y-111044907D01*
X164018439Y-111083099D01*
X163728539Y-111127273D01*
X163308740Y-111184887D01*
X162998000Y-111227175D01*
X162616919Y-111281761D01*
X162255898Y-111337601D01*
X161981575Y-111384297D01*
X161939667Y-111392274D01*
X161610022Y-111454017D01*
X161416060Y-111465183D01*
X161326813Y-111405237D01*
X161311316Y-111253644D01*
X161338190Y-110993404D01*
X161385258Y-110719903D01*
X161447457Y-110518575D01*
X161493965Y-110448661D01*
X161632324Y-110401438D01*
X161869674Y-110351752D01*
X161999118Y-110331646D01*
X162248557Y-110285389D01*
X162370356Y-110220376D01*
X162406115Y-110112265D01*
X162406618Y-110093222D01*
X162412731Y-109956300D01*
X162429067Y-109678602D01*
X162453831Y-109288257D01*
X162485225Y-108813393D01*
X162521454Y-108282140D01*
X162531832Y-108132667D01*
X162570161Y-107552559D01*
X162603857Y-106984967D01*
X162630945Y-106467895D01*
X162649451Y-106039347D01*
X162657400Y-105737328D01*
X162657548Y-105712701D01*
X162659333Y-105070735D01*
X162193667Y-105109352D01*
X161728000Y-105147968D01*
X161729156Y-104819984D01*
X161733042Y-104555940D01*
X161759795Y-104369255D01*
X161835324Y-104241391D01*
X161985541Y-104153810D01*
X162236356Y-104087973D01*
X162613677Y-104025341D01*
X162898192Y-103983544D01*
X163349135Y-103919530D01*
X163779467Y-103861791D01*
X164139952Y-103816730D01*
X164378312Y-103791017D01*
X164784956Y-103755386D01*
X165030000Y-103755386D01*
X165030000Y-103528979D01*
X164712500Y-103570495D01*
G36*
X171367809Y-102617807D02*
X171073040Y-102657382D01*
X171025696Y-102664520D01*
X170599929Y-102728259D01*
X170122715Y-102797708D01*
X169771333Y-102847470D01*
X169367344Y-102904550D01*
X168944012Y-102965805D01*
X168628333Y-103012670D01*
X168255558Y-103066509D01*
X167866342Y-103118779D01*
X167680770Y-103141901D01*
X167414757Y-103185096D01*
X167275357Y-103247331D01*
X167219871Y-103350204D01*
X167215103Y-103377433D01*
X167117270Y-103542755D01*
X166998500Y-103587722D01*
X166872627Y-103632992D01*
X166818165Y-103754012D01*
X166808000Y-103946555D01*
X166797221Y-104160184D01*
X166732739Y-104265088D01*
X166566339Y-104316209D01*
X166469333Y-104332487D01*
X166238796Y-104390857D01*
X166141058Y-104482456D01*
X166130667Y-104547250D01*
X166055964Y-104701261D01*
X165919000Y-104788333D01*
X165751173Y-104909076D01*
X165707034Y-105103738D01*
X165701645Y-105254812D01*
X165686723Y-105546959D01*
X165663864Y-105952281D01*
X165634664Y-106442884D01*
X165600717Y-106990871D01*
X165584643Y-107243667D01*
X165547136Y-107839916D01*
X165511880Y-108420796D01*
X165480944Y-108950663D01*
X165456394Y-109393871D01*
X165440297Y-109714776D01*
X165437354Y-109783667D01*
X165412155Y-110418667D01*
X165898411Y-110389676D01*
X166384667Y-110360686D01*
X166384667Y-110834176D01*
X166390525Y-111089412D01*
X166430771Y-111237388D01*
X166539410Y-111299165D01*
X166750448Y-111295797D01*
X167062000Y-111253600D01*
X167249179Y-111226640D01*
X167543005Y-111184809D01*
X167882439Y-111136793D01*
X167908667Y-111133095D01*
X168692480Y-111022156D01*
X169324740Y-110931000D01*
X169821653Y-110856380D01*
X170199424Y-110795051D01*
X170474261Y-110743764D01*
X170662369Y-110699273D01*
X170779955Y-110658332D01*
X170843224Y-110617692D01*
X170868384Y-110574108D01*
X170872000Y-110539395D01*
X170942860Y-110393725D01*
X171041333Y-110334000D01*
X171180005Y-110230610D01*
X171213166Y-110137794D01*
X171219157Y-110025547D01*
X171235274Y-109762368D01*
X171260354Y-109366279D01*
X171293232Y-108855306D01*
X171332744Y-108247471D01*
X171377727Y-107560799D01*
X171427016Y-106813314D01*
X171460210Y-106312432D01*
X171510749Y-105540654D01*
X171556419Y-104822427D01*
X171596217Y-104175062D01*
X171629143Y-103615873D01*
X171654195Y-103162170D01*
X171670373Y-102831268D01*
X171672207Y-102775744D01*
X171425642Y-102775744D01*
X171425143Y-102862490D01*
X171414415Y-103099035D01*
X171394569Y-103466226D01*
X171366717Y-103944908D01*
X171331971Y-104515927D01*
X171291444Y-105160131D01*
X171249789Y-105804333D01*
X171202532Y-106531992D01*
X171157739Y-107232797D01*
X171116933Y-107882107D01*
X171081634Y-108455280D01*
X171053365Y-108927675D01*
X171033646Y-109274651D01*
X171025267Y-109440392D01*
X170997530Y-110070783D01*
X170405598Y-110171762D01*
X170029470Y-110232534D01*
X169573498Y-110301342D01*
X169125832Y-110364956D01*
X169051667Y-110375004D01*
X168663025Y-110429644D01*
X168295992Y-110485508D01*
X168013595Y-110532877D01*
X167951000Y-110544733D01*
X167635183Y-110593079D01*
X167320006Y-110620380D01*
X167294833Y-110621266D01*
X166977333Y-110630333D01*
X166977333Y-110122333D01*
X166988851Y-109819669D01*
X167027392Y-109659040D01*
X167094244Y-109614333D01*
X167217978Y-109602191D01*
X167474046Y-109568956D01*
X167827440Y-109519419D01*
X168243150Y-109458368D01*
X168332000Y-109445000D01*
X168769992Y-109381480D01*
X169166494Y-109328822D01*
X169481607Y-109291996D01*
X169675435Y-109275969D01*
X169691759Y-109275667D01*
X169881882Y-109250749D01*
X169978839Y-109197733D01*
X170007757Y-109079924D01*
X170039080Y-108842079D01*
X170066485Y-108533272D01*
X170068843Y-108499233D01*
X170137997Y-107469479D01*
X170195901Y-106597569D01*
X170243215Y-105872435D01*
X170280598Y-105283007D01*
X170288193Y-105157423D01*
X169673722Y-105157423D01*
X169665666Y-105538549D01*
X169646663Y-106051638D01*
X169616438Y-106707078D01*
X169574714Y-107515263D01*
X169546438Y-108034532D01*
X169514797Y-108472457D01*
X169475376Y-108806896D01*
X169431607Y-109013834D01*
X169398362Y-109070791D01*
X169282390Y-109095648D01*
X169035052Y-109138425D01*
X168692617Y-109193128D01*
X168291353Y-109253764D01*
X168289667Y-109254012D01*
X167863342Y-109315843D01*
X167575931Y-109352271D01*
X167398847Y-109362750D01*
X167303504Y-109346738D01*
X167261317Y-109303689D01*
X167243883Y-109234101D01*
X167239348Y-109097404D01*
X167245124Y-108822474D01*
X167260040Y-108440024D01*
X167282922Y-107980765D01*
X167308540Y-107540348D01*
X167342589Y-107006745D01*
X167377199Y-106492364D01*
X167409550Y-106037191D01*
X167436820Y-105681213D01*
X167452184Y-105503976D01*
X167501389Y-104991952D01*
X168530528Y-104846042D01*
X168932424Y-104790025D01*
X169273718Y-104744264D01*
X169519199Y-104713353D01*
X169633657Y-104701889D01*
X169634970Y-104701899D01*
X169658098Y-104749488D01*
X169671107Y-104897866D01*
X169673722Y-105157423D01*
X170288193Y-105157423D01*
X170308709Y-104818217D01*
X170328206Y-104466994D01*
X170339749Y-104218270D01*
X170343995Y-104060975D01*
X170341605Y-103984040D01*
X170338272Y-103972383D01*
X170245025Y-103968727D01*
X170037198Y-103991735D01*
X169848946Y-104021332D01*
X169324818Y-104107110D01*
X168720872Y-104197832D01*
X168125673Y-104280526D01*
X167775505Y-104325026D01*
X167346009Y-104376762D01*
X167201952Y-106678048D01*
X167163744Y-107299412D01*
X167129497Y-107877510D01*
X167100603Y-108387117D01*
X167078454Y-108803007D01*
X167064442Y-109099953D01*
X167059947Y-109251521D01*
X167033495Y-109449425D01*
X166930188Y-109582759D01*
X166719471Y-109672965D01*
X166370792Y-109741488D01*
X166359317Y-109743218D01*
X166117578Y-109774883D01*
X166004027Y-109764289D01*
X165979732Y-109696465D01*
X165995731Y-109603407D01*
X166011699Y-109469110D01*
X166035607Y-109189259D01*
X166065777Y-108787361D01*
X166100528Y-108286921D01*
X166138178Y-107711447D01*
X166177049Y-107084444D01*
X166183647Y-106974609D01*
X166226068Y-106255171D01*
X166261183Y-105686842D01*
X166294400Y-105251880D01*
X166331132Y-104932539D01*
X166376788Y-104711075D01*
X166436779Y-104569743D01*
X166516515Y-104490799D01*
X166621408Y-104456498D01*
X166756868Y-104449095D01*
X166928305Y-104450847D01*
X166953188Y-104450823D01*
X167182580Y-104404337D01*
X167323913Y-104252897D01*
X167390722Y-103974985D01*
X167400667Y-103739402D01*
X167408912Y-103502804D01*
X167455763Y-103384468D01*
X167574390Y-103333409D01*
X167675833Y-103316466D01*
X168402911Y-103210854D01*
X169014676Y-103123489D01*
X169563197Y-103046977D01*
X169856000Y-103006952D01*
X170251548Y-102950556D01*
X170640901Y-102890567D01*
X170949721Y-102838516D01*
X170990189Y-102831036D01*
X171231780Y-102790344D01*
X171391455Y-102772712D01*
X171425642Y-102775744D01*
X171672207Y-102775744D01*
X171676675Y-102640478D01*
X171674906Y-102599683D01*
X171583015Y-102597117D01*
X171367809Y-102617807D01*
X171367809Y-102617807D01*
G37*
X171367809Y-102617807D02*
X171073040Y-102657382D01*
X171025696Y-102664520D01*
X170599929Y-102728259D01*
X170122715Y-102797708D01*
X169771333Y-102847470D01*
X169367344Y-102904550D01*
X168944012Y-102965805D01*
X168628333Y-103012670D01*
X168255558Y-103066509D01*
X167866342Y-103118779D01*
X167680770Y-103141901D01*
X167414757Y-103185096D01*
X167275357Y-103247331D01*
X167219871Y-103350204D01*
X167215103Y-103377433D01*
X167117270Y-103542755D01*
X166998500Y-103587722D01*
X166872627Y-103632992D01*
X166818165Y-103754012D01*
X166808000Y-103946555D01*
X166797221Y-104160184D01*
X166732739Y-104265088D01*
X166566339Y-104316209D01*
X166469333Y-104332487D01*
X166238796Y-104390857D01*
X166141058Y-104482456D01*
X166130667Y-104547250D01*
X166055964Y-104701261D01*
X165919000Y-104788333D01*
X165751173Y-104909076D01*
X165707034Y-105103738D01*
X165701645Y-105254812D01*
X165686723Y-105546959D01*
X165663864Y-105952281D01*
X165634664Y-106442884D01*
X165600717Y-106990871D01*
X165584643Y-107243667D01*
X165547136Y-107839916D01*
X165511880Y-108420796D01*
X165480944Y-108950663D01*
X165456394Y-109393871D01*
X165440297Y-109714776D01*
X165437354Y-109783667D01*
X165412155Y-110418667D01*
X165898411Y-110389676D01*
X166384667Y-110360686D01*
X166384667Y-110834176D01*
X166390525Y-111089412D01*
X166430771Y-111237388D01*
X166539410Y-111299165D01*
X166750448Y-111295797D01*
X167062000Y-111253600D01*
X167249179Y-111226640D01*
X167543005Y-111184809D01*
X167882439Y-111136793D01*
X167908667Y-111133095D01*
X168692480Y-111022156D01*
X169324740Y-110931000D01*
X169821653Y-110856380D01*
X170199424Y-110795051D01*
X170474261Y-110743764D01*
X170662369Y-110699273D01*
X170779955Y-110658332D01*
X170843224Y-110617692D01*
X170868384Y-110574108D01*
X170872000Y-110539395D01*
X170942860Y-110393725D01*
X171041333Y-110334000D01*
X171180005Y-110230610D01*
X171213166Y-110137794D01*
X171219157Y-110025547D01*
X171235274Y-109762368D01*
X171260354Y-109366279D01*
X171293232Y-108855306D01*
X171332744Y-108247471D01*
X171377727Y-107560799D01*
X171427016Y-106813314D01*
X171460210Y-106312432D01*
X171510749Y-105540654D01*
X171556419Y-104822427D01*
X171596217Y-104175062D01*
X171629143Y-103615873D01*
X171654195Y-103162170D01*
X171670373Y-102831268D01*
X171672207Y-102775744D01*
X171425642Y-102775744D01*
X171425143Y-102862490D01*
X171414415Y-103099035D01*
X171394569Y-103466226D01*
X171366717Y-103944908D01*
X171331971Y-104515927D01*
X171291444Y-105160131D01*
X171249789Y-105804333D01*
X171202532Y-106531992D01*
X171157739Y-107232797D01*
X171116933Y-107882107D01*
X171081634Y-108455280D01*
X171053365Y-108927675D01*
X171033646Y-109274651D01*
X171025267Y-109440392D01*
X170997530Y-110070783D01*
X170405598Y-110171762D01*
X170029470Y-110232534D01*
X169573498Y-110301342D01*
X169125832Y-110364956D01*
X169051667Y-110375004D01*
X168663025Y-110429644D01*
X168295992Y-110485508D01*
X168013595Y-110532877D01*
X167951000Y-110544733D01*
X167635183Y-110593079D01*
X167320006Y-110620380D01*
X167294833Y-110621266D01*
X166977333Y-110630333D01*
X166977333Y-110122333D01*
X166988851Y-109819669D01*
X167027392Y-109659040D01*
X167094244Y-109614333D01*
X167217978Y-109602191D01*
X167474046Y-109568956D01*
X167827440Y-109519419D01*
X168243150Y-109458368D01*
X168332000Y-109445000D01*
X168769992Y-109381480D01*
X169166494Y-109328822D01*
X169481607Y-109291996D01*
X169675435Y-109275969D01*
X169691759Y-109275667D01*
X169881882Y-109250749D01*
X169978839Y-109197733D01*
X170007757Y-109079924D01*
X170039080Y-108842079D01*
X170066485Y-108533272D01*
X170068843Y-108499233D01*
X170137997Y-107469479D01*
X170195901Y-106597569D01*
X170243215Y-105872435D01*
X170280598Y-105283007D01*
X170288193Y-105157423D01*
X169673722Y-105157423D01*
X169665666Y-105538549D01*
X169646663Y-106051638D01*
X169616438Y-106707078D01*
X169574714Y-107515263D01*
X169546438Y-108034532D01*
X169514797Y-108472457D01*
X169475376Y-108806896D01*
X169431607Y-109013834D01*
X169398362Y-109070791D01*
X169282390Y-109095648D01*
X169035052Y-109138425D01*
X168692617Y-109193128D01*
X168291353Y-109253764D01*
X168289667Y-109254012D01*
X167863342Y-109315843D01*
X167575931Y-109352271D01*
X167398847Y-109362750D01*
X167303504Y-109346738D01*
X167261317Y-109303689D01*
X167243883Y-109234101D01*
X167239348Y-109097404D01*
X167245124Y-108822474D01*
X167260040Y-108440024D01*
X167282922Y-107980765D01*
X167308540Y-107540348D01*
X167342589Y-107006745D01*
X167377199Y-106492364D01*
X167409550Y-106037191D01*
X167436820Y-105681213D01*
X167452184Y-105503976D01*
X167501389Y-104991952D01*
X168530528Y-104846042D01*
X168932424Y-104790025D01*
X169273718Y-104744264D01*
X169519199Y-104713353D01*
X169633657Y-104701889D01*
X169634970Y-104701899D01*
X169658098Y-104749488D01*
X169671107Y-104897866D01*
X169673722Y-105157423D01*
X170288193Y-105157423D01*
X170308709Y-104818217D01*
X170328206Y-104466994D01*
X170339749Y-104218270D01*
X170343995Y-104060975D01*
X170341605Y-103984040D01*
X170338272Y-103972383D01*
X170245025Y-103968727D01*
X170037198Y-103991735D01*
X169848946Y-104021332D01*
X169324818Y-104107110D01*
X168720872Y-104197832D01*
X168125673Y-104280526D01*
X167775505Y-104325026D01*
X167346009Y-104376762D01*
X167201952Y-106678048D01*
X167163744Y-107299412D01*
X167129497Y-107877510D01*
X167100603Y-108387117D01*
X167078454Y-108803007D01*
X167064442Y-109099953D01*
X167059947Y-109251521D01*
X167033495Y-109449425D01*
X166930188Y-109582759D01*
X166719471Y-109672965D01*
X166370792Y-109741488D01*
X166359317Y-109743218D01*
X166117578Y-109774883D01*
X166004027Y-109764289D01*
X165979732Y-109696465D01*
X165995731Y-109603407D01*
X166011699Y-109469110D01*
X166035607Y-109189259D01*
X166065777Y-108787361D01*
X166100528Y-108286921D01*
X166138178Y-107711447D01*
X166177049Y-107084444D01*
X166183647Y-106974609D01*
X166226068Y-106255171D01*
X166261183Y-105686842D01*
X166294400Y-105251880D01*
X166331132Y-104932539D01*
X166376788Y-104711075D01*
X166436779Y-104569743D01*
X166516515Y-104490799D01*
X166621408Y-104456498D01*
X166756868Y-104449095D01*
X166928305Y-104450847D01*
X166953188Y-104450823D01*
X167182580Y-104404337D01*
X167323913Y-104252897D01*
X167390722Y-103974985D01*
X167400667Y-103739402D01*
X167408912Y-103502804D01*
X167455763Y-103384468D01*
X167574390Y-103333409D01*
X167675833Y-103316466D01*
X168402911Y-103210854D01*
X169014676Y-103123489D01*
X169563197Y-103046977D01*
X169856000Y-103006952D01*
X170251548Y-102950556D01*
X170640901Y-102890567D01*
X170949721Y-102838516D01*
X170990189Y-102831036D01*
X171231780Y-102790344D01*
X171391455Y-102772712D01*
X171425642Y-102775744D01*
X171672207Y-102775744D01*
X171676675Y-102640478D01*
X171674906Y-102599683D01*
X171583015Y-102597117D01*
X171367809Y-102617807D01*
G36*
X162693068Y-96503265D02*
X162404050Y-96536598D01*
X162005759Y-96587516D01*
X161527291Y-96652272D01*
X160997742Y-96727121D01*
X160881333Y-96743980D01*
X160354293Y-96819980D01*
X159881315Y-96886941D01*
X159489077Y-96941188D01*
X159204259Y-96979043D01*
X159053537Y-96996831D01*
X159039833Y-96997714D01*
X158943912Y-97066397D01*
X158934000Y-97115673D01*
X158871391Y-97253395D01*
X158773719Y-97348506D01*
X158697192Y-97431258D01*
X158642538Y-97571193D01*
X158602608Y-97801179D01*
X158570256Y-98154080D01*
X158557467Y-98342801D01*
X158501495Y-99220935D01*
X159272667Y-99105291D01*
X159272667Y-99888042D01*
X159660449Y-99829891D01*
X160048231Y-99771739D01*
X159987806Y-100174679D01*
X159927382Y-100577618D01*
X160712000Y-100459958D01*
X160712000Y-101242709D01*
X161114167Y-101190242D01*
X161346157Y-101164896D01*
X161435954Y-101174161D01*
X161408282Y-101224148D01*
X161373153Y-101254242D01*
X161238356Y-101307529D01*
X160967106Y-101372166D01*
X160591352Y-101441778D01*
X160143045Y-101509990D01*
X159987041Y-101530796D01*
X159479563Y-101599917D01*
X159116523Y-101659637D01*
X158873695Y-101715601D01*
X158726855Y-101773458D01*
X158651775Y-101838854D01*
X158649354Y-101842609D01*
X158526595Y-101966576D01*
X158447967Y-101994333D01*
X158370847Y-102071028D01*
X158341342Y-102275928D01*
X158341333Y-102280083D01*
X158324304Y-102574759D01*
X158288417Y-102830417D01*
X158264328Y-103008862D01*
X158319931Y-103078281D01*
X158497938Y-103085272D01*
X158521250Y-103084437D01*
X158782167Y-103064010D01*
X159103947Y-103024955D01*
X159230333Y-103006045D01*
X159609151Y-102947224D01*
X160071719Y-102878202D01*
X160573111Y-102805382D01*
X161068396Y-102735165D01*
X161512646Y-102673953D01*
X161860933Y-102628148D01*
X162003167Y-102610947D01*
X162257988Y-102561393D01*
X162392901Y-102490187D01*
X162405333Y-102459555D01*
X162467577Y-102330811D01*
X162565614Y-102237493D01*
X162642063Y-102154854D01*
X162696688Y-102015121D01*
X162736620Y-101785466D01*
X162768990Y-101433060D01*
X162781994Y-101241346D01*
X162826722Y-100539738D01*
X162617000Y-100539738D01*
X162589895Y-101306647D01*
X162562790Y-102073555D01*
X162293562Y-102117562D01*
X162079302Y-102150392D01*
X161760705Y-102196680D01*
X161401244Y-102247227D01*
X161347000Y-102254708D01*
X160923442Y-102313533D01*
X160430048Y-102382914D01*
X159964563Y-102449097D01*
X159907667Y-102457256D01*
X159449680Y-102523079D01*
X159133555Y-102562323D01*
X158933106Y-102569230D01*
X158822148Y-102538043D01*
X158774495Y-102463008D01*
X158763960Y-102338367D01*
X158764667Y-102206000D01*
X158771865Y-101978686D01*
X158790075Y-101842410D01*
X158800874Y-101825000D01*
X158913893Y-101813955D01*
X159152155Y-101784616D01*
X159473276Y-101742678D01*
X159834875Y-101693834D01*
X160194569Y-101643779D01*
X160509973Y-101598207D01*
X160669667Y-101573922D01*
X161127816Y-101502959D01*
X161445019Y-101451186D01*
X161646872Y-101407186D01*
X161758974Y-101359545D01*
X161806923Y-101296844D01*
X161816316Y-101207669D01*
X161812751Y-101080603D01*
X161812667Y-101064160D01*
X161823886Y-100838011D01*
X161884710Y-100710252D01*
X162035889Y-100640338D01*
X162286409Y-100592796D01*
X162617000Y-100539738D01*
X162826722Y-100539738D01*
X162838094Y-100361358D01*
X162452380Y-100414226D01*
X162066667Y-100467094D01*
X162066667Y-100243164D01*
X161897333Y-100243164D01*
X161884664Y-100474976D01*
X161821777Y-100609331D01*
X161671356Y-100676896D01*
X161396084Y-100708337D01*
X161325833Y-100712803D01*
X161208688Y-100701934D01*
X161152701Y-100621844D01*
X161135972Y-100429461D01*
X161135333Y-100338145D01*
X161135333Y-99972709D01*
X161114073Y-99975897D01*
X161117256Y-99954669D01*
X161135333Y-99951958D01*
X161135333Y-99972709D01*
X161505703Y-99917168D01*
X161897333Y-99858440D01*
X161897333Y-100243164D01*
X162066667Y-100243164D01*
X162066667Y-99693772D01*
X161706833Y-99722219D01*
X161347000Y-99750667D01*
X161376618Y-99378870D01*
X161392765Y-99176159D01*
X161234001Y-99176159D01*
X161117256Y-99954669D01*
X160741672Y-100010991D01*
X160348010Y-100070024D01*
X160406882Y-99701857D01*
X160449166Y-99471658D01*
X160486463Y-99324627D01*
X160497218Y-99302226D01*
X160593068Y-99272490D01*
X160795400Y-99235793D01*
X160881341Y-99223461D01*
X161234001Y-99176159D01*
X161392765Y-99176159D01*
X161406235Y-99007073D01*
X161016784Y-99050969D01*
X160627333Y-99094866D01*
X160627333Y-98331371D01*
X160288667Y-98376795D01*
X160046937Y-98388557D01*
X159952256Y-98337126D01*
X159950000Y-98320749D01*
X160033668Y-98263004D01*
X160281138Y-98197594D01*
X160687111Y-98125700D01*
X161071833Y-98070947D01*
X161643615Y-97994520D01*
X162068771Y-97934889D01*
X162368696Y-97887818D01*
X162564785Y-97849068D01*
X162678435Y-97814403D01*
X162731041Y-97779583D01*
X162743998Y-97740371D01*
X162744000Y-97739744D01*
X162802942Y-97616884D01*
X162861029Y-97558667D01*
X162932685Y-97427228D01*
X162994767Y-97186763D01*
X163024244Y-96977833D01*
X163033569Y-96864435D01*
X162818442Y-96864435D01*
X162812436Y-96970251D01*
X162786333Y-97379380D01*
X161283500Y-97583205D01*
X159780667Y-97787029D01*
X159780667Y-98629962D01*
X160119333Y-98584538D01*
X160458000Y-98539113D01*
X160458000Y-98897945D01*
X160445503Y-99166931D01*
X160382735Y-99307922D01*
X160231779Y-99361804D01*
X160020556Y-99369667D01*
X159696000Y-99369667D01*
X159696000Y-98645525D01*
X159357333Y-98677822D01*
X159018667Y-98710119D01*
X159019823Y-98087393D01*
X159017826Y-97770712D01*
X159024210Y-97530984D01*
X159059542Y-97354443D01*
X159144386Y-97227320D01*
X159299311Y-97135847D01*
X159544881Y-97066257D01*
X159901663Y-97004782D01*
X160390223Y-96937654D01*
X160824009Y-96879606D01*
X161351145Y-96806851D01*
X161827602Y-96739092D01*
X162225413Y-96680469D01*
X162516609Y-96635119D01*
X162673222Y-96607181D01*
X162685436Y-96604189D01*
X162776140Y-96598163D01*
X162816181Y-96672535D01*
X162818442Y-96864435D01*
X163033569Y-96864435D01*
X163046719Y-96704542D01*
X163037571Y-96559317D01*
X162981793Y-96501709D01*
X162864378Y-96491268D01*
X162843716Y-96491266D01*
X162693068Y-96503265D01*
X162693068Y-96503265D01*
G37*
X162693068Y-96503265D02*
X162404050Y-96536598D01*
X162005759Y-96587516D01*
X161527291Y-96652272D01*
X160997742Y-96727121D01*
X160881333Y-96743980D01*
X160354293Y-96819980D01*
X159881315Y-96886941D01*
X159489077Y-96941188D01*
X159204259Y-96979043D01*
X159053537Y-96996831D01*
X159039833Y-96997714D01*
X158943912Y-97066397D01*
X158934000Y-97115673D01*
X158871391Y-97253395D01*
X158773719Y-97348506D01*
X158697192Y-97431258D01*
X158642538Y-97571193D01*
X158602608Y-97801179D01*
X158570256Y-98154080D01*
X158557467Y-98342801D01*
X158501495Y-99220935D01*
X159272667Y-99105291D01*
X159272667Y-99888042D01*
X159660449Y-99829891D01*
X160048231Y-99771739D01*
X159987806Y-100174679D01*
X159927382Y-100577618D01*
X160712000Y-100459958D01*
X160712000Y-101242709D01*
X161114167Y-101190242D01*
X161346157Y-101164896D01*
X161435954Y-101174161D01*
X161408282Y-101224148D01*
X161373153Y-101254242D01*
X161238356Y-101307529D01*
X160967106Y-101372166D01*
X160591352Y-101441778D01*
X160143045Y-101509990D01*
X159987041Y-101530796D01*
X159479563Y-101599917D01*
X159116523Y-101659637D01*
X158873695Y-101715601D01*
X158726855Y-101773458D01*
X158651775Y-101838854D01*
X158649354Y-101842609D01*
X158526595Y-101966576D01*
X158447967Y-101994333D01*
X158370847Y-102071028D01*
X158341342Y-102275928D01*
X158341333Y-102280083D01*
X158324304Y-102574759D01*
X158288417Y-102830417D01*
X158264328Y-103008862D01*
X158319931Y-103078281D01*
X158497938Y-103085272D01*
X158521250Y-103084437D01*
X158782167Y-103064010D01*
X159103947Y-103024955D01*
X159230333Y-103006045D01*
X159609151Y-102947224D01*
X160071719Y-102878202D01*
X160573111Y-102805382D01*
X161068396Y-102735165D01*
X161512646Y-102673953D01*
X161860933Y-102628148D01*
X162003167Y-102610947D01*
X162257988Y-102561393D01*
X162392901Y-102490187D01*
X162405333Y-102459555D01*
X162467577Y-102330811D01*
X162565614Y-102237493D01*
X162642063Y-102154854D01*
X162696688Y-102015121D01*
X162736620Y-101785466D01*
X162768990Y-101433060D01*
X162781994Y-101241346D01*
X162826722Y-100539738D01*
X162617000Y-100539738D01*
X162589895Y-101306647D01*
X162562790Y-102073555D01*
X162293562Y-102117562D01*
X162079302Y-102150392D01*
X161760705Y-102196680D01*
X161401244Y-102247227D01*
X161347000Y-102254708D01*
X160923442Y-102313533D01*
X160430048Y-102382914D01*
X159964563Y-102449097D01*
X159907667Y-102457256D01*
X159449680Y-102523079D01*
X159133555Y-102562323D01*
X158933106Y-102569230D01*
X158822148Y-102538043D01*
X158774495Y-102463008D01*
X158763960Y-102338367D01*
X158764667Y-102206000D01*
X158771865Y-101978686D01*
X158790075Y-101842410D01*
X158800874Y-101825000D01*
X158913893Y-101813955D01*
X159152155Y-101784616D01*
X159473276Y-101742678D01*
X159834875Y-101693834D01*
X160194569Y-101643779D01*
X160509973Y-101598207D01*
X160669667Y-101573922D01*
X161127816Y-101502959D01*
X161445019Y-101451186D01*
X161646872Y-101407186D01*
X161758974Y-101359545D01*
X161806923Y-101296844D01*
X161816316Y-101207669D01*
X161812751Y-101080603D01*
X161812667Y-101064160D01*
X161823886Y-100838011D01*
X161884710Y-100710252D01*
X162035889Y-100640338D01*
X162286409Y-100592796D01*
X162617000Y-100539738D01*
X162826722Y-100539738D01*
X162838094Y-100361358D01*
X162452380Y-100414226D01*
X162066667Y-100467094D01*
X162066667Y-100243164D01*
X161897333Y-100243164D01*
X161884664Y-100474976D01*
X161821777Y-100609331D01*
X161671356Y-100676896D01*
X161396084Y-100708337D01*
X161325833Y-100712803D01*
X161208688Y-100701934D01*
X161152701Y-100621844D01*
X161135972Y-100429461D01*
X161135333Y-100338145D01*
X161135333Y-99972709D01*
X161114073Y-99975897D01*
X161117256Y-99954669D01*
X161135333Y-99951958D01*
X161135333Y-99972709D01*
X161505703Y-99917168D01*
X161897333Y-99858440D01*
X161897333Y-100243164D01*
X162066667Y-100243164D01*
X162066667Y-99693772D01*
X161706833Y-99722219D01*
X161347000Y-99750667D01*
X161376618Y-99378870D01*
X161392765Y-99176159D01*
X161234001Y-99176159D01*
X161117256Y-99954669D01*
X160741672Y-100010991D01*
X160348010Y-100070024D01*
X160406882Y-99701857D01*
X160449166Y-99471658D01*
X160486463Y-99324627D01*
X160497218Y-99302226D01*
X160593068Y-99272490D01*
X160795400Y-99235793D01*
X160881341Y-99223461D01*
X161234001Y-99176159D01*
X161392765Y-99176159D01*
X161406235Y-99007073D01*
X161016784Y-99050969D01*
X160627333Y-99094866D01*
X160627333Y-98331371D01*
X160288667Y-98376795D01*
X160046937Y-98388557D01*
X159952256Y-98337126D01*
X159950000Y-98320749D01*
X160033668Y-98263004D01*
X160281138Y-98197594D01*
X160687111Y-98125700D01*
X161071833Y-98070947D01*
X161643615Y-97994520D01*
X162068771Y-97934889D01*
X162368696Y-97887818D01*
X162564785Y-97849068D01*
X162678435Y-97814403D01*
X162731041Y-97779583D01*
X162743998Y-97740371D01*
X162744000Y-97739744D01*
X162802942Y-97616884D01*
X162861029Y-97558667D01*
X162932685Y-97427228D01*
X162994767Y-97186763D01*
X163024244Y-96977833D01*
X163033569Y-96864435D01*
X162818442Y-96864435D01*
X162812436Y-96970251D01*
X162786333Y-97379380D01*
X161283500Y-97583205D01*
X159780667Y-97787029D01*
X159780667Y-98629962D01*
X160119333Y-98584538D01*
X160458000Y-98539113D01*
X160458000Y-98897945D01*
X160445503Y-99166931D01*
X160382735Y-99307922D01*
X160231779Y-99361804D01*
X160020556Y-99369667D01*
X159696000Y-99369667D01*
X159696000Y-98645525D01*
X159357333Y-98677822D01*
X159018667Y-98710119D01*
X159019823Y-98087393D01*
X159017826Y-97770712D01*
X159024210Y-97530984D01*
X159059542Y-97354443D01*
X159144386Y-97227320D01*
X159299311Y-97135847D01*
X159544881Y-97066257D01*
X159901663Y-97004782D01*
X160390223Y-96937654D01*
X160824009Y-96879606D01*
X161351145Y-96806851D01*
X161827602Y-96739092D01*
X162225413Y-96680469D01*
X162516609Y-96635119D01*
X162673222Y-96607181D01*
X162685436Y-96604189D01*
X162776140Y-96598163D01*
X162816181Y-96672535D01*
X162818442Y-96864435D01*
X163033569Y-96864435D01*
X163046719Y-96704542D01*
X163037571Y-96559317D01*
X162981793Y-96501709D01*
X162864378Y-96491268D01*
X162843716Y-96491266D01*
X162693068Y-96503265D01*
G36*
X166845327Y-95910467D02*
X166548018Y-95942816D01*
X166173747Y-95989296D01*
X165767671Y-96043828D01*
X165374948Y-96100329D01*
X165040738Y-96152717D01*
X164810197Y-96194912D01*
X164797167Y-96197758D01*
X164648378Y-96278238D01*
X164606667Y-96365613D01*
X164538858Y-96476454D01*
X164479667Y-96491000D01*
X164372780Y-96552918D01*
X164330095Y-96749957D01*
X164330566Y-96897036D01*
X164260585Y-96988204D01*
X164085254Y-97056679D01*
X164078620Y-97058043D01*
X163873056Y-97145872D01*
X163781174Y-97265840D01*
X163694279Y-97396403D01*
X163623125Y-97422333D01*
X163533776Y-97500360D01*
X163506000Y-97708083D01*
X163488487Y-98005637D01*
X163451874Y-98264465D01*
X163397747Y-98535098D01*
X163727040Y-98481009D01*
X164099207Y-98417218D01*
X164334197Y-98367554D01*
X164462490Y-98322386D01*
X164514568Y-98272082D01*
X164522000Y-98229814D01*
X164592873Y-98121603D01*
X164691333Y-98075134D01*
X164824007Y-97978542D01*
X164860667Y-97781757D01*
X164866747Y-97659314D01*
X164907360Y-97579901D01*
X165016065Y-97526860D01*
X165226423Y-97483533D01*
X165559167Y-97435055D01*
X165981526Y-97376221D01*
X166263775Y-97346676D01*
X166434041Y-97356505D01*
X166520456Y-97415794D01*
X166551148Y-97534628D01*
X166554246Y-97723090D01*
X166554000Y-97791717D01*
X166554000Y-98245768D01*
X165940167Y-98339229D01*
X165561562Y-98395928D01*
X165182496Y-98451174D01*
X164913300Y-98489088D01*
X164634823Y-98547779D01*
X164491762Y-98636759D01*
X164458925Y-98703576D01*
X164372285Y-98835032D01*
X164300459Y-98861667D01*
X164210239Y-98937828D01*
X164183333Y-99114053D01*
X164149998Y-99309372D01*
X164020834Y-99404891D01*
X163964067Y-99421473D01*
X163722776Y-99506514D01*
X163551295Y-99639633D01*
X163435402Y-99849355D01*
X163360872Y-100164206D01*
X163313483Y-100612711D01*
X163304516Y-100744235D01*
X163246820Y-101653137D01*
X163638930Y-101599392D01*
X164031041Y-101545648D01*
X164001354Y-101910455D01*
X163992701Y-102135731D01*
X164036300Y-102254839D01*
X164166714Y-102290177D01*
X164418501Y-102264140D01*
X164522000Y-102247849D01*
X164776547Y-102209319D01*
X165138250Y-102157639D01*
X165546336Y-102101412D01*
X165740357Y-102075398D01*
X166136850Y-102017512D01*
X166394086Y-101964229D01*
X166541602Y-101906616D01*
X166608932Y-101835742D01*
X166618065Y-101809971D01*
X166705323Y-101680641D01*
X166775542Y-101655667D01*
X166865663Y-101579286D01*
X166892667Y-101399550D01*
X166920185Y-101210137D01*
X167037923Y-101120166D01*
X167146667Y-101092633D01*
X167324664Y-101032262D01*
X167400632Y-100957343D01*
X167400667Y-100955917D01*
X167461604Y-100839323D01*
X167534100Y-100772432D01*
X167629038Y-100614873D01*
X167696580Y-100314114D01*
X167714122Y-100161066D01*
X167734511Y-99936207D01*
X167545186Y-99936207D01*
X167536725Y-100011591D01*
X167498429Y-100194139D01*
X167485333Y-100392591D01*
X167459213Y-100572875D01*
X167356125Y-100636922D01*
X167294833Y-100640823D01*
X166986738Y-100664852D01*
X166811260Y-100750335D01*
X166735203Y-100924383D01*
X166723333Y-101107558D01*
X166723333Y-101471034D01*
X166151833Y-101561904D01*
X165754657Y-101624251D01*
X165331053Y-101689528D01*
X165072333Y-101728664D01*
X164792556Y-101770574D01*
X164582947Y-101802181D01*
X164500833Y-101814777D01*
X164463262Y-101745469D01*
X164440480Y-101558106D01*
X164437333Y-101438812D01*
X164437333Y-101052624D01*
X163717667Y-101160548D01*
X163747556Y-100413274D01*
X163764089Y-100076510D01*
X163782908Y-99810747D01*
X163800901Y-99656313D01*
X163807700Y-99634078D01*
X163902267Y-99600389D01*
X164102546Y-99554524D01*
X164185720Y-99538563D01*
X164533486Y-99474970D01*
X164506577Y-100226846D01*
X164479667Y-100978722D01*
X164717875Y-100978528D01*
X164900691Y-100965586D01*
X165202674Y-100930861D01*
X165575936Y-100880233D01*
X165839708Y-100840711D01*
X166723333Y-100703088D01*
X166723333Y-100454145D01*
X166763400Y-100139376D01*
X166896457Y-99955680D01*
X167141791Y-99881677D01*
X167243371Y-99877667D01*
X167461547Y-99889736D01*
X167545186Y-99936207D01*
X167734511Y-99936207D01*
X167760712Y-99647267D01*
X167347856Y-99715087D01*
X167073667Y-99756335D01*
X166851946Y-99783152D01*
X166786833Y-99787953D01*
X166662050Y-99862304D01*
X166638667Y-99962333D01*
X166585727Y-100100237D01*
X166511667Y-100131667D01*
X166410556Y-100206918D01*
X166384667Y-100375926D01*
X166378106Y-100496095D01*
X166336055Y-100574361D01*
X166224957Y-100627209D01*
X166011257Y-100671125D01*
X165686167Y-100719089D01*
X165342537Y-100770458D01*
X165050696Y-100818987D01*
X164861773Y-100856035D01*
X164835063Y-100862943D01*
X164750109Y-100870666D01*
X164708254Y-100805685D01*
X164699441Y-100632848D01*
X164708063Y-100418979D01*
X164720020Y-100209960D01*
X164747412Y-100060309D01*
X164815771Y-99955764D01*
X164950628Y-99882063D01*
X165177513Y-99824945D01*
X165521959Y-99770148D01*
X165982500Y-99707093D01*
X166355949Y-99645376D01*
X166609286Y-99580325D01*
X166720201Y-99517973D01*
X166723333Y-99506738D01*
X166782130Y-99381219D01*
X166892667Y-99262312D01*
X167022509Y-99092318D01*
X167062000Y-98953889D01*
X167130731Y-98810288D01*
X167316000Y-98734666D01*
X167494082Y-98660837D01*
X167569970Y-98560478D01*
X167570000Y-98558606D01*
X167634296Y-98450609D01*
X167684577Y-98438333D01*
X167746605Y-98359004D01*
X167804378Y-98142365D01*
X167853413Y-97820441D01*
X167889227Y-97425255D01*
X167907338Y-96988832D01*
X167908667Y-96837449D01*
X167908667Y-96792726D01*
X167730359Y-96792726D01*
X167723983Y-97013888D01*
X167705837Y-97325055D01*
X167692998Y-97499808D01*
X167632826Y-98269000D01*
X167368580Y-98270296D01*
X167108523Y-98297724D01*
X166962109Y-98401343D01*
X166893342Y-98617996D01*
X166877335Y-98773073D01*
X166850333Y-99147365D01*
X166215333Y-99252501D01*
X165659746Y-99344127D01*
X165249424Y-99407007D01*
X164962378Y-99438821D01*
X164776615Y-99437251D01*
X164670144Y-99399981D01*
X164620974Y-99324692D01*
X164607112Y-99209066D01*
X164606667Y-99082947D01*
X164606667Y-98711560D01*
X165008833Y-98656400D01*
X165566489Y-98578661D01*
X166048326Y-98509032D01*
X166430056Y-98451173D01*
X166687391Y-98408742D01*
X166786833Y-98388517D01*
X166857006Y-98287956D01*
X166897296Y-98057254D01*
X166902433Y-97954157D01*
X166912092Y-97697309D01*
X166925379Y-97510091D01*
X166931870Y-97464667D01*
X166948374Y-97328739D01*
X166962934Y-97107144D01*
X166964438Y-97073648D01*
X166984265Y-96879704D01*
X167054627Y-96782448D01*
X167224405Y-96735200D01*
X167335546Y-96719249D01*
X167561764Y-96696051D01*
X167703960Y-96694920D01*
X167723465Y-96700909D01*
X167730359Y-96792726D01*
X167908667Y-96792726D01*
X167908667Y-96532113D01*
X167534654Y-96561859D01*
X167160642Y-96591606D01*
X167207136Y-96244969D01*
X167228872Y-96025623D01*
X167225717Y-96015464D01*
X167038020Y-96015464D01*
X167037478Y-96103149D01*
X167012306Y-96300910D01*
X166994568Y-96410946D01*
X166945647Y-96642937D01*
X166867747Y-96760359D01*
X166707138Y-96815177D01*
X166551781Y-96839206D01*
X166287136Y-96876468D01*
X165923195Y-96927710D01*
X165528341Y-96983305D01*
X165432167Y-96996847D01*
X164691333Y-97101157D01*
X164691333Y-97459300D01*
X164679040Y-97694080D01*
X164648263Y-97850290D01*
X164634889Y-97873889D01*
X164520749Y-97910219D01*
X164308673Y-97929428D01*
X164249021Y-97930333D01*
X163919597Y-97930333D01*
X163945632Y-97571230D01*
X163980865Y-97331525D01*
X164055502Y-97216466D01*
X164141000Y-97186934D01*
X164430000Y-97136557D01*
X164594237Y-97070638D01*
X164677102Y-96953697D01*
X164721989Y-96750256D01*
X164728675Y-96706444D01*
X164747964Y-96561752D01*
X164771811Y-96456205D01*
X164824581Y-96379828D01*
X164930638Y-96322648D01*
X165114348Y-96274691D01*
X165400076Y-96225982D01*
X165812185Y-96166548D01*
X166171901Y-96115652D01*
X166528077Y-96066967D01*
X166814491Y-96031933D01*
X166994706Y-96014764D01*
X167038020Y-96015464D01*
X167225717Y-96015464D01*
X167197975Y-95926158D01*
X167089003Y-95899319D01*
X167020514Y-95898333D01*
X166845327Y-95910467D01*
X166845327Y-95910467D01*
G37*
X166845327Y-95910467D02*
X166548018Y-95942816D01*
X166173747Y-95989296D01*
X165767671Y-96043828D01*
X165374948Y-96100329D01*
X165040738Y-96152717D01*
X164810197Y-96194912D01*
X164797167Y-96197758D01*
X164648378Y-96278238D01*
X164606667Y-96365613D01*
X164538858Y-96476454D01*
X164479667Y-96491000D01*
X164372780Y-96552918D01*
X164330095Y-96749957D01*
X164330566Y-96897036D01*
X164260585Y-96988204D01*
X164085254Y-97056679D01*
X164078620Y-97058043D01*
X163873056Y-97145872D01*
X163781174Y-97265840D01*
X163694279Y-97396403D01*
X163623125Y-97422333D01*
X163533776Y-97500360D01*
X163506000Y-97708083D01*
X163488487Y-98005637D01*
X163451874Y-98264465D01*
X163397747Y-98535098D01*
X163727040Y-98481009D01*
X164099207Y-98417218D01*
X164334197Y-98367554D01*
X164462490Y-98322386D01*
X164514568Y-98272082D01*
X164522000Y-98229814D01*
X164592873Y-98121603D01*
X164691333Y-98075134D01*
X164824007Y-97978542D01*
X164860667Y-97781757D01*
X164866747Y-97659314D01*
X164907360Y-97579901D01*
X165016065Y-97526860D01*
X165226423Y-97483533D01*
X165559167Y-97435055D01*
X165981526Y-97376221D01*
X166263775Y-97346676D01*
X166434041Y-97356505D01*
X166520456Y-97415794D01*
X166551148Y-97534628D01*
X166554246Y-97723090D01*
X166554000Y-97791717D01*
X166554000Y-98245768D01*
X165940167Y-98339229D01*
X165561562Y-98395928D01*
X165182496Y-98451174D01*
X164913300Y-98489088D01*
X164634823Y-98547779D01*
X164491762Y-98636759D01*
X164458925Y-98703576D01*
X164372285Y-98835032D01*
X164300459Y-98861667D01*
X164210239Y-98937828D01*
X164183333Y-99114053D01*
X164149998Y-99309372D01*
X164020834Y-99404891D01*
X163964067Y-99421473D01*
X163722776Y-99506514D01*
X163551295Y-99639633D01*
X163435402Y-99849355D01*
X163360872Y-100164206D01*
X163313483Y-100612711D01*
X163304516Y-100744235D01*
X163246820Y-101653137D01*
X163638930Y-101599392D01*
X164031041Y-101545648D01*
X164001354Y-101910455D01*
X163992701Y-102135731D01*
X164036300Y-102254839D01*
X164166714Y-102290177D01*
X164418501Y-102264140D01*
X164522000Y-102247849D01*
X164776547Y-102209319D01*
X165138250Y-102157639D01*
X165546336Y-102101412D01*
X165740357Y-102075398D01*
X166136850Y-102017512D01*
X166394086Y-101964229D01*
X166541602Y-101906616D01*
X166608932Y-101835742D01*
X166618065Y-101809971D01*
X166705323Y-101680641D01*
X166775542Y-101655667D01*
X166865663Y-101579286D01*
X166892667Y-101399550D01*
X166920185Y-101210137D01*
X167037923Y-101120166D01*
X167146667Y-101092633D01*
X167324664Y-101032262D01*
X167400632Y-100957343D01*
X167400667Y-100955917D01*
X167461604Y-100839323D01*
X167534100Y-100772432D01*
X167629038Y-100614873D01*
X167696580Y-100314114D01*
X167714122Y-100161066D01*
X167734511Y-99936207D01*
X167545186Y-99936207D01*
X167536725Y-100011591D01*
X167498429Y-100194139D01*
X167485333Y-100392591D01*
X167459213Y-100572875D01*
X167356125Y-100636922D01*
X167294833Y-100640823D01*
X166986738Y-100664852D01*
X166811260Y-100750335D01*
X166735203Y-100924383D01*
X166723333Y-101107558D01*
X166723333Y-101471034D01*
X166151833Y-101561904D01*
X165754657Y-101624251D01*
X165331053Y-101689528D01*
X165072333Y-101728664D01*
X164792556Y-101770574D01*
X164582947Y-101802181D01*
X164500833Y-101814777D01*
X164463262Y-101745469D01*
X164440480Y-101558106D01*
X164437333Y-101438812D01*
X164437333Y-101052624D01*
X163717667Y-101160548D01*
X163747556Y-100413274D01*
X163764089Y-100076510D01*
X163782908Y-99810747D01*
X163800901Y-99656313D01*
X163807700Y-99634078D01*
X163902267Y-99600389D01*
X164102546Y-99554524D01*
X164185720Y-99538563D01*
X164533486Y-99474970D01*
X164506577Y-100226846D01*
X164479667Y-100978722D01*
X164717875Y-100978528D01*
X164900691Y-100965586D01*
X165202674Y-100930861D01*
X165575936Y-100880233D01*
X165839708Y-100840711D01*
X166723333Y-100703088D01*
X166723333Y-100454145D01*
X166763400Y-100139376D01*
X166896457Y-99955680D01*
X167141791Y-99881677D01*
X167243371Y-99877667D01*
X167461547Y-99889736D01*
X167545186Y-99936207D01*
X167734511Y-99936207D01*
X167760712Y-99647267D01*
X167347856Y-99715087D01*
X167073667Y-99756335D01*
X166851946Y-99783152D01*
X166786833Y-99787953D01*
X166662050Y-99862304D01*
X166638667Y-99962333D01*
X166585727Y-100100237D01*
X166511667Y-100131667D01*
X166410556Y-100206918D01*
X166384667Y-100375926D01*
X166378106Y-100496095D01*
X166336055Y-100574361D01*
X166224957Y-100627209D01*
X166011257Y-100671125D01*
X165686167Y-100719089D01*
X165342537Y-100770458D01*
X165050696Y-100818987D01*
X164861773Y-100856035D01*
X164835063Y-100862943D01*
X164750109Y-100870666D01*
X164708254Y-100805685D01*
X164699441Y-100632848D01*
X164708063Y-100418979D01*
X164720020Y-100209960D01*
X164747412Y-100060309D01*
X164815771Y-99955764D01*
X164950628Y-99882063D01*
X165177513Y-99824945D01*
X165521959Y-99770148D01*
X165982500Y-99707093D01*
X166355949Y-99645376D01*
X166609286Y-99580325D01*
X166720201Y-99517973D01*
X166723333Y-99506738D01*
X166782130Y-99381219D01*
X166892667Y-99262312D01*
X167022509Y-99092318D01*
X167062000Y-98953889D01*
X167130731Y-98810288D01*
X167316000Y-98734666D01*
X167494082Y-98660837D01*
X167569970Y-98560478D01*
X167570000Y-98558606D01*
X167634296Y-98450609D01*
X167684577Y-98438333D01*
X167746605Y-98359004D01*
X167804378Y-98142365D01*
X167853413Y-97820441D01*
X167889227Y-97425255D01*
X167907338Y-96988832D01*
X167908667Y-96837449D01*
X167908667Y-96792726D01*
X167730359Y-96792726D01*
X167723983Y-97013888D01*
X167705837Y-97325055D01*
X167692998Y-97499808D01*
X167632826Y-98269000D01*
X167368580Y-98270296D01*
X167108523Y-98297724D01*
X166962109Y-98401343D01*
X166893342Y-98617996D01*
X166877335Y-98773073D01*
X166850333Y-99147365D01*
X166215333Y-99252501D01*
X165659746Y-99344127D01*
X165249424Y-99407007D01*
X164962378Y-99438821D01*
X164776615Y-99437251D01*
X164670144Y-99399981D01*
X164620974Y-99324692D01*
X164607112Y-99209066D01*
X164606667Y-99082947D01*
X164606667Y-98711560D01*
X165008833Y-98656400D01*
X165566489Y-98578661D01*
X166048326Y-98509032D01*
X166430056Y-98451173D01*
X166687391Y-98408742D01*
X166786833Y-98388517D01*
X166857006Y-98287956D01*
X166897296Y-98057254D01*
X166902433Y-97954157D01*
X166912092Y-97697309D01*
X166925379Y-97510091D01*
X166931870Y-97464667D01*
X166948374Y-97328739D01*
X166962934Y-97107144D01*
X166964438Y-97073648D01*
X166984265Y-96879704D01*
X167054627Y-96782448D01*
X167224405Y-96735200D01*
X167335546Y-96719249D01*
X167561764Y-96696051D01*
X167703960Y-96694920D01*
X167723465Y-96700909D01*
X167730359Y-96792726D01*
X167908667Y-96792726D01*
X167908667Y-96532113D01*
X167534654Y-96561859D01*
X167160642Y-96591606D01*
X167207136Y-96244969D01*
X167228872Y-96025623D01*
X167225717Y-96015464D01*
X167038020Y-96015464D01*
X167037478Y-96103149D01*
X167012306Y-96300910D01*
X166994568Y-96410946D01*
X166945647Y-96642937D01*
X166867747Y-96760359D01*
X166707138Y-96815177D01*
X166551781Y-96839206D01*
X166287136Y-96876468D01*
X165923195Y-96927710D01*
X165528341Y-96983305D01*
X165432167Y-96996847D01*
X164691333Y-97101157D01*
X164691333Y-97459300D01*
X164679040Y-97694080D01*
X164648263Y-97850290D01*
X164634889Y-97873889D01*
X164520749Y-97910219D01*
X164308673Y-97929428D01*
X164249021Y-97930333D01*
X163919597Y-97930333D01*
X163945632Y-97571230D01*
X163980865Y-97331525D01*
X164055502Y-97216466D01*
X164141000Y-97186934D01*
X164430000Y-97136557D01*
X164594237Y-97070638D01*
X164677102Y-96953697D01*
X164721989Y-96750256D01*
X164728675Y-96706444D01*
X164747964Y-96561752D01*
X164771811Y-96456205D01*
X164824581Y-96379828D01*
X164930638Y-96322648D01*
X165114348Y-96274691D01*
X165400076Y-96225982D01*
X165812185Y-96166548D01*
X166171901Y-96115652D01*
X166528077Y-96066967D01*
X166814491Y-96031933D01*
X166994706Y-96014764D01*
X167038020Y-96015464D01*
X167225717Y-96015464D01*
X167197975Y-95926158D01*
X167089003Y-95899319D01*
X167020514Y-95898333D01*
X166845327Y-95910467D01*
M02*
