G04 #@! TF.FileFunction,Legend,Top*
%FSLAX46Y46*%
G04 Gerber Fmt 4.6, Leading zero omitted, Abs format (unit mm)*
G04 Created by KiCad (PCBNEW 4.0.5+dfsg1-4) date Mon Jun 12 20:40:11 2017*
%MOMM*%
%LPD*%
G01*
G04 APERTURE LIST*
%ADD10C,0.100000*%
%ADD11C,0.150000*%
%ADD12C,0.010000*%
G04 APERTURE END LIST*
D10*
D11*
X166390409Y-109296200D02*
G75*
G03X166390409Y-109296200I-579209J0D01*
G01*
X130786381Y-126004581D02*
X130214952Y-126004581D01*
X130500666Y-126004581D02*
X130500666Y-125004581D01*
X130405428Y-125147438D01*
X130310190Y-125242676D01*
X130214952Y-125290295D01*
X131405428Y-125004581D02*
X131500667Y-125004581D01*
X131595905Y-125052200D01*
X131643524Y-125099819D01*
X131691143Y-125195057D01*
X131738762Y-125385533D01*
X131738762Y-125623629D01*
X131691143Y-125814105D01*
X131643524Y-125909343D01*
X131595905Y-125956962D01*
X131500667Y-126004581D01*
X131405428Y-126004581D01*
X131310190Y-125956962D01*
X131262571Y-125909343D01*
X131214952Y-125814105D01*
X131167333Y-125623629D01*
X131167333Y-125385533D01*
X131214952Y-125195057D01*
X131262571Y-125099819D01*
X131310190Y-125052200D01*
X131405428Y-125004581D01*
X132357809Y-125004581D02*
X132453048Y-125004581D01*
X132548286Y-125052200D01*
X132595905Y-125099819D01*
X132643524Y-125195057D01*
X132691143Y-125385533D01*
X132691143Y-125623629D01*
X132643524Y-125814105D01*
X132595905Y-125909343D01*
X132548286Y-125956962D01*
X132453048Y-126004581D01*
X132357809Y-126004581D01*
X132262571Y-125956962D01*
X132214952Y-125909343D01*
X132167333Y-125814105D01*
X132119714Y-125623629D01*
X132119714Y-125385533D01*
X132167333Y-125195057D01*
X132214952Y-125099819D01*
X132262571Y-125052200D01*
X132357809Y-125004581D01*
X133119714Y-125337914D02*
X133119714Y-126004581D01*
X133119714Y-125433152D02*
X133167333Y-125385533D01*
X133262571Y-125337914D01*
X133405429Y-125337914D01*
X133500667Y-125385533D01*
X133548286Y-125480771D01*
X133548286Y-126004581D01*
X134357810Y-125480771D02*
X134024476Y-125480771D01*
X134024476Y-126004581D02*
X134024476Y-125004581D01*
X134500667Y-125004581D01*
X137853943Y-116006619D02*
X137901562Y-115959000D01*
X137996800Y-115911381D01*
X138234896Y-115911381D01*
X138330134Y-115959000D01*
X138377753Y-116006619D01*
X138425372Y-116101857D01*
X138425372Y-116197095D01*
X138377753Y-116339952D01*
X137806324Y-116911381D01*
X138425372Y-116911381D01*
X138806324Y-116006619D02*
X138853943Y-115959000D01*
X138949181Y-115911381D01*
X139187277Y-115911381D01*
X139282515Y-115959000D01*
X139330134Y-116006619D01*
X139377753Y-116101857D01*
X139377753Y-116197095D01*
X139330134Y-116339952D01*
X138758705Y-116911381D01*
X139377753Y-116911381D01*
X140234896Y-116244714D02*
X140234896Y-116911381D01*
X139806324Y-116244714D02*
X139806324Y-116768524D01*
X139853943Y-116863762D01*
X139949181Y-116911381D01*
X140092039Y-116911381D01*
X140187277Y-116863762D01*
X140234896Y-116816143D01*
X141044420Y-116387571D02*
X140711086Y-116387571D01*
X140711086Y-116911381D02*
X140711086Y-115911381D01*
X141187277Y-115911381D01*
X122575772Y-121026181D02*
X122004343Y-121026181D01*
X122290057Y-121026181D02*
X122290057Y-120026181D01*
X122194819Y-120169038D01*
X122099581Y-120264276D01*
X122004343Y-120311895D01*
X123194819Y-120026181D02*
X123290058Y-120026181D01*
X123385296Y-120073800D01*
X123432915Y-120121419D01*
X123480534Y-120216657D01*
X123528153Y-120407133D01*
X123528153Y-120645229D01*
X123480534Y-120835705D01*
X123432915Y-120930943D01*
X123385296Y-120978562D01*
X123290058Y-121026181D01*
X123194819Y-121026181D01*
X123099581Y-120978562D01*
X123051962Y-120930943D01*
X123004343Y-120835705D01*
X122956724Y-120645229D01*
X122956724Y-120407133D01*
X123004343Y-120216657D01*
X123051962Y-120121419D01*
X123099581Y-120073800D01*
X123194819Y-120026181D01*
X124385296Y-120359514D02*
X124385296Y-121026181D01*
X123956724Y-120359514D02*
X123956724Y-120883324D01*
X124004343Y-120978562D01*
X124099581Y-121026181D01*
X124242439Y-121026181D01*
X124337677Y-120978562D01*
X124385296Y-120930943D01*
X125194820Y-120502371D02*
X124861486Y-120502371D01*
X124861486Y-121026181D02*
X124861486Y-120026181D01*
X125337677Y-120026181D01*
X165469962Y-118740181D02*
X164898533Y-118740181D01*
X165184247Y-118740181D02*
X165184247Y-117740181D01*
X165089009Y-117883038D01*
X164993771Y-117978276D01*
X164898533Y-118025895D01*
X166327105Y-118073514D02*
X166327105Y-118740181D01*
X165898533Y-118073514D02*
X165898533Y-118597324D01*
X165946152Y-118692562D01*
X166041390Y-118740181D01*
X166184248Y-118740181D01*
X166279486Y-118692562D01*
X166327105Y-118644943D01*
X167136629Y-118216371D02*
X166803295Y-118216371D01*
X166803295Y-118740181D02*
X166803295Y-117740181D01*
X167279486Y-117740181D01*
X155983181Y-118841781D02*
X155411752Y-118841781D01*
X155697466Y-118841781D02*
X155697466Y-117841781D01*
X155602228Y-117984638D01*
X155506990Y-118079876D01*
X155411752Y-118127495D01*
X156602228Y-117841781D02*
X156697467Y-117841781D01*
X156792705Y-117889400D01*
X156840324Y-117937019D01*
X156887943Y-118032257D01*
X156935562Y-118222733D01*
X156935562Y-118460829D01*
X156887943Y-118651305D01*
X156840324Y-118746543D01*
X156792705Y-118794162D01*
X156697467Y-118841781D01*
X156602228Y-118841781D01*
X156506990Y-118794162D01*
X156459371Y-118746543D01*
X156411752Y-118651305D01*
X156364133Y-118460829D01*
X156364133Y-118222733D01*
X156411752Y-118032257D01*
X156459371Y-117937019D01*
X156506990Y-117889400D01*
X156602228Y-117841781D01*
X157554609Y-117841781D02*
X157649848Y-117841781D01*
X157745086Y-117889400D01*
X157792705Y-117937019D01*
X157840324Y-118032257D01*
X157887943Y-118222733D01*
X157887943Y-118460829D01*
X157840324Y-118651305D01*
X157792705Y-118746543D01*
X157745086Y-118794162D01*
X157649848Y-118841781D01*
X157554609Y-118841781D01*
X157459371Y-118794162D01*
X157411752Y-118746543D01*
X157364133Y-118651305D01*
X157316514Y-118460829D01*
X157316514Y-118222733D01*
X157364133Y-118032257D01*
X157411752Y-117937019D01*
X157459371Y-117889400D01*
X157554609Y-117841781D01*
X158316514Y-118175114D02*
X158316514Y-118841781D01*
X158316514Y-118270352D02*
X158364133Y-118222733D01*
X158459371Y-118175114D01*
X158602229Y-118175114D01*
X158697467Y-118222733D01*
X158745086Y-118317971D01*
X158745086Y-118841781D01*
X159554610Y-118317971D02*
X159221276Y-118317971D01*
X159221276Y-118841781D02*
X159221276Y-117841781D01*
X159697467Y-117841781D01*
X147975772Y-118943381D02*
X147404343Y-118943381D01*
X147690057Y-118943381D02*
X147690057Y-117943381D01*
X147594819Y-118086238D01*
X147499581Y-118181476D01*
X147404343Y-118229095D01*
X148594819Y-117943381D02*
X148690058Y-117943381D01*
X148785296Y-117991000D01*
X148832915Y-118038619D01*
X148880534Y-118133857D01*
X148928153Y-118324333D01*
X148928153Y-118562429D01*
X148880534Y-118752905D01*
X148832915Y-118848143D01*
X148785296Y-118895762D01*
X148690058Y-118943381D01*
X148594819Y-118943381D01*
X148499581Y-118895762D01*
X148451962Y-118848143D01*
X148404343Y-118752905D01*
X148356724Y-118562429D01*
X148356724Y-118324333D01*
X148404343Y-118133857D01*
X148451962Y-118038619D01*
X148499581Y-117991000D01*
X148594819Y-117943381D01*
X149785296Y-118276714D02*
X149785296Y-118943381D01*
X149356724Y-118276714D02*
X149356724Y-118800524D01*
X149404343Y-118895762D01*
X149499581Y-118943381D01*
X149642439Y-118943381D01*
X149737677Y-118895762D01*
X149785296Y-118848143D01*
X150594820Y-118419571D02*
X150261486Y-118419571D01*
X150261486Y-118943381D02*
X150261486Y-117943381D01*
X150737677Y-117943381D01*
X168356019Y-87748905D02*
X168308400Y-87701286D01*
X168260781Y-87606048D01*
X168260781Y-87367952D01*
X168308400Y-87272714D01*
X168356019Y-87225095D01*
X168451257Y-87177476D01*
X168546495Y-87177476D01*
X168689352Y-87225095D01*
X169260781Y-87796524D01*
X169260781Y-87177476D01*
X168356019Y-86796524D02*
X168308400Y-86748905D01*
X168260781Y-86653667D01*
X168260781Y-86415571D01*
X168308400Y-86320333D01*
X168356019Y-86272714D01*
X168451257Y-86225095D01*
X168546495Y-86225095D01*
X168689352Y-86272714D01*
X169260781Y-86844143D01*
X169260781Y-86225095D01*
X169260781Y-85796524D02*
X168260781Y-85796524D01*
X168260781Y-85415571D01*
X168308400Y-85320333D01*
X168356019Y-85272714D01*
X168451257Y-85225095D01*
X168594114Y-85225095D01*
X168689352Y-85272714D01*
X168736971Y-85320333D01*
X168784590Y-85415571D01*
X168784590Y-85796524D01*
X163936419Y-87799705D02*
X163888800Y-87752086D01*
X163841181Y-87656848D01*
X163841181Y-87418752D01*
X163888800Y-87323514D01*
X163936419Y-87275895D01*
X164031657Y-87228276D01*
X164126895Y-87228276D01*
X164269752Y-87275895D01*
X164841181Y-87847324D01*
X164841181Y-87228276D01*
X163936419Y-86847324D02*
X163888800Y-86799705D01*
X163841181Y-86704467D01*
X163841181Y-86466371D01*
X163888800Y-86371133D01*
X163936419Y-86323514D01*
X164031657Y-86275895D01*
X164126895Y-86275895D01*
X164269752Y-86323514D01*
X164841181Y-86894943D01*
X164841181Y-86275895D01*
X164841181Y-85847324D02*
X163841181Y-85847324D01*
X163841181Y-85466371D01*
X163888800Y-85371133D01*
X163936419Y-85323514D01*
X164031657Y-85275895D01*
X164174514Y-85275895D01*
X164269752Y-85323514D01*
X164317371Y-85371133D01*
X164364990Y-85466371D01*
X164364990Y-85847324D01*
X144514915Y-108478581D02*
X143943486Y-108478581D01*
X144229200Y-108478581D02*
X144229200Y-107478581D01*
X144133962Y-107621438D01*
X144038724Y-107716676D01*
X143943486Y-107764295D01*
X144943486Y-108478581D02*
X144943486Y-107478581D01*
X145514915Y-108478581D02*
X145086343Y-107907152D01*
X145514915Y-107478581D02*
X144943486Y-108050010D01*
X144514915Y-105430581D02*
X143943486Y-105430581D01*
X144229200Y-105430581D02*
X144229200Y-104430581D01*
X144133962Y-104573438D01*
X144038724Y-104668676D01*
X143943486Y-104716295D01*
X144943486Y-105430581D02*
X144943486Y-104430581D01*
X145514915Y-105430581D02*
X145086343Y-104859152D01*
X145514915Y-104430581D02*
X144943486Y-105002010D01*
X144514915Y-102433381D02*
X143943486Y-102433381D01*
X144229200Y-102433381D02*
X144229200Y-101433381D01*
X144133962Y-101576238D01*
X144038724Y-101671476D01*
X143943486Y-101719095D01*
X144943486Y-102433381D02*
X144943486Y-101433381D01*
X145514915Y-102433381D02*
X145086343Y-101861952D01*
X145514915Y-101433381D02*
X144943486Y-102004810D01*
X144565715Y-99436181D02*
X143994286Y-99436181D01*
X144280000Y-99436181D02*
X144280000Y-98436181D01*
X144184762Y-98579038D01*
X144089524Y-98674276D01*
X143994286Y-98721895D01*
X144994286Y-99436181D02*
X144994286Y-98436181D01*
X145565715Y-99436181D02*
X145137143Y-98864752D01*
X145565715Y-98436181D02*
X144994286Y-99007610D01*
X144667315Y-96438981D02*
X144095886Y-96438981D01*
X144381600Y-96438981D02*
X144381600Y-95438981D01*
X144286362Y-95581838D01*
X144191124Y-95677076D01*
X144095886Y-95724695D01*
X145095886Y-96438981D02*
X145095886Y-95438981D01*
X145667315Y-96438981D02*
X145238743Y-95867552D01*
X145667315Y-95438981D02*
X145095886Y-96010410D01*
X127731924Y-105532181D02*
X127160495Y-105532181D01*
X127446209Y-105532181D02*
X127446209Y-104532181D01*
X127350971Y-104675038D01*
X127255733Y-104770276D01*
X127160495Y-104817895D01*
X128350971Y-104532181D02*
X128446210Y-104532181D01*
X128541448Y-104579800D01*
X128589067Y-104627419D01*
X128636686Y-104722657D01*
X128684305Y-104913133D01*
X128684305Y-105151229D01*
X128636686Y-105341705D01*
X128589067Y-105436943D01*
X128541448Y-105484562D01*
X128446210Y-105532181D01*
X128350971Y-105532181D01*
X128255733Y-105484562D01*
X128208114Y-105436943D01*
X128160495Y-105341705D01*
X128112876Y-105151229D01*
X128112876Y-104913133D01*
X128160495Y-104722657D01*
X128208114Y-104627419D01*
X128255733Y-104579800D01*
X128350971Y-104532181D01*
X129112876Y-105532181D02*
X129112876Y-104532181D01*
X129684305Y-105532181D02*
X129255733Y-104960752D01*
X129684305Y-104532181D02*
X129112876Y-105103610D01*
X127262095Y-101681019D02*
X127309714Y-101633400D01*
X127404952Y-101585781D01*
X127643048Y-101585781D01*
X127738286Y-101633400D01*
X127785905Y-101681019D01*
X127833524Y-101776257D01*
X127833524Y-101871495D01*
X127785905Y-102014352D01*
X127214476Y-102585781D01*
X127833524Y-102585781D01*
X128214476Y-101681019D02*
X128262095Y-101633400D01*
X128357333Y-101585781D01*
X128595429Y-101585781D01*
X128690667Y-101633400D01*
X128738286Y-101681019D01*
X128785905Y-101776257D01*
X128785905Y-101871495D01*
X128738286Y-102014352D01*
X128166857Y-102585781D01*
X128785905Y-102585781D01*
X129785905Y-102585781D02*
X129452571Y-102109590D01*
X129214476Y-102585781D02*
X129214476Y-101585781D01*
X129595429Y-101585781D01*
X129690667Y-101633400D01*
X129738286Y-101681019D01*
X129785905Y-101776257D01*
X129785905Y-101919114D01*
X129738286Y-102014352D01*
X129690667Y-102061971D01*
X129595429Y-102109590D01*
X129214476Y-102109590D01*
X127312895Y-98582219D02*
X127360514Y-98534600D01*
X127455752Y-98486981D01*
X127693848Y-98486981D01*
X127789086Y-98534600D01*
X127836705Y-98582219D01*
X127884324Y-98677457D01*
X127884324Y-98772695D01*
X127836705Y-98915552D01*
X127265276Y-99486981D01*
X127884324Y-99486981D01*
X128265276Y-98582219D02*
X128312895Y-98534600D01*
X128408133Y-98486981D01*
X128646229Y-98486981D01*
X128741467Y-98534600D01*
X128789086Y-98582219D01*
X128836705Y-98677457D01*
X128836705Y-98772695D01*
X128789086Y-98915552D01*
X128217657Y-99486981D01*
X128836705Y-99486981D01*
X129836705Y-99486981D02*
X129503371Y-99010790D01*
X129265276Y-99486981D02*
X129265276Y-98486981D01*
X129646229Y-98486981D01*
X129741467Y-98534600D01*
X129789086Y-98582219D01*
X129836705Y-98677457D01*
X129836705Y-98820314D01*
X129789086Y-98915552D01*
X129741467Y-98963171D01*
X129646229Y-99010790D01*
X129265276Y-99010790D01*
X127833524Y-96489781D02*
X127262095Y-96489781D01*
X127547809Y-96489781D02*
X127547809Y-95489781D01*
X127452571Y-95632638D01*
X127357333Y-95727876D01*
X127262095Y-95775495D01*
X128452571Y-95489781D02*
X128547810Y-95489781D01*
X128643048Y-95537400D01*
X128690667Y-95585019D01*
X128738286Y-95680257D01*
X128785905Y-95870733D01*
X128785905Y-96108829D01*
X128738286Y-96299305D01*
X128690667Y-96394543D01*
X128643048Y-96442162D01*
X128547810Y-96489781D01*
X128452571Y-96489781D01*
X128357333Y-96442162D01*
X128309714Y-96394543D01*
X128262095Y-96299305D01*
X128214476Y-96108829D01*
X128214476Y-95870733D01*
X128262095Y-95680257D01*
X128309714Y-95585019D01*
X128357333Y-95537400D01*
X128452571Y-95489781D01*
X129214476Y-96489781D02*
X129214476Y-95489781D01*
X129785905Y-96489781D02*
X129357333Y-95918352D01*
X129785905Y-95489781D02*
X129214476Y-96061210D01*
X175609429Y-115101714D02*
X175847524Y-115768381D01*
X176085620Y-115101714D01*
X176990382Y-115768381D02*
X176418953Y-115768381D01*
X176704667Y-115768381D02*
X176704667Y-114768381D01*
X176609429Y-114911238D01*
X176514191Y-115006476D01*
X176418953Y-115054095D01*
X177418953Y-115673143D02*
X177466572Y-115720762D01*
X177418953Y-115768381D01*
X177371334Y-115720762D01*
X177418953Y-115673143D01*
X177418953Y-115768381D01*
X178085619Y-114768381D02*
X178180858Y-114768381D01*
X178276096Y-114816000D01*
X178323715Y-114863619D01*
X178371334Y-114958857D01*
X178418953Y-115149333D01*
X178418953Y-115387429D01*
X178371334Y-115577905D01*
X178323715Y-115673143D01*
X178276096Y-115720762D01*
X178180858Y-115768381D01*
X178085619Y-115768381D01*
X177990381Y-115720762D01*
X177942762Y-115673143D01*
X177895143Y-115577905D01*
X177847524Y-115387429D01*
X177847524Y-115149333D01*
X177895143Y-114958857D01*
X177942762Y-114863619D01*
X177990381Y-114816000D01*
X178085619Y-114768381D01*
X157250381Y-121950714D02*
X156250381Y-121950714D01*
X157250381Y-121379285D01*
X156250381Y-121379285D01*
X157155143Y-120331666D02*
X157202762Y-120379285D01*
X157250381Y-120522142D01*
X157250381Y-120617380D01*
X157202762Y-120760238D01*
X157107524Y-120855476D01*
X157012286Y-120903095D01*
X156821810Y-120950714D01*
X156678952Y-120950714D01*
X156488476Y-120903095D01*
X156393238Y-120855476D01*
X156298000Y-120760238D01*
X156250381Y-120617380D01*
X156250381Y-120522142D01*
X156298000Y-120379285D01*
X156345619Y-120331666D01*
X144550381Y-121417381D02*
X144074190Y-121750715D01*
X144550381Y-121988810D02*
X143550381Y-121988810D01*
X143550381Y-121607857D01*
X143598000Y-121512619D01*
X143645619Y-121465000D01*
X143740857Y-121417381D01*
X143883714Y-121417381D01*
X143978952Y-121465000D01*
X144026571Y-121512619D01*
X144074190Y-121607857D01*
X144074190Y-121988810D01*
X144026571Y-120988810D02*
X144026571Y-120655476D01*
X144550381Y-120512619D02*
X144550381Y-120988810D01*
X143550381Y-120988810D01*
X143550381Y-120512619D01*
X144502762Y-120131667D02*
X144550381Y-119988810D01*
X144550381Y-119750714D01*
X144502762Y-119655476D01*
X144455143Y-119607857D01*
X144359905Y-119560238D01*
X144264667Y-119560238D01*
X144169429Y-119607857D01*
X144121810Y-119655476D01*
X144074190Y-119750714D01*
X144026571Y-119941191D01*
X143978952Y-120036429D01*
X143931333Y-120084048D01*
X143836095Y-120131667D01*
X143740857Y-120131667D01*
X143645619Y-120084048D01*
X143598000Y-120036429D01*
X143550381Y-119941191D01*
X143550381Y-119703095D01*
X143598000Y-119560238D01*
X144026571Y-119131667D02*
X144026571Y-118798333D01*
X144550381Y-118655476D02*
X144550381Y-119131667D01*
X143550381Y-119131667D01*
X143550381Y-118655476D01*
X143550381Y-118369762D02*
X143550381Y-117798333D01*
X144550381Y-118084048D02*
X143550381Y-118084048D01*
X141950381Y-121969762D02*
X140950381Y-121969762D01*
X140950381Y-121303096D02*
X140950381Y-121112619D01*
X140998000Y-121017381D01*
X141093238Y-120922143D01*
X141283714Y-120874524D01*
X141617048Y-120874524D01*
X141807524Y-120922143D01*
X141902762Y-121017381D01*
X141950381Y-121112619D01*
X141950381Y-121303096D01*
X141902762Y-121398334D01*
X141807524Y-121493572D01*
X141617048Y-121541191D01*
X141283714Y-121541191D01*
X141093238Y-121493572D01*
X140998000Y-121398334D01*
X140950381Y-121303096D01*
X141950381Y-119874524D02*
X141474190Y-120207858D01*
X141950381Y-120445953D02*
X140950381Y-120445953D01*
X140950381Y-120065000D01*
X140998000Y-119969762D01*
X141045619Y-119922143D01*
X141140857Y-119874524D01*
X141283714Y-119874524D01*
X141378952Y-119922143D01*
X141426571Y-119969762D01*
X141474190Y-120065000D01*
X141474190Y-120445953D01*
X141426571Y-119445953D02*
X141426571Y-119112619D01*
X141950381Y-118969762D02*
X141950381Y-119445953D01*
X140950381Y-119445953D01*
X140950381Y-118969762D01*
X141426571Y-118207857D02*
X141426571Y-118541191D01*
X141950381Y-118541191D02*
X140950381Y-118541191D01*
X140950381Y-118065000D01*
X145950381Y-121953095D02*
X145950381Y-121334047D01*
X146331333Y-121667381D01*
X146331333Y-121524523D01*
X146378952Y-121429285D01*
X146426571Y-121381666D01*
X146521810Y-121334047D01*
X146759905Y-121334047D01*
X146855143Y-121381666D01*
X146902762Y-121429285D01*
X146950381Y-121524523D01*
X146950381Y-121810238D01*
X146902762Y-121905476D01*
X146855143Y-121953095D01*
X145950381Y-121048333D02*
X146950381Y-120715000D01*
X145950381Y-120381666D01*
X145950381Y-120143571D02*
X145950381Y-119524523D01*
X146331333Y-119857857D01*
X146331333Y-119714999D01*
X146378952Y-119619761D01*
X146426571Y-119572142D01*
X146521810Y-119524523D01*
X146759905Y-119524523D01*
X146855143Y-119572142D01*
X146902762Y-119619761D01*
X146950381Y-119714999D01*
X146950381Y-120000714D01*
X146902762Y-120095952D01*
X146855143Y-120143571D01*
X139350381Y-121950714D02*
X138350381Y-121950714D01*
X139350381Y-121379285D01*
X138350381Y-121379285D01*
X139255143Y-120331666D02*
X139302762Y-120379285D01*
X139350381Y-120522142D01*
X139350381Y-120617380D01*
X139302762Y-120760238D01*
X139207524Y-120855476D01*
X139112286Y-120903095D01*
X138921810Y-120950714D01*
X138778952Y-120950714D01*
X138588476Y-120903095D01*
X138493238Y-120855476D01*
X138398000Y-120760238D01*
X138350381Y-120617380D01*
X138350381Y-120522142D01*
X138398000Y-120379285D01*
X138445619Y-120331666D01*
X148550381Y-121455476D02*
X148550381Y-121931667D01*
X149026571Y-121979286D01*
X148978952Y-121931667D01*
X148931333Y-121836429D01*
X148931333Y-121598333D01*
X148978952Y-121503095D01*
X149026571Y-121455476D01*
X149121810Y-121407857D01*
X149359905Y-121407857D01*
X149455143Y-121455476D01*
X149502762Y-121503095D01*
X149550381Y-121598333D01*
X149550381Y-121836429D01*
X149502762Y-121931667D01*
X149455143Y-121979286D01*
X148550381Y-121122143D02*
X149550381Y-120788810D01*
X148550381Y-120455476D01*
X151198000Y-121426904D02*
X151150381Y-121522142D01*
X151150381Y-121664999D01*
X151198000Y-121807857D01*
X151293238Y-121903095D01*
X151388476Y-121950714D01*
X151578952Y-121998333D01*
X151721810Y-121998333D01*
X151912286Y-121950714D01*
X152007524Y-121903095D01*
X152102762Y-121807857D01*
X152150381Y-121664999D01*
X152150381Y-121569761D01*
X152102762Y-121426904D01*
X152055143Y-121379285D01*
X151721810Y-121379285D01*
X151721810Y-121569761D01*
X152150381Y-120950714D02*
X151150381Y-120950714D01*
X152150381Y-120379285D01*
X151150381Y-120379285D01*
X152150381Y-119903095D02*
X151150381Y-119903095D01*
X151150381Y-119665000D01*
X151198000Y-119522142D01*
X151293238Y-119426904D01*
X151388476Y-119379285D01*
X151578952Y-119331666D01*
X151721810Y-119331666D01*
X151912286Y-119379285D01*
X152007524Y-119426904D01*
X152102762Y-119522142D01*
X152150381Y-119665000D01*
X152150381Y-119903095D01*
X153698000Y-121426904D02*
X153650381Y-121522142D01*
X153650381Y-121664999D01*
X153698000Y-121807857D01*
X153793238Y-121903095D01*
X153888476Y-121950714D01*
X154078952Y-121998333D01*
X154221810Y-121998333D01*
X154412286Y-121950714D01*
X154507524Y-121903095D01*
X154602762Y-121807857D01*
X154650381Y-121664999D01*
X154650381Y-121569761D01*
X154602762Y-121426904D01*
X154555143Y-121379285D01*
X154221810Y-121379285D01*
X154221810Y-121569761D01*
X154650381Y-120950714D02*
X153650381Y-120950714D01*
X154650381Y-120379285D01*
X153650381Y-120379285D01*
X154650381Y-119903095D02*
X153650381Y-119903095D01*
X153650381Y-119665000D01*
X153698000Y-119522142D01*
X153793238Y-119426904D01*
X153888476Y-119379285D01*
X154078952Y-119331666D01*
X154221810Y-119331666D01*
X154412286Y-119379285D01*
X154507524Y-119426904D01*
X154602762Y-119522142D01*
X154650381Y-119665000D01*
X154650381Y-119903095D01*
X161864667Y-121879286D02*
X161864667Y-121403095D01*
X162150381Y-121974524D02*
X161150381Y-121641191D01*
X162150381Y-121307857D01*
X161150381Y-120498333D02*
X161150381Y-120974524D01*
X161626571Y-121022143D01*
X161578952Y-120974524D01*
X161531333Y-120879286D01*
X161531333Y-120641190D01*
X161578952Y-120545952D01*
X161626571Y-120498333D01*
X161721810Y-120450714D01*
X161959905Y-120450714D01*
X162055143Y-120498333D01*
X162102762Y-120545952D01*
X162150381Y-120641190D01*
X162150381Y-120879286D01*
X162102762Y-120974524D01*
X162055143Y-121022143D01*
X164564667Y-121879286D02*
X164564667Y-121403095D01*
X164850381Y-121974524D02*
X163850381Y-121641191D01*
X164850381Y-121307857D01*
X164183714Y-120545952D02*
X164850381Y-120545952D01*
X163802762Y-120784048D02*
X164517048Y-121022143D01*
X164517048Y-120403095D01*
X167064667Y-121879286D02*
X167064667Y-121403095D01*
X167350381Y-121974524D02*
X166350381Y-121641191D01*
X167350381Y-121307857D01*
X166350381Y-121069762D02*
X166350381Y-120450714D01*
X166731333Y-120784048D01*
X166731333Y-120641190D01*
X166778952Y-120545952D01*
X166826571Y-120498333D01*
X166921810Y-120450714D01*
X167159905Y-120450714D01*
X167255143Y-120498333D01*
X167302762Y-120545952D01*
X167350381Y-120641190D01*
X167350381Y-120926905D01*
X167302762Y-121022143D01*
X167255143Y-121069762D01*
X169464667Y-121879286D02*
X169464667Y-121403095D01*
X169750381Y-121974524D02*
X168750381Y-121641191D01*
X169750381Y-121307857D01*
X168845619Y-121022143D02*
X168798000Y-120974524D01*
X168750381Y-120879286D01*
X168750381Y-120641190D01*
X168798000Y-120545952D01*
X168845619Y-120498333D01*
X168940857Y-120450714D01*
X169036095Y-120450714D01*
X169178952Y-120498333D01*
X169750381Y-121069762D01*
X169750381Y-120450714D01*
X171964667Y-121879286D02*
X171964667Y-121403095D01*
X172250381Y-121974524D02*
X171250381Y-121641191D01*
X172250381Y-121307857D01*
X172250381Y-120450714D02*
X172250381Y-121022143D01*
X172250381Y-120736429D02*
X171250381Y-120736429D01*
X171393238Y-120831667D01*
X171488476Y-120926905D01*
X171536095Y-121022143D01*
X174464667Y-121879286D02*
X174464667Y-121403095D01*
X174750381Y-121974524D02*
X173750381Y-121641191D01*
X174750381Y-121307857D01*
X173750381Y-120784048D02*
X173750381Y-120688809D01*
X173798000Y-120593571D01*
X173845619Y-120545952D01*
X173940857Y-120498333D01*
X174131333Y-120450714D01*
X174369429Y-120450714D01*
X174559905Y-120498333D01*
X174655143Y-120545952D01*
X174702762Y-120593571D01*
X174750381Y-120688809D01*
X174750381Y-120784048D01*
X174702762Y-120879286D01*
X174655143Y-120926905D01*
X174559905Y-120974524D01*
X174369429Y-121022143D01*
X174131333Y-121022143D01*
X173940857Y-120974524D01*
X173845619Y-120926905D01*
X173798000Y-120879286D01*
X173750381Y-120784048D01*
X129150381Y-81903095D02*
X129150381Y-81284047D01*
X129531333Y-81617381D01*
X129531333Y-81474523D01*
X129578952Y-81379285D01*
X129626571Y-81331666D01*
X129721810Y-81284047D01*
X129959905Y-81284047D01*
X130055143Y-81331666D01*
X130102762Y-81379285D01*
X130150381Y-81474523D01*
X130150381Y-81760238D01*
X130102762Y-81855476D01*
X130055143Y-81903095D01*
X129102762Y-80141190D02*
X130388476Y-80998333D01*
X130102762Y-79855476D02*
X130150381Y-79712619D01*
X130150381Y-79474523D01*
X130102762Y-79379285D01*
X130055143Y-79331666D01*
X129959905Y-79284047D01*
X129864667Y-79284047D01*
X129769429Y-79331666D01*
X129721810Y-79379285D01*
X129674190Y-79474523D01*
X129626571Y-79665000D01*
X129578952Y-79760238D01*
X129531333Y-79807857D01*
X129436095Y-79855476D01*
X129340857Y-79855476D01*
X129245619Y-79807857D01*
X129198000Y-79760238D01*
X129150381Y-79665000D01*
X129150381Y-79426904D01*
X129198000Y-79284047D01*
X130055143Y-78284047D02*
X130102762Y-78331666D01*
X130150381Y-78474523D01*
X130150381Y-78569761D01*
X130102762Y-78712619D01*
X130007524Y-78807857D01*
X129912286Y-78855476D01*
X129721810Y-78903095D01*
X129578952Y-78903095D01*
X129388476Y-78855476D01*
X129293238Y-78807857D01*
X129198000Y-78712619D01*
X129150381Y-78569761D01*
X129150381Y-78474523D01*
X129198000Y-78331666D01*
X129245619Y-78284047D01*
X130150381Y-77379285D02*
X130150381Y-77855476D01*
X129150381Y-77855476D01*
X131845619Y-81879286D02*
X131798000Y-81831667D01*
X131750381Y-81736429D01*
X131750381Y-81498333D01*
X131798000Y-81403095D01*
X131845619Y-81355476D01*
X131940857Y-81307857D01*
X132036095Y-81307857D01*
X132178952Y-81355476D01*
X132750381Y-81926905D01*
X132750381Y-81307857D01*
X131702762Y-80165000D02*
X132988476Y-81022143D01*
X132702762Y-79879286D02*
X132750381Y-79736429D01*
X132750381Y-79498333D01*
X132702762Y-79403095D01*
X132655143Y-79355476D01*
X132559905Y-79307857D01*
X132464667Y-79307857D01*
X132369429Y-79355476D01*
X132321810Y-79403095D01*
X132274190Y-79498333D01*
X132226571Y-79688810D01*
X132178952Y-79784048D01*
X132131333Y-79831667D01*
X132036095Y-79879286D01*
X131940857Y-79879286D01*
X131845619Y-79831667D01*
X131798000Y-79784048D01*
X131750381Y-79688810D01*
X131750381Y-79450714D01*
X131798000Y-79307857D01*
X132750381Y-78879286D02*
X131750381Y-78879286D01*
X131750381Y-78641191D01*
X131798000Y-78498333D01*
X131893238Y-78403095D01*
X131988476Y-78355476D01*
X132178952Y-78307857D01*
X132321810Y-78307857D01*
X132512286Y-78355476D01*
X132607524Y-78403095D01*
X132702762Y-78498333D01*
X132750381Y-78641191D01*
X132750381Y-78879286D01*
X132464667Y-77926905D02*
X132464667Y-77450714D01*
X132750381Y-78022143D02*
X131750381Y-77688810D01*
X132750381Y-77355476D01*
X135064667Y-80584048D02*
X135064667Y-80107857D01*
X135350381Y-80679286D02*
X134350381Y-80345953D01*
X135350381Y-80012619D01*
X135350381Y-79107857D02*
X134874190Y-79441191D01*
X135350381Y-79679286D02*
X134350381Y-79679286D01*
X134350381Y-79298333D01*
X134398000Y-79203095D01*
X134445619Y-79155476D01*
X134540857Y-79107857D01*
X134683714Y-79107857D01*
X134778952Y-79155476D01*
X134826571Y-79203095D01*
X134874190Y-79298333D01*
X134874190Y-79679286D01*
X134826571Y-78679286D02*
X134826571Y-78345952D01*
X135350381Y-78203095D02*
X135350381Y-78679286D01*
X134350381Y-78679286D01*
X134350381Y-78203095D01*
X134826571Y-77441190D02*
X134826571Y-77774524D01*
X135350381Y-77774524D02*
X134350381Y-77774524D01*
X134350381Y-77298333D01*
X136898000Y-79526904D02*
X136850381Y-79622142D01*
X136850381Y-79764999D01*
X136898000Y-79907857D01*
X136993238Y-80003095D01*
X137088476Y-80050714D01*
X137278952Y-80098333D01*
X137421810Y-80098333D01*
X137612286Y-80050714D01*
X137707524Y-80003095D01*
X137802762Y-79907857D01*
X137850381Y-79764999D01*
X137850381Y-79669761D01*
X137802762Y-79526904D01*
X137755143Y-79479285D01*
X137421810Y-79479285D01*
X137421810Y-79669761D01*
X137850381Y-79050714D02*
X136850381Y-79050714D01*
X137850381Y-78479285D01*
X136850381Y-78479285D01*
X137850381Y-78003095D02*
X136850381Y-78003095D01*
X136850381Y-77765000D01*
X136898000Y-77622142D01*
X136993238Y-77526904D01*
X137088476Y-77479285D01*
X137278952Y-77431666D01*
X137421810Y-77431666D01*
X137612286Y-77479285D01*
X137707524Y-77526904D01*
X137802762Y-77622142D01*
X137850381Y-77765000D01*
X137850381Y-78003095D01*
X140550381Y-79136428D02*
X140550381Y-79707857D01*
X140550381Y-79422143D02*
X139550381Y-79422143D01*
X139693238Y-79517381D01*
X139788476Y-79612619D01*
X139836095Y-79707857D01*
X139550381Y-78803095D02*
X139550381Y-78184047D01*
X139931333Y-78517381D01*
X139931333Y-78374523D01*
X139978952Y-78279285D01*
X140026571Y-78231666D01*
X140121810Y-78184047D01*
X140359905Y-78184047D01*
X140455143Y-78231666D01*
X140502762Y-78279285D01*
X140550381Y-78374523D01*
X140550381Y-78660238D01*
X140502762Y-78755476D01*
X140455143Y-78803095D01*
X139550381Y-77612619D02*
X139788476Y-77612619D01*
X139693238Y-77850714D02*
X139788476Y-77612619D01*
X139693238Y-77374523D01*
X139978952Y-77755476D02*
X139788476Y-77612619D01*
X139978952Y-77469761D01*
X142950381Y-78355476D02*
X142950381Y-78926905D01*
X142950381Y-78641191D02*
X141950381Y-78641191D01*
X142093238Y-78736429D01*
X142188476Y-78831667D01*
X142236095Y-78926905D01*
X142045619Y-77974524D02*
X141998000Y-77926905D01*
X141950381Y-77831667D01*
X141950381Y-77593571D01*
X141998000Y-77498333D01*
X142045619Y-77450714D01*
X142140857Y-77403095D01*
X142236095Y-77403095D01*
X142378952Y-77450714D01*
X142950381Y-78022143D01*
X142950381Y-77403095D01*
X145450381Y-79136428D02*
X145450381Y-79707857D01*
X145450381Y-79422143D02*
X144450381Y-79422143D01*
X144593238Y-79517381D01*
X144688476Y-79612619D01*
X144736095Y-79707857D01*
X145450381Y-78184047D02*
X145450381Y-78755476D01*
X145450381Y-78469762D02*
X144450381Y-78469762D01*
X144593238Y-78565000D01*
X144688476Y-78660238D01*
X144736095Y-78755476D01*
X144450381Y-77612619D02*
X144688476Y-77612619D01*
X144593238Y-77850714D02*
X144688476Y-77612619D01*
X144593238Y-77374523D01*
X144878952Y-77755476D02*
X144688476Y-77612619D01*
X144878952Y-77469761D01*
X148150381Y-79136428D02*
X148150381Y-79707857D01*
X148150381Y-79422143D02*
X147150381Y-79422143D01*
X147293238Y-79517381D01*
X147388476Y-79612619D01*
X147436095Y-79707857D01*
X147150381Y-78517381D02*
X147150381Y-78422142D01*
X147198000Y-78326904D01*
X147245619Y-78279285D01*
X147340857Y-78231666D01*
X147531333Y-78184047D01*
X147769429Y-78184047D01*
X147959905Y-78231666D01*
X148055143Y-78279285D01*
X148102762Y-78326904D01*
X148150381Y-78422142D01*
X148150381Y-78517381D01*
X148102762Y-78612619D01*
X148055143Y-78660238D01*
X147959905Y-78707857D01*
X147769429Y-78755476D01*
X147531333Y-78755476D01*
X147340857Y-78707857D01*
X147245619Y-78660238D01*
X147198000Y-78612619D01*
X147150381Y-78517381D01*
X147150381Y-77612619D02*
X147388476Y-77612619D01*
X147293238Y-77850714D02*
X147388476Y-77612619D01*
X147293238Y-77374523D01*
X147578952Y-77755476D02*
X147388476Y-77612619D01*
X147578952Y-77469761D01*
X150850381Y-78636429D02*
X150850381Y-78445953D01*
X150802762Y-78350714D01*
X150755143Y-78303095D01*
X150612286Y-78207857D01*
X150421810Y-78160238D01*
X150040857Y-78160238D01*
X149945619Y-78207857D01*
X149898000Y-78255476D01*
X149850381Y-78350714D01*
X149850381Y-78541191D01*
X149898000Y-78636429D01*
X149945619Y-78684048D01*
X150040857Y-78731667D01*
X150278952Y-78731667D01*
X150374190Y-78684048D01*
X150421810Y-78636429D01*
X150469429Y-78541191D01*
X150469429Y-78350714D01*
X150421810Y-78255476D01*
X150374190Y-78207857D01*
X150278952Y-78160238D01*
X149850381Y-77588810D02*
X150088476Y-77588810D01*
X149993238Y-77826905D02*
X150088476Y-77588810D01*
X149993238Y-77350714D01*
X150278952Y-77731667D02*
X150088476Y-77588810D01*
X150278952Y-77445952D01*
X152578952Y-77760238D02*
X152531333Y-77855476D01*
X152483714Y-77903095D01*
X152388476Y-77950714D01*
X152340857Y-77950714D01*
X152245619Y-77903095D01*
X152198000Y-77855476D01*
X152150381Y-77760238D01*
X152150381Y-77569761D01*
X152198000Y-77474523D01*
X152245619Y-77426904D01*
X152340857Y-77379285D01*
X152388476Y-77379285D01*
X152483714Y-77426904D01*
X152531333Y-77474523D01*
X152578952Y-77569761D01*
X152578952Y-77760238D01*
X152626571Y-77855476D01*
X152674190Y-77903095D01*
X152769429Y-77950714D01*
X152959905Y-77950714D01*
X153055143Y-77903095D01*
X153102762Y-77855476D01*
X153150381Y-77760238D01*
X153150381Y-77569761D01*
X153102762Y-77474523D01*
X153055143Y-77426904D01*
X152959905Y-77379285D01*
X152769429Y-77379285D01*
X152674190Y-77426904D01*
X152626571Y-77474523D01*
X152578952Y-77569761D01*
X156350381Y-78098333D02*
X156350381Y-77431666D01*
X157350381Y-77860238D01*
X158850381Y-78255476D02*
X158850381Y-78445953D01*
X158898000Y-78541191D01*
X158945619Y-78588810D01*
X159088476Y-78684048D01*
X159278952Y-78731667D01*
X159659905Y-78731667D01*
X159755143Y-78684048D01*
X159802762Y-78636429D01*
X159850381Y-78541191D01*
X159850381Y-78350714D01*
X159802762Y-78255476D01*
X159755143Y-78207857D01*
X159659905Y-78160238D01*
X159421810Y-78160238D01*
X159326571Y-78207857D01*
X159278952Y-78255476D01*
X159231333Y-78350714D01*
X159231333Y-78541191D01*
X159278952Y-78636429D01*
X159326571Y-78684048D01*
X159421810Y-78731667D01*
X158850381Y-77588810D02*
X159088476Y-77588810D01*
X158993238Y-77826905D02*
X159088476Y-77588810D01*
X158993238Y-77350714D01*
X159278952Y-77731667D02*
X159088476Y-77588810D01*
X159278952Y-77445952D01*
X161450381Y-78107857D02*
X161450381Y-78584048D01*
X161926571Y-78631667D01*
X161878952Y-78584048D01*
X161831333Y-78488810D01*
X161831333Y-78250714D01*
X161878952Y-78155476D01*
X161926571Y-78107857D01*
X162021810Y-78060238D01*
X162259905Y-78060238D01*
X162355143Y-78107857D01*
X162402762Y-78155476D01*
X162450381Y-78250714D01*
X162450381Y-78488810D01*
X162402762Y-78584048D01*
X162355143Y-78631667D01*
X161450381Y-77488810D02*
X161688476Y-77488810D01*
X161593238Y-77726905D02*
X161688476Y-77488810D01*
X161593238Y-77250714D01*
X161878952Y-77631667D02*
X161688476Y-77488810D01*
X161878952Y-77345952D01*
X164283714Y-77574523D02*
X164950381Y-77574523D01*
X163902762Y-77812619D02*
X164617048Y-78050714D01*
X164617048Y-77431666D01*
X166250381Y-81903095D02*
X166250381Y-81284047D01*
X166631333Y-81617381D01*
X166631333Y-81474523D01*
X166678952Y-81379285D01*
X166726571Y-81331666D01*
X166821810Y-81284047D01*
X167059905Y-81284047D01*
X167155143Y-81331666D01*
X167202762Y-81379285D01*
X167250381Y-81474523D01*
X167250381Y-81760238D01*
X167202762Y-81855476D01*
X167155143Y-81903095D01*
X166202762Y-80141190D02*
X167488476Y-80998333D01*
X167202762Y-79855476D02*
X167250381Y-79712619D01*
X167250381Y-79474523D01*
X167202762Y-79379285D01*
X167155143Y-79331666D01*
X167059905Y-79284047D01*
X166964667Y-79284047D01*
X166869429Y-79331666D01*
X166821810Y-79379285D01*
X166774190Y-79474523D01*
X166726571Y-79665000D01*
X166678952Y-79760238D01*
X166631333Y-79807857D01*
X166536095Y-79855476D01*
X166440857Y-79855476D01*
X166345619Y-79807857D01*
X166298000Y-79760238D01*
X166250381Y-79665000D01*
X166250381Y-79426904D01*
X166298000Y-79284047D01*
X167155143Y-78284047D02*
X167202762Y-78331666D01*
X167250381Y-78474523D01*
X167250381Y-78569761D01*
X167202762Y-78712619D01*
X167107524Y-78807857D01*
X167012286Y-78855476D01*
X166821810Y-78903095D01*
X166678952Y-78903095D01*
X166488476Y-78855476D01*
X166393238Y-78807857D01*
X166298000Y-78712619D01*
X166250381Y-78569761D01*
X166250381Y-78474523D01*
X166298000Y-78331666D01*
X166345619Y-78284047D01*
X167250381Y-77379285D02*
X167250381Y-77855476D01*
X166250381Y-77855476D01*
X168845619Y-81879286D02*
X168798000Y-81831667D01*
X168750381Y-81736429D01*
X168750381Y-81498333D01*
X168798000Y-81403095D01*
X168845619Y-81355476D01*
X168940857Y-81307857D01*
X169036095Y-81307857D01*
X169178952Y-81355476D01*
X169750381Y-81926905D01*
X169750381Y-81307857D01*
X168702762Y-80165000D02*
X169988476Y-81022143D01*
X169702762Y-79879286D02*
X169750381Y-79736429D01*
X169750381Y-79498333D01*
X169702762Y-79403095D01*
X169655143Y-79355476D01*
X169559905Y-79307857D01*
X169464667Y-79307857D01*
X169369429Y-79355476D01*
X169321810Y-79403095D01*
X169274190Y-79498333D01*
X169226571Y-79688810D01*
X169178952Y-79784048D01*
X169131333Y-79831667D01*
X169036095Y-79879286D01*
X168940857Y-79879286D01*
X168845619Y-79831667D01*
X168798000Y-79784048D01*
X168750381Y-79688810D01*
X168750381Y-79450714D01*
X168798000Y-79307857D01*
X169750381Y-78879286D02*
X168750381Y-78879286D01*
X168750381Y-78641191D01*
X168798000Y-78498333D01*
X168893238Y-78403095D01*
X168988476Y-78355476D01*
X169178952Y-78307857D01*
X169321810Y-78307857D01*
X169512286Y-78355476D01*
X169607524Y-78403095D01*
X169702762Y-78498333D01*
X169750381Y-78641191D01*
X169750381Y-78879286D01*
X169464667Y-77926905D02*
X169464667Y-77450714D01*
X169750381Y-78022143D02*
X168750381Y-77688810D01*
X169750381Y-77355476D01*
X171450381Y-80826905D02*
X171450381Y-80255476D01*
X172450381Y-80541191D02*
X171450381Y-80541191D01*
X171450381Y-80017381D02*
X172450381Y-79350714D01*
X171450381Y-79350714D02*
X172450381Y-80017381D01*
X171402762Y-78255476D02*
X172688476Y-79112619D01*
X172450381Y-77398333D02*
X172450381Y-77969762D01*
X172450381Y-77684048D02*
X171450381Y-77684048D01*
X171593238Y-77779286D01*
X171688476Y-77874524D01*
X171736095Y-77969762D01*
X175050381Y-80331666D02*
X174574190Y-80665000D01*
X175050381Y-80903095D02*
X174050381Y-80903095D01*
X174050381Y-80522142D01*
X174098000Y-80426904D01*
X174145619Y-80379285D01*
X174240857Y-80331666D01*
X174383714Y-80331666D01*
X174478952Y-80379285D01*
X174526571Y-80426904D01*
X174574190Y-80522142D01*
X174574190Y-80903095D01*
X174050381Y-79998333D02*
X175050381Y-79331666D01*
X174050381Y-79331666D02*
X175050381Y-79998333D01*
X174002762Y-78236428D02*
X175288476Y-79093571D01*
X174050381Y-77712619D02*
X174050381Y-77617380D01*
X174098000Y-77522142D01*
X174145619Y-77474523D01*
X174240857Y-77426904D01*
X174431333Y-77379285D01*
X174669429Y-77379285D01*
X174859905Y-77426904D01*
X174955143Y-77474523D01*
X175002762Y-77522142D01*
X175050381Y-77617380D01*
X175050381Y-77712619D01*
X175002762Y-77807857D01*
X174955143Y-77855476D01*
X174859905Y-77903095D01*
X174669429Y-77950714D01*
X174431333Y-77950714D01*
X174240857Y-77903095D01*
X174145619Y-77855476D01*
X174098000Y-77807857D01*
X174050381Y-77712619D01*
X174621810Y-103717381D02*
X174621810Y-102717381D01*
X175669429Y-103622143D02*
X175621810Y-103669762D01*
X175478953Y-103717381D01*
X175383715Y-103717381D01*
X175240857Y-103669762D01*
X175145619Y-103574524D01*
X175098000Y-103479286D01*
X175050381Y-103288810D01*
X175050381Y-103145952D01*
X175098000Y-102955476D01*
X175145619Y-102860238D01*
X175240857Y-102765000D01*
X175383715Y-102717381D01*
X175478953Y-102717381D01*
X175621810Y-102765000D01*
X175669429Y-102812619D01*
X176050381Y-103669762D02*
X176193238Y-103717381D01*
X176431334Y-103717381D01*
X176526572Y-103669762D01*
X176574191Y-103622143D01*
X176621810Y-103526905D01*
X176621810Y-103431667D01*
X176574191Y-103336429D01*
X176526572Y-103288810D01*
X176431334Y-103241190D01*
X176240857Y-103193571D01*
X176145619Y-103145952D01*
X176098000Y-103098333D01*
X176050381Y-103003095D01*
X176050381Y-102907857D01*
X176098000Y-102812619D01*
X176145619Y-102765000D01*
X176240857Y-102717381D01*
X176478953Y-102717381D01*
X176621810Y-102765000D01*
X177050381Y-103717381D02*
X177050381Y-102717381D01*
X177431334Y-102717381D01*
X177526572Y-102765000D01*
X177574191Y-102812619D01*
X177621810Y-102907857D01*
X177621810Y-103050714D01*
X177574191Y-103145952D01*
X177526572Y-103193571D01*
X177431334Y-103241190D01*
X177050381Y-103241190D01*
X165007524Y-98067381D02*
X164436095Y-98067381D01*
X164721809Y-98067381D02*
X164721809Y-97067381D01*
X164626571Y-97210238D01*
X164531333Y-97305476D01*
X164436095Y-97353095D01*
X165864667Y-97067381D02*
X165674190Y-97067381D01*
X165578952Y-97115000D01*
X165531333Y-97162619D01*
X165436095Y-97305476D01*
X165388476Y-97495952D01*
X165388476Y-97876905D01*
X165436095Y-97972143D01*
X165483714Y-98019762D01*
X165578952Y-98067381D01*
X165769429Y-98067381D01*
X165864667Y-98019762D01*
X165912286Y-97972143D01*
X165959905Y-97876905D01*
X165959905Y-97638810D01*
X165912286Y-97543571D01*
X165864667Y-97495952D01*
X165769429Y-97448333D01*
X165578952Y-97448333D01*
X165483714Y-97495952D01*
X165436095Y-97543571D01*
X165388476Y-97638810D01*
X166388476Y-98067381D02*
X166388476Y-97067381D01*
X166721810Y-97781667D01*
X167055143Y-97067381D01*
X167055143Y-98067381D01*
X167531333Y-98067381D02*
X167531333Y-97067381D01*
X167531333Y-97543571D02*
X168102762Y-97543571D01*
X168102762Y-98067381D02*
X168102762Y-97067381D01*
X168483714Y-97400714D02*
X169007524Y-97400714D01*
X168483714Y-98067381D01*
X169007524Y-98067381D01*
X115945619Y-81617381D02*
X115612285Y-81141190D01*
X115374190Y-81617381D02*
X115374190Y-80617381D01*
X115755143Y-80617381D01*
X115850381Y-80665000D01*
X115898000Y-80712619D01*
X115945619Y-80807857D01*
X115945619Y-80950714D01*
X115898000Y-81045952D01*
X115850381Y-81093571D01*
X115755143Y-81141190D01*
X115374190Y-81141190D01*
X116374190Y-81093571D02*
X116707524Y-81093571D01*
X116850381Y-81617381D02*
X116374190Y-81617381D01*
X116374190Y-80617381D01*
X116850381Y-80617381D01*
X117231333Y-81569762D02*
X117374190Y-81617381D01*
X117612286Y-81617381D01*
X117707524Y-81569762D01*
X117755143Y-81522143D01*
X117802762Y-81426905D01*
X117802762Y-81331667D01*
X117755143Y-81236429D01*
X117707524Y-81188810D01*
X117612286Y-81141190D01*
X117421809Y-81093571D01*
X117326571Y-81045952D01*
X117278952Y-80998333D01*
X117231333Y-80903095D01*
X117231333Y-80807857D01*
X117278952Y-80712619D01*
X117326571Y-80665000D01*
X117421809Y-80617381D01*
X117659905Y-80617381D01*
X117802762Y-80665000D01*
X118231333Y-81093571D02*
X118564667Y-81093571D01*
X118707524Y-81617381D02*
X118231333Y-81617381D01*
X118231333Y-80617381D01*
X118707524Y-80617381D01*
X118993238Y-80617381D02*
X119564667Y-80617381D01*
X119278952Y-81617381D02*
X119278952Y-80617381D01*
X171222000Y-93264240D02*
X171422660Y-93665560D01*
X171422660Y-93665560D02*
X171524260Y-94265000D01*
X171524260Y-94265000D02*
X171422660Y-94765380D01*
X171422660Y-94765380D02*
X171023880Y-95463880D01*
X171023880Y-95463880D02*
X170421900Y-95865200D01*
X170421900Y-95865200D02*
X169822460Y-96065860D01*
X169822460Y-96065860D02*
X163223540Y-96065860D01*
X163223540Y-96065860D02*
X162522500Y-95865200D01*
X162522500Y-95865200D02*
X162123720Y-95565480D01*
X162123720Y-95565480D02*
X161722400Y-95065100D01*
X161722400Y-95065100D02*
X161521740Y-94465660D01*
X161521740Y-94465660D02*
X161521740Y-93965280D01*
X161521740Y-93965280D02*
X161722400Y-93464900D01*
X161722400Y-93464900D02*
X162222780Y-92865460D01*
X162222780Y-92865460D02*
X162723160Y-92565740D01*
X162723160Y-92565740D02*
X163223540Y-92464140D01*
X163322600Y-92464140D02*
X169924060Y-92464140D01*
X169924060Y-92464140D02*
X170322840Y-92565740D01*
X170322840Y-92565740D02*
X170823220Y-92865460D01*
X170823220Y-92865460D02*
X171323600Y-93365840D01*
X163332760Y-91935820D02*
X162873020Y-91984080D01*
X162873020Y-91984080D02*
X162474240Y-92095840D01*
X162474240Y-92095840D02*
X162042440Y-92314280D01*
X162042440Y-92314280D02*
X161752880Y-92545420D01*
X161752880Y-92545420D02*
X161422680Y-92895940D01*
X161422680Y-92895940D02*
X161133120Y-93434420D01*
X161133120Y-93434420D02*
X161003580Y-94033860D01*
X161003580Y-94033860D02*
X161003580Y-94544400D01*
X161003580Y-94544400D02*
X161173760Y-95245440D01*
X161173760Y-95245440D02*
X161572540Y-95834720D01*
X161572540Y-95834720D02*
X162032280Y-96205560D01*
X162032280Y-96205560D02*
X162453920Y-96413840D01*
X162453920Y-96413840D02*
X162903500Y-96573860D01*
X162903500Y-96573860D02*
X163342920Y-96604340D01*
X170683520Y-96385900D02*
X171061980Y-96164920D01*
X171061980Y-96164920D02*
X171382020Y-95885520D01*
X171382020Y-95885520D02*
X171633480Y-95555320D01*
X171633480Y-95555320D02*
X171933200Y-95004140D01*
X171933200Y-95004140D02*
X172042420Y-94534240D01*
X172042420Y-94534240D02*
X172062740Y-94074500D01*
X172062740Y-94074500D02*
X171973840Y-93614760D01*
X171973840Y-93614760D02*
X171783340Y-93165180D01*
X171783340Y-93165180D02*
X171422660Y-92695280D01*
X171422660Y-92695280D02*
X171072140Y-92375240D01*
X171072140Y-92375240D02*
X170683520Y-92144100D01*
X170683520Y-92144100D02*
X170254260Y-92004400D01*
X170254260Y-92004400D02*
X169812300Y-91935820D01*
X163322600Y-96594180D02*
X169774200Y-96594180D01*
X169774200Y-96594180D02*
X170193300Y-96556080D01*
X170193300Y-96556080D02*
X170683520Y-96385900D01*
X163322600Y-91935820D02*
X169774200Y-91935820D01*
X140208000Y-125095000D02*
X157988000Y-125095000D01*
X157988000Y-125095000D02*
X157988000Y-122555000D01*
X157988000Y-122555000D02*
X140208000Y-122555000D01*
X137388000Y-125375000D02*
X138938000Y-125375000D01*
X140208000Y-125095000D02*
X140208000Y-122555000D01*
X138938000Y-122275000D02*
X137388000Y-122275000D01*
X137388000Y-122275000D02*
X137388000Y-125375000D01*
X163068000Y-125095000D02*
X175768000Y-125095000D01*
X175768000Y-125095000D02*
X175768000Y-122555000D01*
X175768000Y-122555000D02*
X163068000Y-122555000D01*
X160248000Y-125375000D02*
X161798000Y-125375000D01*
X163068000Y-125095000D02*
X163068000Y-122555000D01*
X161798000Y-122275000D02*
X160248000Y-122275000D01*
X160248000Y-122275000D02*
X160248000Y-125375000D01*
X131064000Y-76835000D02*
X153924000Y-76835000D01*
X153924000Y-76835000D02*
X153924000Y-74295000D01*
X153924000Y-74295000D02*
X131064000Y-74295000D01*
X128244000Y-77115000D02*
X129794000Y-77115000D01*
X131064000Y-76835000D02*
X131064000Y-74295000D01*
X129794000Y-74015000D02*
X128244000Y-74015000D01*
X128244000Y-74015000D02*
X128244000Y-77115000D01*
X157988000Y-76835000D02*
X175768000Y-76835000D01*
X175768000Y-76835000D02*
X175768000Y-74295000D01*
X175768000Y-74295000D02*
X157988000Y-74295000D01*
X155168000Y-77115000D02*
X156718000Y-77115000D01*
X157988000Y-76835000D02*
X157988000Y-74295000D01*
X156718000Y-74015000D02*
X155168000Y-74015000D01*
X155168000Y-74015000D02*
X155168000Y-77115000D01*
X127254000Y-123825000D02*
G75*
G03X127254000Y-123825000I-2286000J0D01*
G01*
X179324000Y-118745000D02*
G75*
G03X179324000Y-118745000I-2286000J0D01*
G01*
X128524000Y-75565000D02*
G75*
G03X128524000Y-75565000I-2286000J0D01*
G01*
X179324000Y-90805000D02*
G75*
G03X179324000Y-90805000I-2286000J0D01*
G01*
X163298000Y-90140000D02*
X163298000Y-83140000D01*
X163298000Y-83140000D02*
X165298000Y-83140000D01*
X165298000Y-83140000D02*
X165298000Y-90140000D01*
X165298000Y-90140000D02*
X163298000Y-90140000D01*
X167698000Y-90015000D02*
X167698000Y-83015000D01*
X167698000Y-83015000D02*
X169698000Y-83015000D01*
X169698000Y-83015000D02*
X169698000Y-90015000D01*
X169698000Y-90015000D02*
X167698000Y-90015000D01*
X135373000Y-121189000D02*
X135373000Y-116191000D01*
X135233000Y-121181000D02*
X135233000Y-116199000D01*
X135093000Y-121165000D02*
X135093000Y-118785000D01*
X135093000Y-118595000D02*
X135093000Y-116215000D01*
X134953000Y-121141000D02*
X134953000Y-119180000D01*
X134953000Y-118200000D02*
X134953000Y-116239000D01*
X134813000Y-121108000D02*
X134813000Y-119347000D01*
X134813000Y-118033000D02*
X134813000Y-116272000D01*
X134673000Y-121067000D02*
X134673000Y-119454000D01*
X134673000Y-117926000D02*
X134673000Y-116313000D01*
X134533000Y-121017000D02*
X134533000Y-119525000D01*
X134533000Y-117855000D02*
X134533000Y-116363000D01*
X134393000Y-120956000D02*
X134393000Y-119569000D01*
X134393000Y-117811000D02*
X134393000Y-116424000D01*
X134253000Y-120886000D02*
X134253000Y-119588000D01*
X134253000Y-117792000D02*
X134253000Y-116494000D01*
X134113000Y-120804000D02*
X134113000Y-119586000D01*
X134113000Y-117794000D02*
X134113000Y-116576000D01*
X133973000Y-120709000D02*
X133973000Y-119561000D01*
X133973000Y-117819000D02*
X133973000Y-116671000D01*
X133833000Y-120598000D02*
X133833000Y-119513000D01*
X133833000Y-117867000D02*
X133833000Y-116782000D01*
X133693000Y-120470000D02*
X133693000Y-119435000D01*
X133693000Y-117945000D02*
X133693000Y-116910000D01*
X133553000Y-120321000D02*
X133553000Y-119318000D01*
X133553000Y-118062000D02*
X133553000Y-117059000D01*
X133413000Y-120142000D02*
X133413000Y-119130000D01*
X133413000Y-118250000D02*
X133413000Y-117238000D01*
X133273000Y-119923000D02*
X133273000Y-117457000D01*
X133133000Y-119634000D02*
X133133000Y-117746000D01*
X132993000Y-119162000D02*
X132993000Y-118218000D01*
X135098000Y-118690000D02*
G75*
G03X135098000Y-118690000I-900000J0D01*
G01*
X137985500Y-118690000D02*
G75*
G03X137985500Y-118690000I-2537500J0D01*
G01*
X161098000Y-117390000D02*
X154098000Y-117390000D01*
X154098000Y-117390000D02*
X154098000Y-115390000D01*
X154098000Y-115390000D02*
X161098000Y-115390000D01*
X161098000Y-115390000D02*
X161098000Y-117390000D01*
X128873000Y-122790000D02*
X135873000Y-122790000D01*
X135873000Y-122790000D02*
X135873000Y-124790000D01*
X135873000Y-124790000D02*
X128873000Y-124790000D01*
X128873000Y-124790000D02*
X128873000Y-122790000D01*
X162448000Y-115290000D02*
X169448000Y-115290000D01*
X169448000Y-115290000D02*
X169448000Y-117290000D01*
X169448000Y-117290000D02*
X162448000Y-117290000D01*
X162448000Y-117290000D02*
X162448000Y-115290000D01*
X109780540Y-83914100D02*
X109780540Y-92614100D01*
X116185540Y-83914100D02*
X116185540Y-92614100D01*
X116185540Y-92614100D02*
X109780540Y-92614100D01*
X111010540Y-92614100D02*
X111010540Y-83914100D01*
X109780540Y-83914100D02*
X116185540Y-83914100D01*
X173398000Y-97165000D02*
X173398000Y-102165000D01*
X173398000Y-102165000D02*
X173398000Y-102265000D01*
X173398000Y-102265000D02*
X178498000Y-102265000D01*
X178498000Y-102265000D02*
X178498000Y-101665000D01*
X175998000Y-97165000D02*
X175998000Y-94665000D01*
X175998000Y-97165000D02*
X173398000Y-97165000D01*
X173398000Y-97165000D02*
X173398000Y-94665000D01*
X173398000Y-94665000D02*
X178498000Y-94665000D01*
X178498000Y-94665000D02*
X178498000Y-101565000D01*
X117214888Y-96975096D02*
G75*
G03X117230000Y-100000000I-2484888J-1524904D01*
G01*
X117230000Y-97000000D02*
X117230000Y-100000000D01*
X117247936Y-98500000D02*
G75*
G03X117247936Y-98500000I-2517936J0D01*
G01*
X117214888Y-104475096D02*
G75*
G03X117230000Y-107500000I-2484888J-1524904D01*
G01*
X117230000Y-104500000D02*
X117230000Y-107500000D01*
X117247936Y-106000000D02*
G75*
G03X117247936Y-106000000I-2517936J0D01*
G01*
X117214888Y-111975096D02*
G75*
G03X117230000Y-115000000I-2484888J-1524904D01*
G01*
X117230000Y-112000000D02*
X117230000Y-115000000D01*
X117247936Y-113500000D02*
G75*
G03X117247936Y-113500000I-2517936J0D01*
G01*
X117214888Y-119475096D02*
G75*
G03X117230000Y-122500000I-2484888J-1524904D01*
G01*
X117230000Y-119500000D02*
X117230000Y-122500000D01*
X117247936Y-121000000D02*
G75*
G03X117247936Y-121000000I-2517936J0D01*
G01*
X119363564Y-76915000D02*
G75*
G03X119363564Y-76915000I-2015564J0D01*
G01*
X115098000Y-80165000D02*
X119598000Y-80165000D01*
X113848000Y-76165000D02*
X113848000Y-77665000D01*
X119598000Y-73665000D02*
X115098000Y-73665000D01*
X120848000Y-77665000D02*
X120848000Y-76165000D01*
X167673000Y-111065000D02*
X167673000Y-110490000D01*
X157323000Y-111065000D02*
X157323000Y-110390000D01*
X157323000Y-100715000D02*
X157323000Y-101390000D01*
X167673000Y-100715000D02*
X167673000Y-101390000D01*
X167673000Y-111065000D02*
X166998000Y-111065000D01*
X167673000Y-100715000D02*
X166998000Y-100715000D01*
X157323000Y-100715000D02*
X157998000Y-100715000D01*
X157323000Y-111065000D02*
X157998000Y-111065000D01*
X167673000Y-110490000D02*
X168948000Y-110490000D01*
X125963000Y-94720000D02*
X131043000Y-94720000D01*
X131043000Y-94720000D02*
X131043000Y-97260000D01*
X131043000Y-97260000D02*
X125963000Y-97260000D01*
X125963000Y-97260000D02*
X125963000Y-94720000D01*
X125963000Y-95990000D02*
X124693000Y-95990000D01*
X131043000Y-95990000D02*
X132313000Y-95990000D01*
X131058000Y-100285000D02*
X125978000Y-100285000D01*
X125978000Y-100285000D02*
X125978000Y-97745000D01*
X125978000Y-97745000D02*
X131058000Y-97745000D01*
X131058000Y-97745000D02*
X131058000Y-100285000D01*
X131058000Y-99015000D02*
X132328000Y-99015000D01*
X125978000Y-99015000D02*
X124708000Y-99015000D01*
X131058000Y-103285000D02*
X125978000Y-103285000D01*
X125978000Y-103285000D02*
X125978000Y-100745000D01*
X125978000Y-100745000D02*
X131058000Y-100745000D01*
X131058000Y-100745000D02*
X131058000Y-103285000D01*
X131058000Y-102015000D02*
X132328000Y-102015000D01*
X125978000Y-102015000D02*
X124708000Y-102015000D01*
X125963000Y-103770000D02*
X131043000Y-103770000D01*
X131043000Y-103770000D02*
X131043000Y-106310000D01*
X131043000Y-106310000D02*
X125963000Y-106310000D01*
X125963000Y-106310000D02*
X125963000Y-103770000D01*
X125963000Y-105040000D02*
X124693000Y-105040000D01*
X131043000Y-105040000D02*
X132313000Y-105040000D01*
X142288000Y-106695000D02*
X147368000Y-106695000D01*
X147368000Y-106695000D02*
X147368000Y-109235000D01*
X147368000Y-109235000D02*
X142288000Y-109235000D01*
X142288000Y-109235000D02*
X142288000Y-106695000D01*
X142288000Y-107965000D02*
X141018000Y-107965000D01*
X147368000Y-107965000D02*
X148638000Y-107965000D01*
X142288000Y-103695000D02*
X147368000Y-103695000D01*
X147368000Y-103695000D02*
X147368000Y-106235000D01*
X147368000Y-106235000D02*
X142288000Y-106235000D01*
X142288000Y-106235000D02*
X142288000Y-103695000D01*
X142288000Y-104965000D02*
X141018000Y-104965000D01*
X147368000Y-104965000D02*
X148638000Y-104965000D01*
X142288000Y-100720000D02*
X147368000Y-100720000D01*
X147368000Y-100720000D02*
X147368000Y-103260000D01*
X147368000Y-103260000D02*
X142288000Y-103260000D01*
X142288000Y-103260000D02*
X142288000Y-100720000D01*
X142288000Y-101990000D02*
X141018000Y-101990000D01*
X147368000Y-101990000D02*
X148638000Y-101990000D01*
X142288000Y-97745000D02*
X147368000Y-97745000D01*
X147368000Y-97745000D02*
X147368000Y-100285000D01*
X147368000Y-100285000D02*
X142288000Y-100285000D01*
X142288000Y-100285000D02*
X142288000Y-97745000D01*
X142288000Y-99015000D02*
X141018000Y-99015000D01*
X147368000Y-99015000D02*
X148638000Y-99015000D01*
X142288000Y-94720000D02*
X147368000Y-94720000D01*
X147368000Y-94720000D02*
X147368000Y-97260000D01*
X147368000Y-97260000D02*
X142288000Y-97260000D01*
X142288000Y-97260000D02*
X142288000Y-94720000D01*
X142288000Y-95990000D02*
X141018000Y-95990000D01*
X147368000Y-95990000D02*
X148638000Y-95990000D01*
X127898000Y-121139000D02*
X127898000Y-116141000D01*
X127758000Y-121131000D02*
X127758000Y-116149000D01*
X127618000Y-121115000D02*
X127618000Y-118735000D01*
X127618000Y-118545000D02*
X127618000Y-116165000D01*
X127478000Y-121091000D02*
X127478000Y-119130000D01*
X127478000Y-118150000D02*
X127478000Y-116189000D01*
X127338000Y-121058000D02*
X127338000Y-119297000D01*
X127338000Y-117983000D02*
X127338000Y-116222000D01*
X127198000Y-121017000D02*
X127198000Y-119404000D01*
X127198000Y-117876000D02*
X127198000Y-116263000D01*
X127058000Y-120967000D02*
X127058000Y-119475000D01*
X127058000Y-117805000D02*
X127058000Y-116313000D01*
X126918000Y-120906000D02*
X126918000Y-119519000D01*
X126918000Y-117761000D02*
X126918000Y-116374000D01*
X126778000Y-120836000D02*
X126778000Y-119538000D01*
X126778000Y-117742000D02*
X126778000Y-116444000D01*
X126638000Y-120754000D02*
X126638000Y-119536000D01*
X126638000Y-117744000D02*
X126638000Y-116526000D01*
X126498000Y-120659000D02*
X126498000Y-119511000D01*
X126498000Y-117769000D02*
X126498000Y-116621000D01*
X126358000Y-120548000D02*
X126358000Y-119463000D01*
X126358000Y-117817000D02*
X126358000Y-116732000D01*
X126218000Y-120420000D02*
X126218000Y-119385000D01*
X126218000Y-117895000D02*
X126218000Y-116860000D01*
X126078000Y-120271000D02*
X126078000Y-119268000D01*
X126078000Y-118012000D02*
X126078000Y-117009000D01*
X125938000Y-120092000D02*
X125938000Y-119080000D01*
X125938000Y-118200000D02*
X125938000Y-117188000D01*
X125798000Y-119873000D02*
X125798000Y-117407000D01*
X125658000Y-119584000D02*
X125658000Y-117696000D01*
X125518000Y-119112000D02*
X125518000Y-118168000D01*
X127623000Y-118640000D02*
G75*
G03X127623000Y-118640000I-900000J0D01*
G01*
X130510500Y-118640000D02*
G75*
G03X130510500Y-118640000I-2537500J0D01*
G01*
X145523000Y-115465000D02*
X152523000Y-115465000D01*
X152523000Y-115465000D02*
X152523000Y-117465000D01*
X152523000Y-117465000D02*
X145523000Y-117465000D01*
X145523000Y-117465000D02*
X145523000Y-115465000D01*
X129597000Y-114871000D02*
X132645000Y-114871000D01*
X132645000Y-114871000D02*
X132645000Y-107759000D01*
X132645000Y-107759000D02*
X129597000Y-107759000D01*
X126549000Y-114871000D02*
X125787000Y-114871000D01*
X125787000Y-114871000D02*
X123501000Y-113347000D01*
X123501000Y-113347000D02*
X123501000Y-109283000D01*
X123501000Y-109283000D02*
X125787000Y-107759000D01*
X125787000Y-107759000D02*
X126549000Y-107759000D01*
D12*
G36*
X123726727Y-89172636D02*
X123698727Y-89510272D01*
X124036363Y-89482272D01*
X124374000Y-89454273D01*
X124374000Y-90105000D01*
X123104000Y-90105000D01*
X123104000Y-88835000D01*
X123754726Y-88835000D01*
X123726727Y-89172636D01*
X123726727Y-89172636D01*
G37*
X123726727Y-89172636D02*
X123698727Y-89510272D01*
X124036363Y-89482272D01*
X124374000Y-89454273D01*
X124374000Y-90105000D01*
X123104000Y-90105000D01*
X123104000Y-88835000D01*
X123754726Y-88835000D01*
X123726727Y-89172636D01*
G36*
X125072500Y-90105000D02*
X124430541Y-90105000D01*
X124449895Y-89803375D01*
X124469250Y-89501750D01*
X124770875Y-89482395D01*
X125072500Y-89463041D01*
X125072500Y-90105000D01*
X125072500Y-90105000D01*
G37*
X125072500Y-90105000D02*
X124430541Y-90105000D01*
X124449895Y-89803375D01*
X124469250Y-89501750D01*
X124770875Y-89482395D01*
X125072500Y-89463041D01*
X125072500Y-90105000D01*
G36*
X129136500Y-90105000D02*
X127866500Y-90105000D01*
X127866500Y-89454273D01*
X128204136Y-89482272D01*
X128541772Y-89510272D01*
X128513772Y-89172636D01*
X128485773Y-88835000D01*
X129136500Y-88835000D01*
X129136500Y-90105000D01*
X129136500Y-90105000D01*
G37*
X129136500Y-90105000D02*
X127866500Y-90105000D01*
X127866500Y-89454273D01*
X128204136Y-89482272D01*
X128541772Y-89510272D01*
X128513772Y-89172636D01*
X128485773Y-88835000D01*
X129136500Y-88835000D01*
X129136500Y-90105000D01*
G36*
X129771500Y-90105000D02*
X129200000Y-90105000D01*
X129200000Y-89470000D01*
X129771500Y-89470000D01*
X129771500Y-90105000D01*
X129771500Y-90105000D01*
G37*
X129771500Y-90105000D02*
X129200000Y-90105000D01*
X129200000Y-89470000D01*
X129771500Y-89470000D01*
X129771500Y-90105000D01*
G36*
X133200500Y-90105000D02*
X132573782Y-90105000D01*
X132573782Y-88835000D01*
X133200500Y-88835000D01*
X133200500Y-90105000D01*
X133200500Y-90105000D01*
G37*
X133200500Y-90105000D02*
X132573782Y-90105000D01*
X132573782Y-88835000D01*
X133200500Y-88835000D01*
X133200500Y-90105000D01*
G36*
X136566000Y-90105000D02*
X135924041Y-90105000D01*
X135943395Y-89803375D01*
X135962750Y-89501750D01*
X136264375Y-89482395D01*
X136566000Y-89463041D01*
X136566000Y-90105000D01*
X136566000Y-90105000D01*
G37*
X136566000Y-90105000D02*
X135924041Y-90105000D01*
X135943395Y-89803375D01*
X135962750Y-89501750D01*
X136264375Y-89482395D01*
X136566000Y-89463041D01*
X136566000Y-90105000D01*
G36*
X137264500Y-90105000D02*
X136622541Y-90105000D01*
X136641895Y-89803375D01*
X136661250Y-89501750D01*
X136962875Y-89482395D01*
X137264500Y-89463041D01*
X137264500Y-90105000D01*
X137264500Y-90105000D01*
G37*
X137264500Y-90105000D02*
X136622541Y-90105000D01*
X136641895Y-89803375D01*
X136661250Y-89501750D01*
X136962875Y-89482395D01*
X137264500Y-89463041D01*
X137264500Y-90105000D01*
G36*
X138598000Y-90105000D02*
X137328000Y-90105000D01*
X137328000Y-89454273D01*
X137665636Y-89482272D01*
X138003272Y-89510272D01*
X137975272Y-89172636D01*
X137947273Y-88835000D01*
X138598000Y-88835000D01*
X138598000Y-90105000D01*
X138598000Y-90105000D01*
G37*
X138598000Y-90105000D02*
X137328000Y-90105000D01*
X137328000Y-89454273D01*
X137665636Y-89482272D01*
X138003272Y-89510272D01*
X137975272Y-89172636D01*
X137947273Y-88835000D01*
X138598000Y-88835000D01*
X138598000Y-90105000D01*
G36*
X140630000Y-90105000D02*
X139988041Y-90105000D01*
X140007395Y-89803375D01*
X140026750Y-89501750D01*
X140328375Y-89482395D01*
X140630000Y-89463041D01*
X140630000Y-90105000D01*
X140630000Y-90105000D01*
G37*
X140630000Y-90105000D02*
X139988041Y-90105000D01*
X140007395Y-89803375D01*
X140026750Y-89501750D01*
X140328375Y-89482395D01*
X140630000Y-89463041D01*
X140630000Y-90105000D01*
G36*
X141328500Y-90105000D02*
X140686541Y-90105000D01*
X140705895Y-89803375D01*
X140725250Y-89501750D01*
X141026875Y-89482395D01*
X141328500Y-89463041D01*
X141328500Y-90105000D01*
X141328500Y-90105000D01*
G37*
X141328500Y-90105000D02*
X140686541Y-90105000D01*
X140705895Y-89803375D01*
X140725250Y-89501750D01*
X141026875Y-89482395D01*
X141328500Y-89463041D01*
X141328500Y-90105000D01*
G36*
X142662000Y-90105000D02*
X142011273Y-90105000D01*
X142039272Y-89767363D01*
X142067272Y-89429727D01*
X141729636Y-89457727D01*
X141392000Y-89485726D01*
X141392000Y-88835000D01*
X142662000Y-88835000D01*
X142662000Y-90105000D01*
X142662000Y-90105000D01*
G37*
X142662000Y-90105000D02*
X142011273Y-90105000D01*
X142039272Y-89767363D01*
X142067272Y-89429727D01*
X141729636Y-89457727D01*
X141392000Y-89485726D01*
X141392000Y-88835000D01*
X142662000Y-88835000D01*
X142662000Y-90105000D01*
G36*
X145392500Y-90105000D02*
X144122500Y-90105000D01*
X144122500Y-89454273D01*
X144460136Y-89482272D01*
X144797772Y-89510272D01*
X144769772Y-89172636D01*
X144741773Y-88835000D01*
X145392500Y-88835000D01*
X145392500Y-90105000D01*
X145392500Y-90105000D01*
G37*
X145392500Y-90105000D02*
X144122500Y-90105000D01*
X144122500Y-89454273D01*
X144460136Y-89482272D01*
X144797772Y-89510272D01*
X144769772Y-89172636D01*
X144741773Y-88835000D01*
X145392500Y-88835000D01*
X145392500Y-90105000D01*
G36*
X146027500Y-90105000D02*
X145456000Y-90105000D01*
X145456000Y-89470000D01*
X146027500Y-89470000D01*
X146027500Y-90105000D01*
X146027500Y-90105000D01*
G37*
X146027500Y-90105000D02*
X145456000Y-90105000D01*
X145456000Y-89470000D01*
X146027500Y-89470000D01*
X146027500Y-90105000D01*
G36*
X148114717Y-90105000D02*
X147488000Y-90105000D01*
X147488000Y-88835000D01*
X148114717Y-88835000D01*
X148114717Y-90105000D01*
X148114717Y-90105000D01*
G37*
X148114717Y-90105000D02*
X147488000Y-90105000D01*
X147488000Y-88835000D01*
X148114717Y-88835000D01*
X148114717Y-90105000D01*
G36*
X150790000Y-90105000D02*
X150163282Y-90105000D01*
X150163282Y-88835000D01*
X150790000Y-88835000D01*
X150790000Y-90105000D01*
X150790000Y-90105000D01*
G37*
X150790000Y-90105000D02*
X150163282Y-90105000D01*
X150163282Y-88835000D01*
X150790000Y-88835000D01*
X150790000Y-90105000D01*
G36*
X152822000Y-90105000D02*
X152180041Y-90105000D01*
X152199395Y-89803375D01*
X152218750Y-89501750D01*
X152520375Y-89482395D01*
X152822000Y-89463041D01*
X152822000Y-90105000D01*
X152822000Y-90105000D01*
G37*
X152822000Y-90105000D02*
X152180041Y-90105000D01*
X152199395Y-89803375D01*
X152218750Y-89501750D01*
X152520375Y-89482395D01*
X152822000Y-89463041D01*
X152822000Y-90105000D01*
G36*
X153520500Y-90105000D02*
X152878541Y-90105000D01*
X152897895Y-89803375D01*
X152917250Y-89501750D01*
X153218875Y-89482395D01*
X153520500Y-89463041D01*
X153520500Y-90105000D01*
X153520500Y-90105000D01*
G37*
X153520500Y-90105000D02*
X152878541Y-90105000D01*
X152897895Y-89803375D01*
X152917250Y-89501750D01*
X153218875Y-89482395D01*
X153520500Y-89463041D01*
X153520500Y-90105000D01*
G36*
X153885625Y-89482395D02*
X154187250Y-89501750D01*
X154225958Y-90105000D01*
X153584000Y-90105000D01*
X153584000Y-89463041D01*
X153885625Y-89482395D01*
X153885625Y-89482395D01*
G37*
X153885625Y-89482395D02*
X154187250Y-89501750D01*
X154225958Y-90105000D01*
X153584000Y-90105000D01*
X153584000Y-89463041D01*
X153885625Y-89482395D01*
G36*
X125739250Y-89438250D02*
X125136000Y-89476958D01*
X125136000Y-88835000D01*
X125777958Y-88835000D01*
X125739250Y-89438250D01*
X125739250Y-89438250D01*
G37*
X125739250Y-89438250D02*
X125136000Y-89476958D01*
X125136000Y-88835000D01*
X125777958Y-88835000D01*
X125739250Y-89438250D01*
G36*
X135899250Y-89438250D02*
X135296000Y-89476958D01*
X135296000Y-88835000D01*
X135937958Y-88835000D01*
X135899250Y-89438250D01*
X135899250Y-89438250D01*
G37*
X135899250Y-89438250D02*
X135296000Y-89476958D01*
X135296000Y-88835000D01*
X135937958Y-88835000D01*
X135899250Y-89438250D01*
G36*
X139963250Y-89438250D02*
X139360000Y-89476958D01*
X139360000Y-88835000D01*
X140001958Y-88835000D01*
X139963250Y-89438250D01*
X139963250Y-89438250D01*
G37*
X139963250Y-89438250D02*
X139360000Y-89476958D01*
X139360000Y-88835000D01*
X140001958Y-88835000D01*
X139963250Y-89438250D01*
G36*
X152155250Y-89438250D02*
X151552000Y-89476958D01*
X151552000Y-88835000D01*
X152193958Y-88835000D01*
X152155250Y-89438250D01*
X152155250Y-89438250D01*
G37*
X152155250Y-89438250D02*
X151552000Y-89476958D01*
X151552000Y-88835000D01*
X152193958Y-88835000D01*
X152155250Y-89438250D01*
G36*
X154854000Y-89470000D02*
X154578833Y-89470000D01*
X154400642Y-89460993D01*
X154281037Y-89438382D01*
X154261333Y-89427666D01*
X154235305Y-89343096D01*
X154220382Y-89181205D01*
X154219000Y-89110166D01*
X154219000Y-88835000D01*
X154854000Y-88835000D01*
X154854000Y-89470000D01*
X154854000Y-89470000D01*
G37*
X154854000Y-89470000D02*
X154578833Y-89470000D01*
X154400642Y-89460993D01*
X154281037Y-89438382D01*
X154261333Y-89427666D01*
X154235305Y-89343096D01*
X154220382Y-89181205D01*
X154219000Y-89110166D01*
X154219000Y-88835000D01*
X154854000Y-88835000D01*
X154854000Y-89470000D01*
G36*
X123707250Y-88739750D02*
X123104000Y-88778458D01*
X123104000Y-88136500D01*
X123745958Y-88136500D01*
X123707250Y-88739750D01*
X123707250Y-88739750D01*
G37*
X123707250Y-88739750D02*
X123104000Y-88778458D01*
X123104000Y-88136500D01*
X123745958Y-88136500D01*
X123707250Y-88739750D01*
G36*
X126406000Y-88771500D02*
X126130833Y-88771500D01*
X125952642Y-88762493D01*
X125833037Y-88739882D01*
X125813333Y-88729166D01*
X125787305Y-88644596D01*
X125772382Y-88482705D01*
X125771000Y-88411666D01*
X125771000Y-88136500D01*
X126406000Y-88136500D01*
X126406000Y-88771500D01*
X126406000Y-88771500D01*
G37*
X126406000Y-88771500D02*
X126130833Y-88771500D01*
X125952642Y-88762493D01*
X125833037Y-88739882D01*
X125813333Y-88729166D01*
X125787305Y-88644596D01*
X125772382Y-88482705D01*
X125771000Y-88411666D01*
X125771000Y-88136500D01*
X126406000Y-88136500D01*
X126406000Y-88771500D01*
G36*
X129136500Y-88771500D02*
X128861333Y-88771500D01*
X128683142Y-88762493D01*
X128563537Y-88739882D01*
X128543833Y-88729166D01*
X128517805Y-88644596D01*
X128502882Y-88482705D01*
X128501500Y-88411666D01*
X128501500Y-88136500D01*
X129136500Y-88136500D01*
X129136500Y-88771500D01*
X129136500Y-88771500D01*
G37*
X129136500Y-88771500D02*
X128861333Y-88771500D01*
X128683142Y-88762493D01*
X128563537Y-88739882D01*
X128543833Y-88729166D01*
X128517805Y-88644596D01*
X128502882Y-88482705D01*
X128501500Y-88411666D01*
X128501500Y-88136500D01*
X129136500Y-88136500D01*
X129136500Y-88771500D01*
G36*
X133200500Y-88771500D02*
X132925333Y-88771500D01*
X132747142Y-88762493D01*
X132627537Y-88739882D01*
X132607833Y-88729166D01*
X132581805Y-88644596D01*
X132566882Y-88482705D01*
X132565500Y-88411666D01*
X132565500Y-88136500D01*
X133200500Y-88136500D01*
X133200500Y-88771500D01*
X133200500Y-88771500D01*
G37*
X133200500Y-88771500D02*
X132925333Y-88771500D01*
X132747142Y-88762493D01*
X132627537Y-88739882D01*
X132607833Y-88729166D01*
X132581805Y-88644596D01*
X132566882Y-88482705D01*
X132565500Y-88411666D01*
X132565500Y-88136500D01*
X133200500Y-88136500D01*
X133200500Y-88771500D01*
G36*
X135899250Y-88739750D02*
X135296000Y-88778458D01*
X135296000Y-88136500D01*
X135937958Y-88136500D01*
X135899250Y-88739750D01*
X135899250Y-88739750D01*
G37*
X135899250Y-88739750D02*
X135296000Y-88778458D01*
X135296000Y-88136500D01*
X135937958Y-88136500D01*
X135899250Y-88739750D01*
G36*
X138598000Y-88771500D02*
X138322833Y-88771500D01*
X138144642Y-88762493D01*
X138025037Y-88739882D01*
X138005333Y-88729166D01*
X137979305Y-88644596D01*
X137964382Y-88482705D01*
X137963000Y-88411666D01*
X137963000Y-88136500D01*
X138598000Y-88136500D01*
X138598000Y-88771500D01*
X138598000Y-88771500D01*
G37*
X138598000Y-88771500D02*
X138322833Y-88771500D01*
X138144642Y-88762493D01*
X138025037Y-88739882D01*
X138005333Y-88729166D01*
X137979305Y-88644596D01*
X137964382Y-88482705D01*
X137963000Y-88411666D01*
X137963000Y-88136500D01*
X138598000Y-88136500D01*
X138598000Y-88771500D01*
G36*
X139963250Y-88739750D02*
X139360000Y-88778458D01*
X139360000Y-88136500D01*
X140001958Y-88136500D01*
X139963250Y-88739750D01*
X139963250Y-88739750D01*
G37*
X139963250Y-88739750D02*
X139360000Y-88778458D01*
X139360000Y-88136500D01*
X140001958Y-88136500D01*
X139963250Y-88739750D01*
G36*
X142662000Y-88771500D02*
X142386833Y-88771500D01*
X142208642Y-88762493D01*
X142089037Y-88739882D01*
X142069333Y-88729166D01*
X142043305Y-88644596D01*
X142028382Y-88482705D01*
X142027000Y-88411666D01*
X142027000Y-88136500D01*
X142662000Y-88136500D01*
X142662000Y-88771500D01*
X142662000Y-88771500D01*
G37*
X142662000Y-88771500D02*
X142386833Y-88771500D01*
X142208642Y-88762493D01*
X142089037Y-88739882D01*
X142069333Y-88729166D01*
X142043305Y-88644596D01*
X142028382Y-88482705D01*
X142027000Y-88411666D01*
X142027000Y-88136500D01*
X142662000Y-88136500D01*
X142662000Y-88771500D01*
G36*
X145392500Y-88771500D02*
X145117333Y-88771500D01*
X144939142Y-88762493D01*
X144819537Y-88739882D01*
X144799833Y-88729166D01*
X144773805Y-88644596D01*
X144758882Y-88482705D01*
X144757500Y-88411666D01*
X144757500Y-88136500D01*
X145392500Y-88136500D01*
X145392500Y-88771500D01*
X145392500Y-88771500D01*
G37*
X145392500Y-88771500D02*
X145117333Y-88771500D01*
X144939142Y-88762493D01*
X144819537Y-88739882D01*
X144799833Y-88729166D01*
X144773805Y-88644596D01*
X144758882Y-88482705D01*
X144757500Y-88411666D01*
X144757500Y-88136500D01*
X145392500Y-88136500D01*
X145392500Y-88771500D01*
G36*
X148091250Y-88739750D02*
X147488000Y-88778458D01*
X147488000Y-88136500D01*
X148129958Y-88136500D01*
X148091250Y-88739750D01*
X148091250Y-88739750D01*
G37*
X148091250Y-88739750D02*
X147488000Y-88778458D01*
X147488000Y-88136500D01*
X148129958Y-88136500D01*
X148091250Y-88739750D01*
G36*
X150790000Y-88771500D02*
X150514833Y-88771500D01*
X150336642Y-88762493D01*
X150217037Y-88739882D01*
X150197333Y-88729166D01*
X150171305Y-88644596D01*
X150156382Y-88482705D01*
X150155000Y-88411666D01*
X150155000Y-88136500D01*
X150790000Y-88136500D01*
X150790000Y-88771500D01*
X150790000Y-88771500D01*
G37*
X150790000Y-88771500D02*
X150514833Y-88771500D01*
X150336642Y-88762493D01*
X150217037Y-88739882D01*
X150197333Y-88729166D01*
X150171305Y-88644596D01*
X150156382Y-88482705D01*
X150155000Y-88411666D01*
X150155000Y-88136500D01*
X150790000Y-88136500D01*
X150790000Y-88771500D01*
G36*
X152155250Y-88739750D02*
X151552000Y-88778458D01*
X151552000Y-88136500D01*
X152193958Y-88136500D01*
X152155250Y-88739750D01*
X152155250Y-88739750D01*
G37*
X152155250Y-88739750D02*
X151552000Y-88778458D01*
X151552000Y-88136500D01*
X152193958Y-88136500D01*
X152155250Y-88739750D01*
G36*
X154854000Y-88771500D02*
X154578833Y-88771500D01*
X154400642Y-88762493D01*
X154281037Y-88739882D01*
X154261333Y-88729166D01*
X154235305Y-88644596D01*
X154220382Y-88482705D01*
X154219000Y-88411666D01*
X154219000Y-88136500D01*
X154854000Y-88136500D01*
X154854000Y-88771500D01*
X154854000Y-88771500D01*
G37*
X154854000Y-88771500D02*
X154578833Y-88771500D01*
X154400642Y-88762493D01*
X154281037Y-88739882D01*
X154261333Y-88729166D01*
X154235305Y-88644596D01*
X154220382Y-88482705D01*
X154219000Y-88411666D01*
X154219000Y-88136500D01*
X154854000Y-88136500D01*
X154854000Y-88771500D01*
G36*
X123730717Y-88073000D02*
X123104000Y-88073000D01*
X123104000Y-86803000D01*
X123730717Y-86803000D01*
X123730717Y-88073000D01*
X123730717Y-88073000D01*
G37*
X123730717Y-88073000D02*
X123104000Y-88073000D01*
X123104000Y-86803000D01*
X123730717Y-86803000D01*
X123730717Y-88073000D01*
G36*
X126406000Y-88073000D02*
X125779282Y-88073000D01*
X125779282Y-86803000D01*
X126406000Y-86803000D01*
X126406000Y-88073000D01*
X126406000Y-88073000D01*
G37*
X126406000Y-88073000D02*
X125779282Y-88073000D01*
X125779282Y-86803000D01*
X126406000Y-86803000D01*
X126406000Y-88073000D01*
G36*
X129136500Y-88073000D02*
X128509782Y-88073000D01*
X128509782Y-86803000D01*
X129136500Y-86803000D01*
X129136500Y-88073000D01*
X129136500Y-88073000D01*
G37*
X129136500Y-88073000D02*
X128509782Y-88073000D01*
X128509782Y-86803000D01*
X129136500Y-86803000D01*
X129136500Y-88073000D01*
G36*
X132502000Y-88073000D02*
X131860041Y-88073000D01*
X131879395Y-87771375D01*
X131898750Y-87469750D01*
X132200375Y-87450395D01*
X132502000Y-87431041D01*
X132502000Y-88073000D01*
X132502000Y-88073000D01*
G37*
X132502000Y-88073000D02*
X131860041Y-88073000D01*
X131879395Y-87771375D01*
X131898750Y-87469750D01*
X132200375Y-87450395D01*
X132502000Y-87431041D01*
X132502000Y-88073000D01*
G36*
X133565625Y-87450395D02*
X133867250Y-87469750D01*
X133905958Y-88073000D01*
X133264000Y-88073000D01*
X133264000Y-87431041D01*
X133565625Y-87450395D01*
X133565625Y-87450395D01*
G37*
X133565625Y-87450395D02*
X133867250Y-87469750D01*
X133905958Y-88073000D01*
X133264000Y-88073000D01*
X133264000Y-87431041D01*
X133565625Y-87450395D01*
G36*
X135597625Y-87450395D02*
X135899250Y-87469750D01*
X135937958Y-88073000D01*
X135296000Y-88073000D01*
X135296000Y-87431041D01*
X135597625Y-87450395D01*
X135597625Y-87450395D01*
G37*
X135597625Y-87450395D02*
X135899250Y-87469750D01*
X135937958Y-88073000D01*
X135296000Y-88073000D01*
X135296000Y-87431041D01*
X135597625Y-87450395D01*
G36*
X138598000Y-88073000D02*
X137328000Y-88073000D01*
X137328000Y-87422273D01*
X137665636Y-87450272D01*
X138003272Y-87478272D01*
X137975272Y-87140636D01*
X137947273Y-86803000D01*
X138598000Y-86803000D01*
X138598000Y-88073000D01*
X138598000Y-88073000D01*
G37*
X138598000Y-88073000D02*
X137328000Y-88073000D01*
X137328000Y-87422273D01*
X137665636Y-87450272D01*
X138003272Y-87478272D01*
X137975272Y-87140636D01*
X137947273Y-86803000D01*
X138598000Y-86803000D01*
X138598000Y-88073000D01*
G36*
X139986717Y-88073000D02*
X139360000Y-88073000D01*
X139360000Y-86803000D01*
X139986717Y-86803000D01*
X139986717Y-88073000D01*
X139986717Y-88073000D01*
G37*
X139986717Y-88073000D02*
X139360000Y-88073000D01*
X139360000Y-86803000D01*
X139986717Y-86803000D01*
X139986717Y-88073000D01*
G36*
X142662000Y-88073000D02*
X142035282Y-88073000D01*
X142035282Y-86803000D01*
X142662000Y-86803000D01*
X142662000Y-88073000D01*
X142662000Y-88073000D01*
G37*
X142662000Y-88073000D02*
X142035282Y-88073000D01*
X142035282Y-86803000D01*
X142662000Y-86803000D01*
X142662000Y-88073000D01*
G36*
X145392500Y-88073000D02*
X144741773Y-88073000D01*
X144769772Y-87735363D01*
X144797772Y-87397727D01*
X144460136Y-87425727D01*
X144122500Y-87453726D01*
X144122500Y-86803000D01*
X145392500Y-86803000D01*
X145392500Y-88073000D01*
X145392500Y-88073000D01*
G37*
X145392500Y-88073000D02*
X144741773Y-88073000D01*
X144769772Y-87735363D01*
X144797772Y-87397727D01*
X144460136Y-87425727D01*
X144122500Y-87453726D01*
X144122500Y-86803000D01*
X145392500Y-86803000D01*
X145392500Y-88073000D01*
G36*
X148110727Y-87140636D02*
X148082727Y-87478272D01*
X148420363Y-87450272D01*
X148758000Y-87422273D01*
X148758000Y-88073000D01*
X147488000Y-88073000D01*
X147488000Y-86803000D01*
X148138726Y-86803000D01*
X148110727Y-87140636D01*
X148110727Y-87140636D01*
G37*
X148110727Y-87140636D02*
X148082727Y-87478272D01*
X148420363Y-87450272D01*
X148758000Y-87422273D01*
X148758000Y-88073000D01*
X147488000Y-88073000D01*
X147488000Y-86803000D01*
X148138726Y-86803000D01*
X148110727Y-87140636D01*
G36*
X150790000Y-88073000D02*
X150148041Y-88073000D01*
X150167395Y-87771375D01*
X150186750Y-87469750D01*
X150488375Y-87450395D01*
X150790000Y-87431041D01*
X150790000Y-88073000D01*
X150790000Y-88073000D01*
G37*
X150790000Y-88073000D02*
X150148041Y-88073000D01*
X150167395Y-87771375D01*
X150186750Y-87469750D01*
X150488375Y-87450395D01*
X150790000Y-87431041D01*
X150790000Y-88073000D01*
G36*
X151853625Y-87450395D02*
X152155250Y-87469750D01*
X152193958Y-88073000D01*
X151552000Y-88073000D01*
X151552000Y-87431041D01*
X151853625Y-87450395D01*
X151853625Y-87450395D01*
G37*
X151853625Y-87450395D02*
X152155250Y-87469750D01*
X152193958Y-88073000D01*
X151552000Y-88073000D01*
X151552000Y-87431041D01*
X151853625Y-87450395D01*
G36*
X154854000Y-88073000D02*
X154212041Y-88073000D01*
X154231395Y-87771375D01*
X154250750Y-87469750D01*
X154552375Y-87450395D01*
X154854000Y-87431041D01*
X154854000Y-88073000D01*
X154854000Y-88073000D01*
G37*
X154854000Y-88073000D02*
X154212041Y-88073000D01*
X154231395Y-87771375D01*
X154250750Y-87469750D01*
X154552375Y-87450395D01*
X154854000Y-87431041D01*
X154854000Y-88073000D01*
G36*
X131835250Y-87406250D02*
X131232000Y-87444958D01*
X131232000Y-86803000D01*
X131873958Y-86803000D01*
X131835250Y-87406250D01*
X131835250Y-87406250D01*
G37*
X131835250Y-87406250D02*
X131232000Y-87444958D01*
X131232000Y-86803000D01*
X131873958Y-86803000D01*
X131835250Y-87406250D01*
G36*
X134534000Y-87438000D02*
X134258833Y-87438000D01*
X134080642Y-87428993D01*
X133961037Y-87406382D01*
X133941333Y-87395666D01*
X133915305Y-87311096D01*
X133900382Y-87149205D01*
X133899000Y-87078166D01*
X133899000Y-86803000D01*
X134534000Y-86803000D01*
X134534000Y-87438000D01*
X134534000Y-87438000D01*
G37*
X134534000Y-87438000D02*
X134258833Y-87438000D01*
X134080642Y-87428993D01*
X133961037Y-87406382D01*
X133941333Y-87395666D01*
X133915305Y-87311096D01*
X133900382Y-87149205D01*
X133899000Y-87078166D01*
X133899000Y-86803000D01*
X134534000Y-86803000D01*
X134534000Y-87438000D01*
G36*
X136566000Y-87438000D02*
X136290833Y-87438000D01*
X136112642Y-87428993D01*
X135993037Y-87406382D01*
X135973333Y-87395666D01*
X135947305Y-87311096D01*
X135932382Y-87149205D01*
X135931000Y-87078166D01*
X135931000Y-86803000D01*
X136566000Y-86803000D01*
X136566000Y-87438000D01*
X136566000Y-87438000D01*
G37*
X136566000Y-87438000D02*
X136290833Y-87438000D01*
X136112642Y-87428993D01*
X135993037Y-87406382D01*
X135973333Y-87395666D01*
X135947305Y-87311096D01*
X135932382Y-87149205D01*
X135931000Y-87078166D01*
X135931000Y-86803000D01*
X136566000Y-86803000D01*
X136566000Y-87438000D01*
G36*
X137264500Y-87438000D02*
X136989333Y-87438000D01*
X136811142Y-87428993D01*
X136691537Y-87406382D01*
X136671833Y-87395666D01*
X136645805Y-87311096D01*
X136630882Y-87149205D01*
X136629500Y-87078166D01*
X136629500Y-86803000D01*
X137264500Y-86803000D01*
X137264500Y-87438000D01*
X137264500Y-87438000D01*
G37*
X137264500Y-87438000D02*
X136989333Y-87438000D01*
X136811142Y-87428993D01*
X136691537Y-87406382D01*
X136671833Y-87395666D01*
X136645805Y-87311096D01*
X136630882Y-87149205D01*
X136629500Y-87078166D01*
X136629500Y-86803000D01*
X137264500Y-86803000D01*
X137264500Y-87438000D01*
G36*
X149456500Y-87438000D02*
X149181333Y-87438000D01*
X149003142Y-87428993D01*
X148883537Y-87406382D01*
X148863833Y-87395666D01*
X148837805Y-87311096D01*
X148822882Y-87149205D01*
X148821500Y-87078166D01*
X148821500Y-86803000D01*
X149456500Y-86803000D01*
X149456500Y-87438000D01*
X149456500Y-87438000D01*
G37*
X149456500Y-87438000D02*
X149181333Y-87438000D01*
X149003142Y-87428993D01*
X148883537Y-87406382D01*
X148863833Y-87395666D01*
X148837805Y-87311096D01*
X148822882Y-87149205D01*
X148821500Y-87078166D01*
X148821500Y-86803000D01*
X149456500Y-86803000D01*
X149456500Y-87438000D01*
G36*
X150123250Y-87406250D02*
X149520000Y-87444958D01*
X149520000Y-86803000D01*
X150161958Y-86803000D01*
X150123250Y-87406250D01*
X150123250Y-87406250D01*
G37*
X150123250Y-87406250D02*
X149520000Y-87444958D01*
X149520000Y-86803000D01*
X150161958Y-86803000D01*
X150123250Y-87406250D01*
G36*
X152822000Y-87438000D02*
X152546833Y-87438000D01*
X152368642Y-87428993D01*
X152249037Y-87406382D01*
X152229333Y-87395666D01*
X152203305Y-87311096D01*
X152188382Y-87149205D01*
X152187000Y-87078166D01*
X152187000Y-86803000D01*
X152822000Y-86803000D01*
X152822000Y-87438000D01*
X152822000Y-87438000D01*
G37*
X152822000Y-87438000D02*
X152546833Y-87438000D01*
X152368642Y-87428993D01*
X152249037Y-87406382D01*
X152229333Y-87395666D01*
X152203305Y-87311096D01*
X152188382Y-87149205D01*
X152187000Y-87078166D01*
X152187000Y-86803000D01*
X152822000Y-86803000D01*
X152822000Y-87438000D01*
G36*
X153520500Y-87438000D02*
X153245333Y-87438000D01*
X153067142Y-87428993D01*
X152947537Y-87406382D01*
X152927833Y-87395666D01*
X152901805Y-87311096D01*
X152886882Y-87149205D01*
X152885500Y-87078166D01*
X152885500Y-86803000D01*
X153520500Y-86803000D01*
X153520500Y-87438000D01*
X153520500Y-87438000D01*
G37*
X153520500Y-87438000D02*
X153245333Y-87438000D01*
X153067142Y-87428993D01*
X152947537Y-87406382D01*
X152927833Y-87395666D01*
X152901805Y-87311096D01*
X152886882Y-87149205D01*
X152885500Y-87078166D01*
X152885500Y-86803000D01*
X153520500Y-86803000D01*
X153520500Y-87438000D01*
G36*
X154187250Y-87406250D02*
X153584000Y-87444958D01*
X153584000Y-86803000D01*
X154225958Y-86803000D01*
X154187250Y-87406250D01*
X154187250Y-87406250D01*
G37*
X154187250Y-87406250D02*
X153584000Y-87444958D01*
X153584000Y-86803000D01*
X154225958Y-86803000D01*
X154187250Y-87406250D01*
G36*
X124374000Y-86120226D02*
X124036363Y-86092227D01*
X123698727Y-86064227D01*
X123726727Y-86401863D01*
X123754726Y-86739500D01*
X123104000Y-86739500D01*
X123104000Y-85469500D01*
X124374000Y-85469500D01*
X124374000Y-86120226D01*
X124374000Y-86120226D01*
G37*
X124374000Y-86120226D02*
X124036363Y-86092227D01*
X123698727Y-86064227D01*
X123726727Y-86401863D01*
X123754726Y-86739500D01*
X123104000Y-86739500D01*
X123104000Y-85469500D01*
X124374000Y-85469500D01*
X124374000Y-86120226D01*
G36*
X125437625Y-86116895D02*
X125739250Y-86136250D01*
X125777958Y-86739500D01*
X125136000Y-86739500D01*
X125136000Y-86097541D01*
X125437625Y-86116895D01*
X125437625Y-86116895D01*
G37*
X125437625Y-86116895D02*
X125739250Y-86136250D01*
X125777958Y-86739500D01*
X125136000Y-86739500D01*
X125136000Y-86097541D01*
X125437625Y-86116895D01*
G36*
X129136500Y-86739500D02*
X128485773Y-86739500D01*
X128513772Y-86401863D01*
X128541772Y-86064227D01*
X128204136Y-86092227D01*
X127866500Y-86120226D01*
X127866500Y-85469500D01*
X129136500Y-85469500D01*
X129136500Y-86739500D01*
X129136500Y-86739500D01*
G37*
X129136500Y-86739500D02*
X128485773Y-86739500D01*
X128513772Y-86401863D01*
X128541772Y-86064227D01*
X128204136Y-86092227D01*
X127866500Y-86120226D01*
X127866500Y-85469500D01*
X129136500Y-85469500D01*
X129136500Y-86739500D01*
G36*
X131858717Y-86739500D02*
X131232000Y-86739500D01*
X131232000Y-85469500D01*
X131858717Y-85469500D01*
X131858717Y-86739500D01*
X131858717Y-86739500D01*
G37*
X131858717Y-86739500D02*
X131232000Y-86739500D01*
X131232000Y-85469500D01*
X131858717Y-85469500D01*
X131858717Y-86739500D01*
G36*
X134534000Y-86739500D02*
X133907282Y-86739500D01*
X133907282Y-85469500D01*
X134534000Y-85469500D01*
X134534000Y-86739500D01*
X134534000Y-86739500D01*
G37*
X134534000Y-86739500D02*
X133907282Y-86739500D01*
X133907282Y-85469500D01*
X134534000Y-85469500D01*
X134534000Y-86739500D01*
G36*
X138598000Y-86739500D02*
X137971282Y-86739500D01*
X137971282Y-85469500D01*
X138598000Y-85469500D01*
X138598000Y-86739500D01*
X138598000Y-86739500D01*
G37*
X138598000Y-86739500D02*
X137971282Y-86739500D01*
X137971282Y-85469500D01*
X138598000Y-85469500D01*
X138598000Y-86739500D01*
G36*
X125072500Y-86104500D02*
X124797333Y-86104500D01*
X124619142Y-86095493D01*
X124499537Y-86072882D01*
X124479833Y-86062166D01*
X124453805Y-85977596D01*
X124438882Y-85815705D01*
X124437500Y-85744666D01*
X124437500Y-85469500D01*
X125072500Y-85469500D01*
X125072500Y-86104500D01*
X125072500Y-86104500D01*
G37*
X125072500Y-86104500D02*
X124797333Y-86104500D01*
X124619142Y-86095493D01*
X124499537Y-86072882D01*
X124479833Y-86062166D01*
X124453805Y-85977596D01*
X124438882Y-85815705D01*
X124437500Y-85744666D01*
X124437500Y-85469500D01*
X125072500Y-85469500D01*
X125072500Y-86104500D01*
G36*
X129771500Y-86104500D02*
X129200000Y-86104500D01*
X129200000Y-85469500D01*
X129771500Y-85469500D01*
X129771500Y-86104500D01*
X129771500Y-86104500D01*
G37*
X129771500Y-86104500D02*
X129200000Y-86104500D01*
X129200000Y-85469500D01*
X129771500Y-85469500D01*
X129771500Y-86104500D01*
G36*
X145392500Y-86104500D02*
X145117333Y-86104500D01*
X144939142Y-86095493D01*
X144819537Y-86072882D01*
X144799833Y-86062166D01*
X144773805Y-85977596D01*
X144758882Y-85815705D01*
X144757500Y-85744666D01*
X144757500Y-85469500D01*
X145392500Y-85469500D01*
X145392500Y-86104500D01*
X145392500Y-86104500D01*
G37*
X145392500Y-86104500D02*
X145117333Y-86104500D01*
X144939142Y-86095493D01*
X144819537Y-86072882D01*
X144799833Y-86062166D01*
X144773805Y-85977596D01*
X144758882Y-85815705D01*
X144757500Y-85744666D01*
X144757500Y-85469500D01*
X145392500Y-85469500D01*
X145392500Y-86104500D01*
D11*
X166146809Y-91141190D02*
X166146809Y-91617381D01*
X165813476Y-90617381D02*
X166146809Y-91141190D01*
X166480143Y-90617381D01*
X167337286Y-91617381D02*
X166765857Y-91617381D01*
X167051571Y-91617381D02*
X167051571Y-90617381D01*
X166956333Y-90760238D01*
X166861095Y-90855476D01*
X166765857Y-90903095D01*
X162405143Y-86806666D02*
X162452762Y-86854285D01*
X162500381Y-86997142D01*
X162500381Y-87092380D01*
X162452762Y-87235238D01*
X162357524Y-87330476D01*
X162262286Y-87378095D01*
X162071810Y-87425714D01*
X161928952Y-87425714D01*
X161738476Y-87378095D01*
X161643238Y-87330476D01*
X161548000Y-87235238D01*
X161500381Y-87092380D01*
X161500381Y-86997142D01*
X161548000Y-86854285D01*
X161595619Y-86806666D01*
X162500381Y-85854285D02*
X162500381Y-86425714D01*
X162500381Y-86140000D02*
X161500381Y-86140000D01*
X161643238Y-86235238D01*
X161738476Y-86330476D01*
X161786095Y-86425714D01*
X166805143Y-86681666D02*
X166852762Y-86729285D01*
X166900381Y-86872142D01*
X166900381Y-86967380D01*
X166852762Y-87110238D01*
X166757524Y-87205476D01*
X166662286Y-87253095D01*
X166471810Y-87300714D01*
X166328952Y-87300714D01*
X166138476Y-87253095D01*
X166043238Y-87205476D01*
X165948000Y-87110238D01*
X165900381Y-86967380D01*
X165900381Y-86872142D01*
X165948000Y-86729285D01*
X165995619Y-86681666D01*
X165995619Y-86300714D02*
X165948000Y-86253095D01*
X165900381Y-86157857D01*
X165900381Y-85919761D01*
X165948000Y-85824523D01*
X165995619Y-85776904D01*
X166090857Y-85729285D01*
X166186095Y-85729285D01*
X166328952Y-85776904D01*
X166900381Y-86348333D01*
X166900381Y-85729285D01*
X132268934Y-116816143D02*
X132221315Y-116863762D01*
X132078458Y-116911381D01*
X131983220Y-116911381D01*
X131840362Y-116863762D01*
X131745124Y-116768524D01*
X131697505Y-116673286D01*
X131649886Y-116482810D01*
X131649886Y-116339952D01*
X131697505Y-116149476D01*
X131745124Y-116054238D01*
X131840362Y-115959000D01*
X131983220Y-115911381D01*
X132078458Y-115911381D01*
X132221315Y-115959000D01*
X132268934Y-116006619D01*
X132602267Y-115911381D02*
X133221315Y-115911381D01*
X132887981Y-116292333D01*
X133030839Y-116292333D01*
X133126077Y-116339952D01*
X133173696Y-116387571D01*
X133221315Y-116482810D01*
X133221315Y-116720905D01*
X133173696Y-116816143D01*
X133126077Y-116863762D01*
X133030839Y-116911381D01*
X132745124Y-116911381D01*
X132649886Y-116863762D01*
X132602267Y-116816143D01*
X156906334Y-114747143D02*
X156858715Y-114794762D01*
X156715858Y-114842381D01*
X156620620Y-114842381D01*
X156477762Y-114794762D01*
X156382524Y-114699524D01*
X156334905Y-114604286D01*
X156287286Y-114413810D01*
X156287286Y-114270952D01*
X156334905Y-114080476D01*
X156382524Y-113985238D01*
X156477762Y-113890000D01*
X156620620Y-113842381D01*
X156715858Y-113842381D01*
X156858715Y-113890000D01*
X156906334Y-113937619D01*
X157763477Y-114175714D02*
X157763477Y-114842381D01*
X157525381Y-113794762D02*
X157287286Y-114509048D01*
X157906334Y-114509048D01*
X132014934Y-122251743D02*
X131967315Y-122299362D01*
X131824458Y-122346981D01*
X131729220Y-122346981D01*
X131586362Y-122299362D01*
X131491124Y-122204124D01*
X131443505Y-122108886D01*
X131395886Y-121918410D01*
X131395886Y-121775552D01*
X131443505Y-121585076D01*
X131491124Y-121489838D01*
X131586362Y-121394600D01*
X131729220Y-121346981D01*
X131824458Y-121346981D01*
X131967315Y-121394600D01*
X132014934Y-121442219D01*
X132919696Y-121346981D02*
X132443505Y-121346981D01*
X132395886Y-121823171D01*
X132443505Y-121775552D01*
X132538743Y-121727933D01*
X132776839Y-121727933D01*
X132872077Y-121775552D01*
X132919696Y-121823171D01*
X132967315Y-121918410D01*
X132967315Y-122156505D01*
X132919696Y-122251743D01*
X132872077Y-122299362D01*
X132776839Y-122346981D01*
X132538743Y-122346981D01*
X132443505Y-122299362D01*
X132395886Y-122251743D01*
X165806334Y-114622143D02*
X165758715Y-114669762D01*
X165615858Y-114717381D01*
X165520620Y-114717381D01*
X165377762Y-114669762D01*
X165282524Y-114574524D01*
X165234905Y-114479286D01*
X165187286Y-114288810D01*
X165187286Y-114145952D01*
X165234905Y-113955476D01*
X165282524Y-113860238D01*
X165377762Y-113765000D01*
X165520620Y-113717381D01*
X165615858Y-113717381D01*
X165758715Y-113765000D01*
X165806334Y-113812619D01*
X166663477Y-113717381D02*
X166473000Y-113717381D01*
X166377762Y-113765000D01*
X166330143Y-113812619D01*
X166234905Y-113955476D01*
X166187286Y-114145952D01*
X166187286Y-114526905D01*
X166234905Y-114622143D01*
X166282524Y-114669762D01*
X166377762Y-114717381D01*
X166568239Y-114717381D01*
X166663477Y-114669762D01*
X166711096Y-114622143D01*
X166758715Y-114526905D01*
X166758715Y-114288810D01*
X166711096Y-114193571D01*
X166663477Y-114145952D01*
X166568239Y-114098333D01*
X166377762Y-114098333D01*
X166282524Y-114145952D01*
X166234905Y-114193571D01*
X166187286Y-114288810D01*
X117405143Y-90003095D02*
X117452762Y-90050714D01*
X117500381Y-90193571D01*
X117500381Y-90288809D01*
X117452762Y-90431667D01*
X117357524Y-90526905D01*
X117262286Y-90574524D01*
X117071810Y-90622143D01*
X116928952Y-90622143D01*
X116738476Y-90574524D01*
X116643238Y-90526905D01*
X116548000Y-90431667D01*
X116500381Y-90288809D01*
X116500381Y-90193571D01*
X116548000Y-90050714D01*
X116595619Y-90003095D01*
X116500381Y-89384048D02*
X116500381Y-89193571D01*
X116548000Y-89098333D01*
X116643238Y-89003095D01*
X116833714Y-88955476D01*
X117167048Y-88955476D01*
X117357524Y-89003095D01*
X117452762Y-89098333D01*
X117500381Y-89193571D01*
X117500381Y-89384048D01*
X117452762Y-89479286D01*
X117357524Y-89574524D01*
X117167048Y-89622143D01*
X116833714Y-89622143D01*
X116643238Y-89574524D01*
X116548000Y-89479286D01*
X116500381Y-89384048D01*
X117500381Y-88526905D02*
X116500381Y-88526905D01*
X117500381Y-87955476D01*
X116500381Y-87955476D01*
X117500381Y-87479286D02*
X116500381Y-87479286D01*
X117500381Y-86907857D01*
X116500381Y-86907857D01*
X117500381Y-85907857D02*
X117500381Y-86479286D01*
X117500381Y-86193572D02*
X116500381Y-86193572D01*
X116643238Y-86288810D01*
X116738476Y-86384048D01*
X116786095Y-86479286D01*
X118308334Y-99027381D02*
X117975000Y-98551190D01*
X117736905Y-99027381D02*
X117736905Y-98027381D01*
X118117858Y-98027381D01*
X118213096Y-98075000D01*
X118260715Y-98122619D01*
X118308334Y-98217857D01*
X118308334Y-98360714D01*
X118260715Y-98455952D01*
X118213096Y-98503571D01*
X118117858Y-98551190D01*
X117736905Y-98551190D01*
X118641667Y-98027381D02*
X119308334Y-99027381D01*
X119308334Y-98027381D02*
X118641667Y-99027381D01*
X117713095Y-105552381D02*
X118284524Y-105552381D01*
X117998809Y-106552381D02*
X117998809Y-105552381D01*
X118522619Y-105552381D02*
X119189286Y-106552381D01*
X119189286Y-105552381D02*
X118522619Y-106552381D01*
X118259524Y-114002381D02*
X117783333Y-114002381D01*
X117783333Y-113002381D01*
X117855952Y-120452381D02*
X118046429Y-120452381D01*
X118141667Y-120500000D01*
X118236905Y-120595238D01*
X118284524Y-120785714D01*
X118284524Y-121119048D01*
X118236905Y-121309524D01*
X118141667Y-121404762D01*
X118046429Y-121452381D01*
X117855952Y-121452381D01*
X117760714Y-121404762D01*
X117665476Y-121309524D01*
X117617857Y-121119048D01*
X117617857Y-120785714D01*
X117665476Y-120595238D01*
X117760714Y-120500000D01*
X117855952Y-120452381D01*
X118713095Y-121452381D02*
X118713095Y-120452381D01*
X119284524Y-121452381D01*
X119284524Y-120452381D01*
X120956334Y-96342381D02*
X120623000Y-95866190D01*
X120384905Y-96342381D02*
X120384905Y-95342381D01*
X120765858Y-95342381D01*
X120861096Y-95390000D01*
X120908715Y-95437619D01*
X120956334Y-95532857D01*
X120956334Y-95675714D01*
X120908715Y-95770952D01*
X120861096Y-95818571D01*
X120765858Y-95866190D01*
X120384905Y-95866190D01*
X121908715Y-96342381D02*
X121337286Y-96342381D01*
X121623000Y-96342381D02*
X121623000Y-95342381D01*
X121527762Y-95485238D01*
X121432524Y-95580476D01*
X121337286Y-95628095D01*
X121031334Y-99467381D02*
X120698000Y-98991190D01*
X120459905Y-99467381D02*
X120459905Y-98467381D01*
X120840858Y-98467381D01*
X120936096Y-98515000D01*
X120983715Y-98562619D01*
X121031334Y-98657857D01*
X121031334Y-98800714D01*
X120983715Y-98895952D01*
X120936096Y-98943571D01*
X120840858Y-98991190D01*
X120459905Y-98991190D01*
X121412286Y-98562619D02*
X121459905Y-98515000D01*
X121555143Y-98467381D01*
X121793239Y-98467381D01*
X121888477Y-98515000D01*
X121936096Y-98562619D01*
X121983715Y-98657857D01*
X121983715Y-98753095D01*
X121936096Y-98895952D01*
X121364667Y-99467381D01*
X121983715Y-99467381D01*
X120931334Y-102467381D02*
X120598000Y-101991190D01*
X120359905Y-102467381D02*
X120359905Y-101467381D01*
X120740858Y-101467381D01*
X120836096Y-101515000D01*
X120883715Y-101562619D01*
X120931334Y-101657857D01*
X120931334Y-101800714D01*
X120883715Y-101895952D01*
X120836096Y-101943571D01*
X120740858Y-101991190D01*
X120359905Y-101991190D01*
X121264667Y-101467381D02*
X121883715Y-101467381D01*
X121550381Y-101848333D01*
X121693239Y-101848333D01*
X121788477Y-101895952D01*
X121836096Y-101943571D01*
X121883715Y-102038810D01*
X121883715Y-102276905D01*
X121836096Y-102372143D01*
X121788477Y-102419762D01*
X121693239Y-102467381D01*
X121407524Y-102467381D01*
X121312286Y-102419762D01*
X121264667Y-102372143D01*
X120956334Y-105592381D02*
X120623000Y-105116190D01*
X120384905Y-105592381D02*
X120384905Y-104592381D01*
X120765858Y-104592381D01*
X120861096Y-104640000D01*
X120908715Y-104687619D01*
X120956334Y-104782857D01*
X120956334Y-104925714D01*
X120908715Y-105020952D01*
X120861096Y-105068571D01*
X120765858Y-105116190D01*
X120384905Y-105116190D01*
X121813477Y-104925714D02*
X121813477Y-105592381D01*
X121575381Y-104544762D02*
X121337286Y-105259048D01*
X121956334Y-105259048D01*
X137281334Y-108417381D02*
X136948000Y-107941190D01*
X136709905Y-108417381D02*
X136709905Y-107417381D01*
X137090858Y-107417381D01*
X137186096Y-107465000D01*
X137233715Y-107512619D01*
X137281334Y-107607857D01*
X137281334Y-107750714D01*
X137233715Y-107845952D01*
X137186096Y-107893571D01*
X137090858Y-107941190D01*
X136709905Y-107941190D01*
X138186096Y-107417381D02*
X137709905Y-107417381D01*
X137662286Y-107893571D01*
X137709905Y-107845952D01*
X137805143Y-107798333D01*
X138043239Y-107798333D01*
X138138477Y-107845952D01*
X138186096Y-107893571D01*
X138233715Y-107988810D01*
X138233715Y-108226905D01*
X138186096Y-108322143D01*
X138138477Y-108369762D01*
X138043239Y-108417381D01*
X137805143Y-108417381D01*
X137709905Y-108369762D01*
X137662286Y-108322143D01*
X137381334Y-105417381D02*
X137048000Y-104941190D01*
X136809905Y-105417381D02*
X136809905Y-104417381D01*
X137190858Y-104417381D01*
X137286096Y-104465000D01*
X137333715Y-104512619D01*
X137381334Y-104607857D01*
X137381334Y-104750714D01*
X137333715Y-104845952D01*
X137286096Y-104893571D01*
X137190858Y-104941190D01*
X136809905Y-104941190D01*
X138238477Y-104417381D02*
X138048000Y-104417381D01*
X137952762Y-104465000D01*
X137905143Y-104512619D01*
X137809905Y-104655476D01*
X137762286Y-104845952D01*
X137762286Y-105226905D01*
X137809905Y-105322143D01*
X137857524Y-105369762D01*
X137952762Y-105417381D01*
X138143239Y-105417381D01*
X138238477Y-105369762D01*
X138286096Y-105322143D01*
X138333715Y-105226905D01*
X138333715Y-104988810D01*
X138286096Y-104893571D01*
X138238477Y-104845952D01*
X138143239Y-104798333D01*
X137952762Y-104798333D01*
X137857524Y-104845952D01*
X137809905Y-104893571D01*
X137762286Y-104988810D01*
X137281334Y-102442381D02*
X136948000Y-101966190D01*
X136709905Y-102442381D02*
X136709905Y-101442381D01*
X137090858Y-101442381D01*
X137186096Y-101490000D01*
X137233715Y-101537619D01*
X137281334Y-101632857D01*
X137281334Y-101775714D01*
X137233715Y-101870952D01*
X137186096Y-101918571D01*
X137090858Y-101966190D01*
X136709905Y-101966190D01*
X137614667Y-101442381D02*
X138281334Y-101442381D01*
X137852762Y-102442381D01*
X137381334Y-99467381D02*
X137048000Y-98991190D01*
X136809905Y-99467381D02*
X136809905Y-98467381D01*
X137190858Y-98467381D01*
X137286096Y-98515000D01*
X137333715Y-98562619D01*
X137381334Y-98657857D01*
X137381334Y-98800714D01*
X137333715Y-98895952D01*
X137286096Y-98943571D01*
X137190858Y-98991190D01*
X136809905Y-98991190D01*
X137952762Y-98895952D02*
X137857524Y-98848333D01*
X137809905Y-98800714D01*
X137762286Y-98705476D01*
X137762286Y-98657857D01*
X137809905Y-98562619D01*
X137857524Y-98515000D01*
X137952762Y-98467381D01*
X138143239Y-98467381D01*
X138238477Y-98515000D01*
X138286096Y-98562619D01*
X138333715Y-98657857D01*
X138333715Y-98705476D01*
X138286096Y-98800714D01*
X138238477Y-98848333D01*
X138143239Y-98895952D01*
X137952762Y-98895952D01*
X137857524Y-98943571D01*
X137809905Y-98991190D01*
X137762286Y-99086429D01*
X137762286Y-99276905D01*
X137809905Y-99372143D01*
X137857524Y-99419762D01*
X137952762Y-99467381D01*
X138143239Y-99467381D01*
X138238477Y-99419762D01*
X138286096Y-99372143D01*
X138333715Y-99276905D01*
X138333715Y-99086429D01*
X138286096Y-98991190D01*
X138238477Y-98943571D01*
X138143239Y-98895952D01*
X137281334Y-96442381D02*
X136948000Y-95966190D01*
X136709905Y-96442381D02*
X136709905Y-95442381D01*
X137090858Y-95442381D01*
X137186096Y-95490000D01*
X137233715Y-95537619D01*
X137281334Y-95632857D01*
X137281334Y-95775714D01*
X137233715Y-95870952D01*
X137186096Y-95918571D01*
X137090858Y-95966190D01*
X136709905Y-95966190D01*
X137757524Y-96442381D02*
X137948000Y-96442381D01*
X138043239Y-96394762D01*
X138090858Y-96347143D01*
X138186096Y-96204286D01*
X138233715Y-96013810D01*
X138233715Y-95632857D01*
X138186096Y-95537619D01*
X138138477Y-95490000D01*
X138043239Y-95442381D01*
X137852762Y-95442381D01*
X137757524Y-95490000D01*
X137709905Y-95537619D01*
X137662286Y-95632857D01*
X137662286Y-95870952D01*
X137709905Y-95966190D01*
X137757524Y-96013810D01*
X137852762Y-96061429D01*
X138043239Y-96061429D01*
X138138477Y-96013810D01*
X138186096Y-95966190D01*
X138233715Y-95870952D01*
X124750534Y-116765343D02*
X124702915Y-116812962D01*
X124560058Y-116860581D01*
X124464820Y-116860581D01*
X124321962Y-116812962D01*
X124226724Y-116717724D01*
X124179105Y-116622486D01*
X124131486Y-116432010D01*
X124131486Y-116289152D01*
X124179105Y-116098676D01*
X124226724Y-116003438D01*
X124321962Y-115908200D01*
X124464820Y-115860581D01*
X124560058Y-115860581D01*
X124702915Y-115908200D01*
X124750534Y-115955819D01*
X125083867Y-115860581D02*
X125750534Y-115860581D01*
X125321962Y-116860581D01*
X148931334Y-114847143D02*
X148883715Y-114894762D01*
X148740858Y-114942381D01*
X148645620Y-114942381D01*
X148502762Y-114894762D01*
X148407524Y-114799524D01*
X148359905Y-114704286D01*
X148312286Y-114513810D01*
X148312286Y-114370952D01*
X148359905Y-114180476D01*
X148407524Y-114085238D01*
X148502762Y-113990000D01*
X148645620Y-113942381D01*
X148740858Y-113942381D01*
X148883715Y-113990000D01*
X148931334Y-114037619D01*
X149502762Y-114370952D02*
X149407524Y-114323333D01*
X149359905Y-114275714D01*
X149312286Y-114180476D01*
X149312286Y-114132857D01*
X149359905Y-114037619D01*
X149407524Y-113990000D01*
X149502762Y-113942381D01*
X149693239Y-113942381D01*
X149788477Y-113990000D01*
X149836096Y-114037619D01*
X149883715Y-114132857D01*
X149883715Y-114180476D01*
X149836096Y-114275714D01*
X149788477Y-114323333D01*
X149693239Y-114370952D01*
X149502762Y-114370952D01*
X149407524Y-114418571D01*
X149359905Y-114466190D01*
X149312286Y-114561429D01*
X149312286Y-114751905D01*
X149359905Y-114847143D01*
X149407524Y-114894762D01*
X149502762Y-114942381D01*
X149693239Y-114942381D01*
X149788477Y-114894762D01*
X149836096Y-114847143D01*
X149883715Y-114751905D01*
X149883715Y-114561429D01*
X149836096Y-114466190D01*
X149788477Y-114418571D01*
X149693239Y-114370952D01*
X126763381Y-112076905D02*
X127572905Y-112076905D01*
X127668143Y-112029286D01*
X127715762Y-111981667D01*
X127763381Y-111886429D01*
X127763381Y-111695952D01*
X127715762Y-111600714D01*
X127668143Y-111553095D01*
X127572905Y-111505476D01*
X126763381Y-111505476D01*
X126858619Y-111076905D02*
X126811000Y-111029286D01*
X126763381Y-110934048D01*
X126763381Y-110695952D01*
X126811000Y-110600714D01*
X126858619Y-110553095D01*
X126953857Y-110505476D01*
X127049095Y-110505476D01*
X127191952Y-110553095D01*
X127763381Y-111124524D01*
X127763381Y-110505476D01*
M02*
