M48
;DRILL file {KiCad 4.0.4+dfsg1-stable} date Sun Dec 25 20:03:42 2016
;FORMAT={-:-/ absolute / inch / decimal}
FMAT,2
INCH,TZ
T1C0.016
T2C0.020
T3C0.022
T4C0.031
T5C0.032
T6C0.032
T7C0.039
T8C0.040
T9C0.043
T10C0.120
%
G90
G05
M72
T1
X4.638Y-3.725
X4.666Y-3.647
X4.68Y-4.061
X4.734Y-3.833
X4.94Y-4.135
X4.994Y-4.013
X5.046Y-4.293
X5.1028Y-4.0803
X5.36Y-4.019
X5.56Y-3.177
X5.694Y-3.899
X5.734Y-4.117
X5.778Y-3.175
X5.846Y-3.655
X5.948Y-3.173
X5.9848Y-3.98
X6.0129Y-4.2035
X6.086Y-4.2476
X6.115Y-4.1059
X6.12Y-3.653
X6.2324Y-4.2306
X6.2358Y-4.1964
X6.2381Y-4.1569
X6.2761Y-4.1693
X6.2765Y-4.1036
X6.2834Y-4.2095
X6.3394Y-4.0744
X6.3673Y-3.8947
X6.3936Y-3.829
X6.4478Y-4.3434
X6.4746Y-4.3166
X6.499Y-4.2943
X6.5098Y-3.6393
X6.5401Y-3.9954
X6.5696Y-4.0943
X6.624Y-4.681
X6.6759Y-4.0798
X6.6805Y-3.6649
X6.844Y-4.613
X6.8514Y-4.0161
T4
X4.9891Y-4.6709
X5.0875Y-4.6709
X5.1131Y-4.8736
X5.2834Y-4.6728
X5.31Y-4.8736
X5.3818Y-4.6728
X5.7686Y-4.5852
X5.9655Y-4.5852
X6.1062Y-4.5823
X6.3031Y-4.5823
X6.435Y-4.5783
X6.4684Y-3.3126
X6.4684Y-3.5094
X6.6318Y-4.5783
X6.6417Y-3.3077
X6.6417Y-3.5045
T5
X6.4599Y-3.7112
X6.6521Y-3.7112
T6
X6.8791Y-3.7766
X6.8791Y-3.8766
X6.8791Y-3.9766
X6.9791Y-3.7766
X6.9791Y-3.8766
X6.9791Y-3.9766
T7
X4.4669Y-3.878
X4.4669Y-4.1732
X4.4669Y-4.4685
X4.4669Y-4.7638
X4.5669Y-3.878
X4.5669Y-4.1732
X4.5669Y-4.4685
X4.5669Y-4.7638
X4.8592Y-3.7791
X4.8592Y-4.1354
X4.8598Y-3.8982
X4.8598Y-4.0163
X5.2592Y-3.7791
X5.2592Y-4.1354
X5.2598Y-3.8982
X5.2598Y-4.0163
X5.5019Y-3.7791
X5.5019Y-3.8982
X5.5019Y-4.0154
X5.5019Y-4.1325
X5.5019Y-4.2506
X5.9019Y-3.7791
X5.9019Y-3.8982
X5.9019Y-4.0154
X5.9019Y-4.1325
X5.9019Y-4.2506
T8
X5.11Y-2.975
X5.21Y-2.975
X5.31Y-2.975
X5.41Y-2.975
X5.47Y-4.875
X5.51Y-2.975
X5.57Y-4.875
X5.61Y-2.975
X5.67Y-4.875
X5.71Y-2.975
X5.77Y-4.875
X5.81Y-2.975
X5.87Y-4.875
X5.91Y-2.975
X5.97Y-4.875
X6.01Y-2.975
X6.07Y-4.875
X6.17Y-2.975
X6.17Y-4.875
X6.27Y-2.975
X6.37Y-2.975
X6.37Y-4.875
X6.47Y-2.975
X6.47Y-4.875
X6.57Y-2.975
X6.57Y-4.875
X6.67Y-2.975
X6.67Y-4.875
X6.77Y-2.975
X6.77Y-4.875
X6.87Y-2.975
X6.87Y-4.875
T9
X4.492Y-2.9396
X4.492Y-3.1167
X4.748Y-2.9396
X4.748Y-3.1167
T10
X4.92Y-4.875
X4.97Y-2.975
X6.97Y-3.575
X6.97Y-4.675
T2
X4.4148Y-3.3372G85X4.4404Y-3.3372
G05
X4.4148Y-3.6128G85X4.4404Y-3.6128
G05
T3
X4.5339Y-3.3706G85X4.5339Y-3.3824
G05
X4.5339Y-3.5675G85X4.5339Y-3.5793
G05
T0
M30
