G04 #@! TF.FileFunction,Soldermask,Top*
%FSLAX46Y46*%
G04 Gerber Fmt 4.6, Leading zero omitted, Abs format (unit mm)*
G04 Created by KiCad (PCBNEW 4.0.4+dfsg1-stable) date Sun Dec 25 20:03:28 2016*
%MOMM*%
%LPD*%
G01*
G04 APERTURE LIST*
%ADD10C,0.100000*%
%ADD11C,1.501140*%
%ADD12O,1.727200X2.032000*%
%ADD13C,4.064000*%
%ADD14R,1.300000X1.300000*%
%ADD15C,1.300000*%
%ADD16R,1.350000X0.400000*%
%ADD17O,1.250000X1.250000*%
%ADD18O,1.550000X1.800000*%
%ADD19R,1.397000X1.397000*%
%ADD20C,1.397000*%
%ADD21R,1.900000X2.000000*%
%ADD22C,1.900000*%
%ADD23C,2.000000*%
%ADD24R,1.500000X0.550000*%
%ADD25R,0.550000X1.500000*%
%ADD26C,1.998980*%
%ADD27R,2.032000X3.657600*%
%ADD28R,2.032000X1.016000*%
G04 APERTURE END LIST*
D10*
D11*
X164082060Y-94265000D03*
X168963940Y-94265000D03*
D12*
X138938000Y-123825000D03*
X141478000Y-123825000D03*
X144018000Y-123825000D03*
X146558000Y-123825000D03*
X149098000Y-123825000D03*
X151638000Y-123825000D03*
X154178000Y-123825000D03*
X156718000Y-123825000D03*
X161798000Y-123825000D03*
X164338000Y-123825000D03*
X166878000Y-123825000D03*
X169418000Y-123825000D03*
X171958000Y-123825000D03*
X174498000Y-123825000D03*
X129794000Y-75565000D03*
X132334000Y-75565000D03*
X134874000Y-75565000D03*
X137414000Y-75565000D03*
X139954000Y-75565000D03*
X142494000Y-75565000D03*
X145034000Y-75565000D03*
X147574000Y-75565000D03*
X150114000Y-75565000D03*
X152654000Y-75565000D03*
X156718000Y-75565000D03*
X159258000Y-75565000D03*
X161798000Y-75565000D03*
X164338000Y-75565000D03*
X166878000Y-75565000D03*
X169418000Y-75565000D03*
X171958000Y-75565000D03*
X174498000Y-75565000D03*
D13*
X124968000Y-123825000D03*
X177038000Y-118745000D03*
X126238000Y-75565000D03*
X177038000Y-90805000D03*
D14*
X164298000Y-89140000D03*
D15*
X164298000Y-84140000D03*
D14*
X168698000Y-89015000D03*
D15*
X168698000Y-84015000D03*
D14*
X136698000Y-118690000D03*
D15*
X134198000Y-118690000D03*
D14*
X160098000Y-116390000D03*
D15*
X155098000Y-116390000D03*
D14*
X129873000Y-123790000D03*
D15*
X134873000Y-123790000D03*
D14*
X163448000Y-116290000D03*
D15*
X168448000Y-116290000D03*
D16*
X115160540Y-86964100D03*
X115160540Y-87614100D03*
X115160540Y-88264100D03*
X115160540Y-88914100D03*
X115160540Y-89564100D03*
D17*
X115160540Y-85764100D03*
X115160540Y-90764100D03*
D18*
X112460540Y-84764100D03*
X112460540Y-91764100D03*
D19*
X174728000Y-95925000D03*
D20*
X177268000Y-95925000D03*
X174728000Y-98465000D03*
X177268000Y-98465000D03*
X174728000Y-101005000D03*
X177268000Y-101005000D03*
D21*
X116000000Y-98500000D03*
D22*
X113460000Y-98500000D03*
D21*
X116000000Y-106000000D03*
D22*
X113460000Y-106000000D03*
D21*
X116000000Y-113500000D03*
D22*
X113460000Y-113500000D03*
D21*
X116000000Y-121000000D03*
D22*
X113460000Y-121000000D03*
D23*
X114098000Y-79165000D03*
X114098000Y-74665000D03*
X120598000Y-79165000D03*
X120598000Y-74665000D03*
D24*
X168198000Y-109890000D03*
X168198000Y-109090000D03*
X168198000Y-108290000D03*
X168198000Y-107490000D03*
X168198000Y-106690000D03*
X168198000Y-105890000D03*
X168198000Y-105090000D03*
X168198000Y-104290000D03*
X168198000Y-103490000D03*
X168198000Y-102690000D03*
X168198000Y-101890000D03*
D25*
X166498000Y-100190000D03*
X165698000Y-100190000D03*
X164898000Y-100190000D03*
X164098000Y-100190000D03*
X163298000Y-100190000D03*
X162498000Y-100190000D03*
X161698000Y-100190000D03*
X160898000Y-100190000D03*
X160098000Y-100190000D03*
X159298000Y-100190000D03*
X158498000Y-100190000D03*
D24*
X156798000Y-101890000D03*
X156798000Y-102690000D03*
X156798000Y-103490000D03*
X156798000Y-104290000D03*
X156798000Y-105090000D03*
X156798000Y-105890000D03*
X156798000Y-106690000D03*
X156798000Y-107490000D03*
X156798000Y-108290000D03*
X156798000Y-109090000D03*
X156798000Y-109890000D03*
D25*
X158498000Y-111590000D03*
X159298000Y-111590000D03*
X160098000Y-111590000D03*
X160898000Y-111590000D03*
X161698000Y-111590000D03*
X162498000Y-111590000D03*
X163298000Y-111590000D03*
X164098000Y-111590000D03*
X164898000Y-111590000D03*
X165698000Y-111590000D03*
X166498000Y-111590000D03*
D26*
X123423000Y-95990000D03*
X133583000Y-95990000D03*
X133598000Y-99015000D03*
X123438000Y-99015000D03*
X133598000Y-102015000D03*
X123438000Y-102015000D03*
X123423000Y-105040000D03*
X133583000Y-105040000D03*
X139748000Y-107965000D03*
X149908000Y-107965000D03*
X139748000Y-104965000D03*
X149908000Y-104965000D03*
X139748000Y-101990000D03*
X149908000Y-101990000D03*
X139748000Y-99015000D03*
X149908000Y-99015000D03*
X139748000Y-95990000D03*
X149908000Y-95990000D03*
D14*
X129223000Y-118640000D03*
D15*
X126723000Y-118640000D03*
D14*
X146523000Y-116465000D03*
D15*
X151523000Y-116465000D03*
D27*
X124771000Y-111315000D03*
D28*
X131375000Y-111315000D03*
X131375000Y-109029000D03*
X131375000Y-113601000D03*
M02*
